<svg width="231" height="182" viewBox="0 0 231 182" fill="none" xmlns="http://www.w3.org/2000/svg">
<path d="M40.8235 49.5983C53.5401 26.1877 85.5528 -1.12734 129.476 10.2528C173.4 21.633 203.073 45.6992 198.211 87.5873C193.35 129.475 167.794 164.282 112.755 165.295C57.7158 166.308 12.9011 100.913 40.8235 49.5983Z" fill="#293842"/>
<path opacity="0.7" d="M40.8235 49.5983C53.5401 26.1877 85.5528 -1.12734 129.476 10.2528C173.4 21.633 203.073 45.6992 198.211 87.5873C193.35 129.475 167.794 164.282 112.755 165.295C57.7158 166.308 12.9011 100.913 40.8235 49.5983Z" fill="#D7E0F8"/>
<path d="M169.893 59.558H102.458V102.936H169.893V59.558Z" fill="#293842"/>
<path opacity="0.4" d="M169.893 59.558H102.458V102.936H169.893V59.558Z" fill="white"/>
<path d="M169.897 59.558H166.012V102.936H169.897V59.558Z" fill="#293842"/>
<path d="M191.783 111.222H102.458V154.424H191.783V111.222Z" fill="#293842"/>
<path opacity="0.4" d="M191.783 111.222H102.458V154.424H191.783V111.222Z" fill="white"/>
<path d="M157.713 120.92H144.298V133.438H157.713V120.92Z" fill="#030303"/>
<path d="M157.713 120.92V122.666L145.539 122.674V133.441H144.298V120.92H157.713Z" fill="#E6E6E6"/>
<path opacity="0.2" d="M145.538 133.441L152.763 122.669L157.713 122.666V124.585L151.224 133.441H145.538Z" fill="white"/>
<path opacity="0.2" d="M154.111 133.441L157.713 128.308V131.122L155.912 133.441H154.111Z" fill="white"/>
<path opacity="0.2" d="M145.538 122.674V125.984L147.881 122.666L145.538 122.674Z" fill="white"/>
<path d="M177.836 120.92H164.421V133.438H177.836V120.92Z" fill="#030303"/>
<path d="M177.836 120.92V122.666L165.664 122.674V133.441H164.421V120.92H177.836Z" fill="#E6E6E6"/>
<path opacity="0.2" d="M165.664 133.441L172.887 122.669L177.836 122.666V124.585L171.35 133.441H165.664Z" fill="white"/>
<path opacity="0.2" d="M174.234 133.441L177.836 128.308V131.122L176.035 133.441H174.234Z" fill="white"/>
<path opacity="0.2" d="M165.664 122.674V125.984L168.007 122.666L165.664 122.674Z" fill="white"/>
<path d="M196.725 102.933H102.458V106.459H196.725V102.933Z" fill="#3D68D1"/>
<path opacity="0.2" d="M196.725 102.933H102.458V106.459H196.725V102.933Z" fill="white"/>
<path d="M194.254 106.462H102.458V111.4H194.254V106.462Z" fill="#3D68D1"/>
<path opacity="0.2" d="M194.254 106.462H102.458V111.4H194.254V106.462Z" fill="black"/>
<path d="M132.822 126.562H116.581V154.424H132.822V126.562Z" fill="#030303"/>
<path d="M132.822 126.562V127.972H118.195V154.424H116.581V126.562H132.822Z" fill="#E6E6E6"/>
<path opacity="0.2" d="M127.577 127.972L118.195 138.022V141.703L130.453 127.972H127.577Z" fill="white"/>
<path opacity="0.2" d="M132.822 129.686L118.195 144.8V154.424H120.618L132.822 141.399V129.686Z" fill="white"/>
<path opacity="0.2" d="M124.702 154.424L132.821 146.085V148.427L127.2 154.424H124.702Z" fill="white"/>
<path d="M131.411 140.053H129.925C129.844 139.867 129.701 139.715 129.521 139.622C129.34 139.529 129.133 139.5 128.935 139.541C128.736 139.583 128.558 139.691 128.429 139.848C128.301 140.006 128.231 140.202 128.231 140.405C128.231 140.608 128.301 140.804 128.429 140.962C128.558 141.119 128.736 141.227 128.935 141.269C129.133 141.31 129.34 141.282 129.521 141.189C129.701 141.095 129.844 140.943 129.925 140.757H131.411V140.053Z" fill="#E6E6E6"/>
<path d="M188.608 143.137H144.121V154.421H188.608V143.137Z" fill="#E6E6E6"/>
<path opacity="0.2" d="M151.534 143.137H147.297V154.421H151.534V143.137Z" fill="white"/>
<path opacity="0.2" d="M158.949 143.137H154.712V154.421H158.949V143.137Z" fill="white"/>
<path opacity="0.2" d="M166.716 143.137H162.479V154.421H166.716V143.137Z" fill="white"/>
<path opacity="0.2" d="M173.778 143.137H169.541V154.421H173.778V143.137Z" fill="white"/>
<path opacity="0.2" d="M181.546 143.137H177.309V154.421H181.546V143.137Z" fill="white"/>
<path opacity="0.2" d="M188.608 143.137H184.724V154.421H188.608V143.137Z" fill="white"/>
<path d="M172.012 54.9713V59.558H105.014L95.7285 54.9713H172.012Z" fill="#293842"/>
<path opacity="0.2" d="M172.012 54.9713V59.558H105.014L95.7285 54.9713H172.012Z" fill="black"/>
<path d="M173.603 51.4453V55.1498H95.5744L88.5918 51.4453H173.603Z" fill="#3D68D1"/>
<path opacity="0.2" d="M173.603 51.4453V55.1498H95.5744L88.5918 51.4453H173.603Z" fill="white"/>
<path d="M156.123 68.3743H115.521V93.0615H156.123V68.3743Z" fill="#030303"/>
<path d="M156.126 68.3743V72.2521H118.347V93.0588H115.521V68.3743H156.126Z" fill="#E6E6E6"/>
<path opacity="0.2" d="M128.005 72.2521L118.347 85.8816V91.4225L131.095 72.2521H128.005Z" fill="white"/>
<path opacity="0.2" d="M121.951 93.0589L136.175 72.2521H147.576L133.352 93.0589H121.951Z" fill="white"/>
<path opacity="0.2" d="M137.993 93.0589L152.014 72.2521H156.126L141.825 92.883L137.993 93.0589Z" fill="white"/>
<path d="M73.3321 49.8595L42.2559 65.0908V154.424H103.872V64.9602L73.3321 49.8595Z" fill="#293842"/>
<path opacity="0.3" d="M73.3321 49.8595L42.2559 65.0908V154.424H103.872V64.9602L73.3321 49.8595Z" fill="white"/>
<path d="M194.254 154.424H38.2002V160.42H194.254V154.424Z" fill="#3D68D1"/>
<path opacity="0.2" d="M194.254 154.424H38.2002V160.42H194.254V154.424Z" fill="black"/>
<path opacity="0.2" d="M42.2559 65.0908V69.1765L73.0626 53.4175L103.872 69.1765V64.9602L73.3321 49.8595L42.2559 65.0908Z" fill="black"/>
<path d="M78.8048 73.1342C78.8048 73.8984 78.6541 74.6552 78.3612 75.3613C78.0683 76.0673 77.639 76.7088 77.0979 77.2491C76.5567 77.7894 75.9143 78.2179 75.2073 78.5101C74.5003 78.8023 73.7426 78.9525 72.9775 78.9522C72.6774 78.952 72.3776 78.9288 72.081 78.8829C71.2189 78.7511 70.3978 78.4258 69.6797 77.9314C69.5462 77.8382 69.4128 77.7396 69.2848 77.6356C68.135 76.6856 67.3942 75.331 67.215 73.8514C67.0358 72.3717 67.432 70.8798 68.3218 69.6833C69.2116 68.4869 70.5272 67.6772 71.9972 67.4212C73.4671 67.1652 74.9794 67.4825 76.222 68.3076C76.3368 68.3849 76.4461 68.4622 76.5502 68.5475C77.2482 69.0912 77.8131 69.7865 78.2019 70.5808C78.5907 71.3751 78.7932 72.2474 78.7941 73.1315L78.8048 73.1342Z" fill="#030303"/>
<path d="M76.5608 68.5502C76.0554 68.3762 75.5331 68.2556 75.0026 68.1904C71.2244 67.74 68.1214 71.0421 68.5829 74.8133C68.7023 75.7768 68.937 76.7226 69.282 77.6303C68.0765 76.6662 67.3039 75.2632 67.134 73.7301C66.9641 72.1969 67.4109 70.6591 68.3762 69.455C69.3414 68.2509 70.746 67.4791 72.2809 67.3094C73.8158 67.1397 75.3553 67.5861 76.5608 68.5502Z" fill="#E6E6E6"/>
<path opacity="0.2" d="M77.823 69.9067L72.081 78.8882C71.2189 78.7564 70.3979 78.4311 69.6797 77.9368L76.2327 68.3156C76.3475 68.3929 76.4569 68.4702 76.5609 68.5555C77.0517 68.9351 77.4779 69.3913 77.823 69.9067Z" fill="white"/>
<path d="M68.9167 87.7712H49.8525V105.404H68.9167V87.7712Z" fill="#030303"/>
<path d="M68.9193 87.7685V90.2284L51.6189 90.2391V105.404H49.8525V87.7685H68.9193Z" fill="#E6E6E6"/>
<path opacity="0.2" d="M51.6182 105.404L61.8826 90.2337L68.9186 90.2311V92.9309L59.6974 105.404H51.6182Z" fill="white"/>
<path opacity="0.2" d="M63.7988 105.404L68.9191 98.1732V102.142L66.3576 105.404H63.7988Z" fill="white"/>
<path opacity="0.2" d="M51.6182 90.2391V94.9031L54.948 90.2311L51.6182 90.2391Z" fill="white"/>
<path d="M95.3952 87.7712H76.3311V105.404H95.3952V87.7712Z" fill="#030303"/>
<path d="M95.3978 87.7685V90.2284L78.0974 90.2391V105.404H76.3311V87.7685H95.3978Z" fill="#E6E6E6"/>
<path opacity="0.2" d="M78.0977 105.404L88.3621 90.2337L95.3981 90.2311V92.9309L86.1769 105.404H78.0977Z" fill="white"/>
<path opacity="0.2" d="M90.2803 105.404L95.3978 98.1732V102.142L92.8391 105.404H90.2803Z" fill="white"/>
<path opacity="0.2" d="M78.0977 90.2391V94.9031L81.4275 90.2311L78.0977 90.2391Z" fill="white"/>
<path d="M87.9863 119.862H57.9746V154.069H87.9863V119.862Z" fill="#030303"/>
<path d="M87.9836 119.862V121.976H60.2692V154.069H57.9746V119.862H87.9836Z" fill="#E6E6E6"/>
<path opacity="0.2" d="M60.2686 138.635L75.6319 121.976H71.9125L60.2686 134.696V138.635Z" fill="white"/>
<path opacity="0.2" d="M79.5088 121.976L60.2686 142.577V154.069H63.7986L87.9829 127.154V121.976H79.5088Z" fill="white"/>
<path opacity="0.2" d="M68.4199 154.069L87.983 133.345V136.967L71.3496 154.069H68.4199Z" fill="white"/>
<path d="M113.226 63.6116L112.114 66.2368L111.135 68.5502L73.3318 49.8595L35.2009 68.5502L32.7275 63.6116L72.977 43.7377L88.5911 51.4453L95.0161 54.6195L95.7285 54.9712L105.014 59.558L113.226 63.6116Z" fill="#3D68D1"/>
<path opacity="0.2" d="M112.114 66.2368L111.135 68.5501L73.3318 49.8595L35.2009 68.5501L34.0029 66.1595L72.977 46.9092L112.114 66.2368Z" fill="black"/>
<path d="M91.8652 115.278H54.4414V119.862H91.8652V115.278Z" fill="#293842"/>
<path d="M126.365 71.2047H126.013V93.0508H126.365V71.2047Z" fill="#E6E6E6"/>
<path d="M135.468 71.3885H135.116V93.2347H135.468V71.3885Z" fill="#E6E6E6"/>
<path d="M144.65 71.0181H144.298V92.8643H144.65V71.0181Z" fill="#E6E6E6"/>
<path d="M191.786 111.046H187.901V154.424H191.786V111.046Z" fill="#293842"/>
<path d="M198.491 159.008H34.6699V165.356H198.491V159.008Z" fill="#293842"/>
<mask id="mask0_65_1454" style="mask-type:luminance" maskUnits="userSpaceOnUse" x="36" y="7" width="150" height="174">
<path d="M40.2711 61.3569C40.2711 61.3569 29.3556 89.5115 44.695 117.858C60.0343 146.204 91.6255 161.191 116.912 173.997C142.198 186.803 168.456 180.566 180.932 159.591C193.408 138.617 176.297 123.644 176.273 93.7331C176.249 63.8222 180.756 55.9014 164.533 30.6332C148.311 5.36493 108.523 -0.231872 78.4447 18.5121C48.3664 37.256 40.2711 61.3569 40.2711 61.3569Z" fill="white"/>
</mask>
<g mask="url(#mask0_65_1454)">
<path d="M182.055 50.4858V64.6378C182.055 64.6378 149.7 75.3863 143.158 78.5711C136.616 81.756 129.582 88.3655 129.582 88.3655C127.232 90.7961 118.595 92.8057 119.016 90.5563C119.154 89.7415 119.172 88.911 119.07 88.091C118.987 87.3321 118.83 86.5831 118.6 85.855C117.842 87.2755 116.167 88.8799 116.167 88.8799C116.167 90.5536 115.158 93.32 115.158 93.32L114.782 98.677C116.5 101.777 114.985 103.029 114.334 102.941C113.683 102.853 112.944 101.723 112.944 101.723L111.97 101.854C111.97 101.854 110.796 104.279 109.87 104.367C108.944 104.455 108.432 103.112 108.432 103.112C108.432 103.112 107.943 104.031 106.772 103.49C106.47 103.299 106.234 103.02 106.097 102.691C105.366 101.228 104.96 98.3278 104.843 97.2724C104.675 95.9399 104.507 89.7354 104.507 88.9812C104.507 88.2269 108.701 81.7853 109.958 79.6025C111.215 77.4198 112.138 74.7466 113.811 73.8272C115.484 72.9077 117.333 73.6566 122.781 73.3235C128.23 72.9903 132.92 71.9003 135.391 70.9781C137.862 70.056 138.457 68.8034 142.061 67.9505C145.666 67.0977 181.804 50.5738 182.055 50.4858Z" fill="#F9B499"/>
<path d="M119.759 85.338C119.601 86.2694 119.37 87.1871 119.07 88.0831C118.988 87.3241 118.83 86.5751 118.601 85.847C117.843 87.2702 116.167 88.8746 116.167 88.8746C116.167 90.5456 115.159 93.3121 115.159 93.3121L114.783 98.669C116.501 101.769 114.985 103.021 114.334 102.933C113.683 102.845 112.944 101.715 112.944 101.715L111.97 101.846C111.97 101.846 110.796 104.271 109.87 104.359C108.945 104.447 108.432 103.104 108.432 103.104C108.432 103.104 107.944 104.023 106.773 103.482C106.47 103.292 106.234 103.013 106.098 102.683C106.519 102.872 107.026 102.683 107.485 101.449C107.794 100.615 107.91 99.7228 107.825 98.8381C107.74 97.9535 107.456 97.0994 106.994 96.3397C106.994 96.3397 108.736 92.6085 108.664 91.7156C108.592 90.8228 107.627 89.9487 107.981 89.3357C108.336 88.7227 109.198 89.8181 109.876 89.1225C110.554 88.4269 113.056 84.5144 112.952 84.072C112.848 83.6296 113.585 83.6562 113.969 83.3151C114.353 82.974 114.262 81.3216 114.769 81.5241C115.134 81.6742 115.49 81.8441 115.836 82.0332C115.89 81.6566 115.89 81.2744 115.836 80.8978C115.74 80.7086 117.664 82.6755 118.225 82.7634C118.785 82.8514 119.975 83.3364 119.759 85.338Z" fill="#F7A48B"/>
<path d="M108.44 103.282C108.421 103.285 108.402 103.285 108.384 103.282C108.345 103.267 108.313 103.238 108.296 103.2C108.278 103.162 108.277 103.119 108.29 103.08C108.304 103.042 109.638 99.3486 108.304 97.0992C108.291 97.0758 108.285 97.0497 108.285 97.0233C108.285 96.9968 108.291 96.9707 108.304 96.9473C108.587 96.4081 108.79 95.8309 108.907 95.2336C109.15 93.973 109.523 91.3932 109.419 91.036C109.267 90.519 109.745 89.97 109.766 89.946C110.349 89.3798 110.871 88.7545 111.324 88.0804C112.125 86.9104 113.256 84.7143 113.267 84.6903C113.276 84.6716 113.289 84.6551 113.305 84.6418C113.321 84.6285 113.34 84.6187 113.36 84.613C113.36 84.613 114.16 84.3465 115.108 83.2165C115.128 83.1925 115.155 83.1749 115.185 83.1659C115.23 83.1525 116.324 82.838 116.943 83.1659C116.968 83.1908 116.983 83.2231 116.988 83.2578C116.992 83.2925 116.985 83.3276 116.967 83.3578C116.95 83.388 116.923 83.4117 116.89 83.4252C116.858 83.4386 116.822 83.4411 116.789 83.4324C116.394 83.2112 115.633 83.3471 115.318 83.4324C114.462 84.4425 113.736 84.7809 113.52 84.8662C112.932 86.0198 112.286 87.1432 111.586 88.2323C111.121 88.9254 110.584 89.5677 109.985 90.1485C109.886 90.2631 109.625 90.6443 109.718 90.9348C109.867 91.4438 109.363 94.5034 109.214 95.2789C109.098 95.8777 108.898 96.4572 108.621 97.0006C109.955 99.3726 108.648 103.019 108.589 103.176C108.579 103.207 108.559 103.234 108.532 103.253C108.505 103.272 108.473 103.282 108.44 103.282Z" fill="#F29079"/>
<path d="M118.873 86.9077C118.854 86.9117 118.834 86.9117 118.814 86.9077C118.795 86.9001 118.777 86.8887 118.763 86.8742C118.748 86.8597 118.736 86.8425 118.728 86.8234C118.719 86.8043 118.715 86.7838 118.715 86.7631C118.715 86.7423 118.719 86.7217 118.726 86.7025C119.26 85.3832 118.726 83.6269 118.726 83.6109C118.715 83.571 118.719 83.528 118.738 83.4912C118.758 83.4544 118.791 83.4266 118.83 83.4137C118.85 83.4071 118.871 83.4046 118.892 83.4063C118.913 83.4081 118.933 83.4139 118.951 83.4237C118.97 83.4334 118.986 83.4467 118.999 83.4628C119.012 83.479 119.022 83.4976 119.028 83.5176C119.052 83.5923 119.604 85.3966 119.028 86.8197C119.013 86.8478 118.991 86.8711 118.964 86.8867C118.936 86.9023 118.905 86.9096 118.873 86.9077Z" fill="#F29079"/>
<path d="M118.6 86.0122C118.563 86.0121 118.526 85.9987 118.497 85.9743C118.468 85.9499 118.449 85.9161 118.443 85.8789C118.382 85.5165 118.139 84.5037 117.76 84.1706C117.728 84.143 117.709 84.1041 117.706 84.0623C117.704 84.0206 117.718 83.9795 117.745 83.948C117.773 83.9166 117.812 83.8974 117.854 83.8946C117.895 83.8919 117.937 83.9058 117.968 83.9334C118.502 84.4078 118.744 85.7697 118.755 85.8283C118.761 85.8692 118.752 85.9109 118.728 85.9447C118.704 85.9785 118.668 86.0017 118.627 86.0095L118.6 86.0122Z" fill="#F29079"/>
<path d="M116.261 86.0975C114.278 86.0975 113.326 84.9009 113.278 84.8422C113.252 84.8094 113.24 84.7676 113.245 84.7261C113.25 84.6846 113.272 84.6468 113.304 84.621C113.337 84.5952 113.379 84.5835 113.421 84.5885C113.462 84.5935 113.5 84.6148 113.526 84.6477C113.574 84.709 114.721 86.1322 117.163 85.6977C117.183 85.6939 117.204 85.6942 117.225 85.6986C117.245 85.7029 117.264 85.7113 117.282 85.7232C117.299 85.7351 117.313 85.7503 117.324 85.7679C117.336 85.7855 117.343 85.8051 117.347 85.8257C117.353 85.8669 117.343 85.9089 117.32 85.9432C117.296 85.9774 117.26 86.0012 117.219 86.0096C116.903 86.0672 116.582 86.0966 116.261 86.0975Z" fill="#F29079"/>
<path d="M112.637 92.8483H112.61C112.59 92.8451 112.57 92.8378 112.553 92.8269C112.535 92.816 112.52 92.8017 112.508 92.7848C112.496 92.7679 112.487 92.7487 112.483 92.7285C112.479 92.7083 112.478 92.6874 112.482 92.6671L112.861 90.535C112.866 90.5041 112.88 90.4754 112.901 90.4524C113.515 89.8234 115.132 86.7212 115.148 86.6838C115.157 86.6654 115.17 86.649 115.186 86.6357C115.202 86.6224 115.221 86.6123 115.24 86.6061C115.26 86.5999 115.281 86.5977 115.302 86.5996C115.323 86.6015 115.343 86.6075 115.361 86.6172C115.379 86.6265 115.396 86.6394 115.409 86.655C115.422 86.6707 115.433 86.6889 115.439 86.7085C115.445 86.7281 115.447 86.7488 115.445 86.7692C115.443 86.7897 115.437 86.8096 115.428 86.8278C115.361 86.9557 113.827 89.906 113.163 90.6363L112.792 92.7231C112.784 92.7586 112.765 92.7904 112.737 92.8132C112.708 92.8361 112.673 92.8485 112.637 92.8483Z" fill="#F29079"/>
<path d="M111.199 90.9374C110.83 90.936 110.466 90.855 110.131 90.7002C110.094 90.6818 110.065 90.6494 110.051 90.6101C110.037 90.5708 110.039 90.5275 110.057 90.4896C110.065 90.4709 110.078 90.4541 110.093 90.4402C110.108 90.4263 110.126 90.4156 110.145 90.4086C110.164 90.4017 110.185 90.3987 110.206 90.3998C110.226 90.4009 110.246 90.406 110.265 90.415C110.558 90.549 110.876 90.6183 111.199 90.6183C111.521 90.6183 111.84 90.549 112.133 90.415C112.151 90.4063 112.172 90.4013 112.192 90.4004C112.213 90.3994 112.234 90.4026 112.253 90.4097C112.273 90.4167 112.29 90.4275 112.306 90.4415C112.321 90.4554 112.333 90.4722 112.342 90.491C112.351 90.5097 112.356 90.5299 112.357 90.5506C112.358 90.5712 112.354 90.5919 112.347 90.6113C112.34 90.6307 112.33 90.6486 112.316 90.6638C112.302 90.6791 112.285 90.6914 112.266 90.7002C111.931 90.855 111.567 90.936 111.199 90.9374Z" fill="#F29079"/>
<path d="M114.548 89.922C114.455 89.9224 114.364 89.9014 114.281 89.8607C114.262 89.8512 114.246 89.8382 114.233 89.8225C114.219 89.8067 114.209 89.7885 114.203 89.7688C114.197 89.7491 114.194 89.7284 114.196 89.7078C114.198 89.6872 114.203 89.6672 114.213 89.6488C114.222 89.6304 114.235 89.6141 114.251 89.6007C114.267 89.5874 114.285 89.5772 114.305 89.5709C114.324 89.5646 114.345 89.5622 114.366 89.5639C114.386 89.5656 114.406 89.5714 114.425 89.5808C114.737 89.7434 115.578 89.1944 116.074 88.752C116.105 88.7283 116.145 88.7174 116.184 88.7215C116.223 88.7255 116.26 88.7441 116.286 88.7736C116.312 88.8031 116.326 88.8414 116.325 88.8808C116.325 88.9202 116.309 88.958 116.282 88.9865C116.066 89.1624 115.183 89.922 114.548 89.922Z" fill="#F29079"/>
<path d="M115.225 83.4724C115.186 83.4731 115.147 83.4586 115.118 83.4318C115.088 83.405 115.071 83.368 115.068 83.3284C115.016 82.6904 114.718 82.0973 114.238 81.6734C114.223 81.659 114.212 81.6418 114.204 81.6228C114.196 81.6038 114.191 81.5834 114.191 81.5628C114.191 81.5422 114.196 81.5218 114.204 81.5028C114.212 81.4838 114.223 81.4666 114.238 81.4522C114.265 81.4208 114.304 81.4015 114.345 81.3985C114.387 81.3955 114.428 81.4091 114.46 81.4362C115 81.9143 115.335 82.5828 115.393 83.3018C115.397 83.3431 115.384 83.3842 115.358 83.4162C115.331 83.4481 115.293 83.4683 115.252 83.4724H115.225Z" fill="#F29079"/>
<path d="M117.176 82.886C117.134 82.8853 117.094 82.8692 117.064 82.8407C116.455 82.2331 115.337 80.546 115.463 80.2235C115.477 80.1862 115.504 80.1554 115.54 80.1375C115.575 80.1196 115.616 80.1158 115.655 80.127C115.693 80.1381 115.726 80.1634 115.746 80.1976C115.766 80.2319 115.773 80.2726 115.764 80.3115C115.794 80.5407 116.602 81.9319 117.288 82.6168C117.317 82.6467 117.334 82.6869 117.334 82.7288C117.334 82.7706 117.317 82.8108 117.288 82.8407C117.257 82.8692 117.218 82.8853 117.176 82.886Z" fill="#F29079"/>
<path d="M109.208 90.2818C108.746 90.2808 108.294 90.1466 107.906 89.8953C107.871 89.8724 107.846 89.8363 107.837 89.7951C107.829 89.7538 107.837 89.7108 107.86 89.6755C107.883 89.6401 107.919 89.6154 107.96 89.6066C108.001 89.5979 108.044 89.6059 108.08 89.6288C108.337 89.7967 108.628 89.9052 108.932 89.9462C109.236 89.9873 109.546 89.9599 109.838 89.866C109.878 89.8533 109.922 89.857 109.959 89.8762C109.996 89.8954 110.024 89.9287 110.037 89.9686C110.05 90.0086 110.046 90.0519 110.027 90.0892C110.007 90.1264 109.974 90.1545 109.934 90.1672C109.7 90.242 109.455 90.2807 109.208 90.2818Z" fill="#F29079"/>
<path d="M107.626 96.9633C107.543 96.9633 107.49 96.9633 107.479 96.9633C107.438 96.9592 107.4 96.9395 107.374 96.9082C107.347 96.8769 107.333 96.8365 107.335 96.7954C107.336 96.7746 107.341 96.7542 107.35 96.7355C107.36 96.7167 107.372 96.7 107.388 96.6863C107.404 96.6726 107.422 96.6623 107.442 96.6558C107.462 96.6494 107.483 96.647 107.503 96.6488C107.77 96.6675 108.469 96.6488 108.592 96.2757C108.599 96.2561 108.609 96.238 108.623 96.2224C108.636 96.2068 108.653 96.1941 108.672 96.185C108.69 96.1758 108.71 96.1704 108.731 96.169C108.752 96.1677 108.772 96.1704 108.792 96.1771C108.812 96.1837 108.83 96.1942 108.845 96.2078C108.861 96.2214 108.874 96.238 108.883 96.2566C108.892 96.2751 108.897 96.2953 108.899 96.316C108.9 96.3366 108.897 96.3573 108.891 96.3769C108.712 96.9046 107.952 96.9633 107.626 96.9633Z" fill="#F29079"/>
<path d="M110.33 107.863C111.972 107.705 113.14 105.892 112.939 103.815C112.738 101.737 111.245 100.181 109.604 100.339C107.962 100.497 106.794 102.31 106.995 104.387C107.196 106.465 108.689 108.021 110.33 107.863Z" stroke="#263238" stroke-linecap="round" stroke-linejoin="round"/>
<path d="M110.379 107.693C110.114 107.106 109.68 106.611 109.133 106.27C108.586 105.929 107.949 105.758 107.305 105.778C106.66 105.798 106.036 106.008 105.511 106.382C104.986 106.756 104.583 107.277 104.355 107.88L102.191 113.604C101.912 114.407 101.957 115.286 102.317 116.055C102.677 116.825 103.323 117.423 104.119 117.724C104.914 118.024 105.795 118.003 106.575 117.664C107.354 117.325 107.971 116.696 108.293 115.91L110.462 110.188C110.614 109.787 110.684 109.36 110.67 108.932C110.656 108.504 110.557 108.083 110.379 107.693ZM107.925 107.661C107.823 107.622 107.735 107.554 107.672 107.465C107.609 107.376 107.574 107.27 107.571 107.161C107.568 107.052 107.598 106.945 107.656 106.853C107.714 106.76 107.798 106.687 107.897 106.643C107.997 106.598 108.108 106.584 108.215 106.602C108.323 106.621 108.423 106.67 108.502 106.745C108.581 106.82 108.637 106.916 108.661 107.022C108.686 107.128 108.678 107.239 108.64 107.341C108.587 107.478 108.482 107.589 108.348 107.649C108.214 107.709 108.062 107.713 107.925 107.661Z" fill="#293842"/>
<path d="M109.577 109.855L107.41 115.577C107.181 116.136 106.742 116.583 106.188 116.824C105.633 117.065 105.007 117.08 104.441 116.867C103.875 116.653 103.415 116.228 103.159 115.681C102.903 115.134 102.871 114.508 103.069 113.938L105.235 108.205C105.423 107.704 105.782 107.285 106.249 107.024C106.357 107.316 106.522 107.585 106.734 107.813C106.946 108.042 107.201 108.227 107.485 108.357C107.768 108.487 108.075 108.56 108.386 108.572C108.698 108.584 109.009 108.534 109.302 108.426C109.406 108.386 109.508 108.34 109.606 108.287C109.778 108.797 109.768 109.351 109.577 109.855Z" fill="white"/>
<path d="M106.873 114.476C106.758 114.472 106.645 114.443 106.543 114.391L106.132 114.236C105.889 114.143 105.753 114.191 105.697 114.377L105.643 114.521L106.711 114.926L106.553 115.334L103.938 114.335L104.179 113.714C104.193 113.641 104.222 113.572 104.263 113.51C104.304 113.449 104.357 113.396 104.419 113.355C104.48 113.313 104.55 113.285 104.623 113.271C104.695 113.256 104.77 113.257 104.843 113.271C104.902 113.285 104.958 113.306 105.011 113.335L105.217 113.415C105.326 113.442 105.426 113.5 105.501 113.584C105.577 113.668 105.626 113.773 105.641 113.884C105.804 113.708 106.02 113.716 106.294 113.818L106.697 113.975C106.803 114.024 106.917 114.049 107.034 114.05L106.873 114.476ZM104.472 114.071L105.273 114.377L105.334 114.217C105.395 114.063 105.361 113.951 105.153 113.866L104.886 113.767C104.702 113.695 104.595 113.73 104.539 113.874L104.472 114.071Z" fill="#293842"/>
<path d="M105.769 112.848L105.98 112.285L106.359 112.429L106.143 112.991L106.9 113.282L107.167 112.576L107.546 112.717L107.119 113.85L104.51 112.856L104.934 111.72L105.313 111.864L105.046 112.573L105.769 112.848Z" fill="#293842"/>
<path d="M105.898 111.368L107.792 112.088L107.653 112.466L105.041 111.47L105.236 110.955L106.959 111.136L105.393 110.545L105.535 110.166L108.144 111.16L107.984 111.584L105.898 111.368Z" fill="#293842"/>
<path d="M105.599 109.996L106.079 108.727L106.458 108.868L106.295 109.298L108.534 110.15L108.376 110.558L106.138 109.708L105.975 110.134L105.599 109.996Z" fill="#293842"/>
<path d="M110.11 106.401L105.692 108.471C105.508 108.552 105.364 108.701 105.29 108.888C105.217 109.074 105.22 109.282 105.3 109.465L105.316 109.495L108.026 115.299C108.066 115.391 108.124 115.473 108.195 115.542C108.267 115.611 108.351 115.666 108.444 115.702C108.537 115.738 108.636 115.756 108.735 115.754C108.835 115.752 108.933 115.731 109.024 115.691H109.054L110.342 115.089L114.964 124.977C114.993 125.041 115.034 125.099 115.085 125.148C115.137 125.196 115.198 125.234 115.264 125.259C115.33 125.284 115.401 125.295 115.472 125.292C115.542 125.29 115.612 125.273 115.676 125.243L116.559 124.833C116.624 124.804 116.683 124.763 116.732 124.711C116.78 124.659 116.818 124.598 116.843 124.532C116.868 124.465 116.879 124.394 116.876 124.323C116.873 124.252 116.856 124.183 116.826 124.118L112.205 114.231L113.496 113.631C113.68 113.55 113.825 113.4 113.898 113.214C113.972 113.027 113.968 112.819 113.888 112.634C113.884 112.624 113.88 112.615 113.875 112.605L111.162 106.795C111.083 106.611 110.934 106.465 110.748 106.39C110.562 106.315 110.354 106.317 110.169 106.395L110.11 106.401ZM110.868 107.629C110.905 107.706 110.926 107.79 110.93 107.875C110.934 107.96 110.921 108.045 110.893 108.125C110.864 108.205 110.82 108.279 110.762 108.342C110.705 108.405 110.636 108.456 110.559 108.493L110.42 108.557C110.343 108.593 110.259 108.614 110.174 108.617C110.089 108.621 110.004 108.608 109.924 108.579C109.845 108.549 109.771 108.505 109.709 108.447C109.646 108.389 109.596 108.32 109.561 108.242L109.497 108.106C109.424 107.951 109.415 107.773 109.473 107.612C109.531 107.451 109.651 107.319 109.806 107.245L109.945 107.179C110.101 107.107 110.28 107.1 110.441 107.16C110.603 107.219 110.734 107.34 110.807 107.496L110.868 107.629Z" fill="#BFBFBF"/>
<g opacity="0.2">
<path d="M115.769 124.462C115.74 124.462 115.711 124.453 115.686 124.437C115.661 124.421 115.641 124.398 115.628 124.372L111.092 114.649C111.077 114.611 111.077 114.568 111.092 114.529C111.099 114.51 111.111 114.492 111.125 114.477C111.139 114.462 111.156 114.45 111.175 114.441L111.647 114.22C111.685 114.203 111.729 114.201 111.768 114.216C111.808 114.23 111.84 114.259 111.858 114.297C111.867 114.316 111.872 114.336 111.873 114.357C111.874 114.378 111.87 114.398 111.863 114.418C111.856 114.437 111.845 114.455 111.831 114.47C111.817 114.485 111.799 114.497 111.781 114.505L111.45 114.66L115.927 124.238C115.944 124.276 115.946 124.319 115.931 124.358C115.917 124.397 115.887 124.429 115.85 124.446C115.825 124.459 115.797 124.465 115.769 124.462Z" fill="black"/>
</g>
<path d="M112.933 103.823C113.134 105.902 111.962 107.714 110.321 107.869" stroke="#263238" stroke-linecap="round" stroke-linejoin="round"/>
<path d="M182.055 53.7507V70.0933L180.772 70.4265C174.584 72.0256 148.25 78.859 146.107 79.6719C143.674 80.5913 141.246 82.0145 140.424 82.1824C139.602 82.3503 135.226 87.2888 133.884 88.5468C132.542 89.8047 129.276 91.2119 125.501 92.214C121.725 93.2161 118.201 95.9026 117.288 96.7448C116.376 97.587 111.672 103.941 110.58 103.442C109.724 103.045 108.496 102.808 108.47 101.001C108.477 100.383 108.567 99.7693 108.737 99.1754C109.657 95.6547 111.672 92.8936 113.598 92.2247C115.524 91.5557 120.135 85.6098 120.303 84.0987L182.055 53.7507Z" fill="#F9B499"/>
<path d="M180.761 70.4131C174.574 72.0122 148.239 78.8457 146.094 79.6585C143.663 80.578 141.235 82.0012 140.413 82.1691C139.591 82.337 135.215 87.2755 133.873 88.5335C132.531 89.7914 129.263 91.2119 125.49 92.214C121.717 93.2161 118.2 95.9026 117.277 96.7448C116.354 97.5869 111.661 103.941 110.57 103.442C109.713 103.045 108.486 102.808 108.459 101.001C108.993 101.862 109.865 102.867 110.212 102.483C110.212 102.483 109.193 102.406 110.212 99.9349C111.231 97.4644 111.728 96.2677 112.979 97.1659C114.23 98.064 115.687 98.3652 116.181 96.5689C116.674 94.7726 116.866 95.5961 119.134 94.0956C121.402 92.5951 123.801 90.0846 124.471 90.1459C125.14 90.2072 130.391 89.7114 131.963 88.8746C133.534 88.0377 138.025 82.9953 138.142 81.5454C138.26 80.0956 143.858 78.0035 145.256 77.1826C146.654 76.3617 152.121 75.317 154.218 74.8639C156.315 74.4109 151.072 76.3324 149.498 77.4278C147.924 78.5232 162.759 73.6646 166.655 72.9157C170.473 72.1801 180.369 70.4798 180.761 70.4131Z" fill="#F7A48B"/>
<path d="M128.339 130.605C126.293 132.658 120.103 135.581 117.886 137.154C116.319 138.265 109.782 139.286 107.883 139.819C106.532 140.216 104.734 141.759 102.936 141.247C101.137 140.736 86.1502 133.548 82.5535 131.754C78.9568 129.96 60.373 132.777 49.2867 132.412C48.5636 132.391 47.8699 132.367 47.2055 132.354C37.6641 132.087 33.998 132.412 33.998 132.412L39.0916 112.738C39.0916 112.738 48.5476 113.191 62.9424 115.737C65.8481 116.251 68.4816 116.664 70.8376 117.003C80.1548 118.335 85.1176 118.42 85.1176 118.42C85.1176 118.42 89.9203 114.257 94.4109 117.834C98.9014 121.411 100.094 124.417 100.094 124.417L106.388 128.012C106.388 128.012 108.939 127.562 110.511 128.012C112.082 128.463 114.299 126.965 115.436 126.368C117.443 125.355 119.609 124.695 121.84 124.417C121.84 124.417 125.717 122.924 128.564 123.66C128.564 123.66 130.663 122.765 132.462 122.765C132.928 122.759 133.389 122.855 133.815 123.044C134.299 123.254 134.713 123.598 135.007 124.036C135.141 124.554 135.242 125.08 135.309 125.611C135.458 126.68 132.91 126.021 128.339 130.605Z" fill="#F9B499"/>
<path d="M128.339 130.605C126.292 132.658 120.102 135.581 117.885 137.154C116.319 138.265 109.782 139.286 107.882 139.819C106.532 140.216 104.734 141.759 102.935 141.247C101.137 140.736 86.1498 133.548 82.5531 131.754C78.9564 129.96 60.3725 132.777 49.2863 132.412C48.5632 132.391 47.8695 132.367 47.2051 132.354C52.0078 132.039 57.056 131.671 58.6115 131.418C61.8133 130.885 77.7584 130.07 79.973 129.88C82.1875 129.691 99.6721 138.777 101.673 139.675C103.674 140.573 105.083 140.674 106.383 139.675C107.682 138.675 112.864 137.788 112.864 137.788L109.889 138.054C109.889 138.054 113.845 136.623 116.415 135.989C118.984 135.355 121.535 133.033 123.232 132.495C124.929 131.957 127.877 128.593 129.369 127.903C130.86 127.213 129.369 125.155 129.369 125.155C129.369 125.155 131.162 125.086 131.866 126.195C131.866 126.195 134.486 126.283 135.025 124.049C135.158 124.567 135.258 125.093 135.324 125.624C135.458 126.68 132.91 126.021 128.339 130.605Z" fill="#F7A48B"/>
<path d="M133.814 123.066C129.484 124.201 128.563 124.931 128.563 124.931C127.776 124.697 122.658 127.922 122.224 128.183C121.789 128.444 121.53 129.694 121.53 129.694C121.53 129.694 120.06 128.183 117.568 129.918C115.075 131.653 114.801 132.724 114.801 132.724L113.8 131.448C113.8 131.448 109.571 131.826 108.277 131.615C107.213 131.479 106.203 131.071 105.342 130.432C104.355 129.774 99.0958 127.564 98.5541 127.405C98.0125 127.245 97.3268 126.24 97.3268 126.24C96.3689 122.397 91.5902 118.007 88.9941 118.354C87.4278 118.569 85.9397 119.17 84.6636 120.102C84.6636 120.102 79.7995 119.604 77.3021 119.505C74.8047 119.406 59.6201 116.611 59.6201 116.611L70.8265 116.989C80.1464 118.322 85.1092 118.407 85.1092 118.407C85.1092 118.407 89.9119 114.244 94.4025 117.821C98.893 121.397 100.083 124.404 100.083 124.404L106.38 127.999C106.38 127.999 108.928 127.548 110.502 127.999C112.076 128.449 114.288 126.951 115.425 126.354C117.432 125.343 119.598 124.683 121.829 124.404C121.829 124.404 125.703 122.911 128.552 123.647C128.552 123.647 130.65 122.751 132.451 122.751C132.923 122.756 133.388 122.864 133.814 123.066Z" fill="#F7A48B"/>
<path d="M89.01 129.036C89.01 129.036 89.0367 130.102 88.4764 129.998C87.9161 129.894 89.4796 131.453 90.4775 131.205C91.4754 130.957 93.9248 133.201 94.8747 134.201C95.8245 135.2 104.091 136.495 105.86 136.445C107.629 136.394 108.963 134.579 107.727 132.74C107.727 132.74 107.5 134.55 106.393 134.339C106.393 134.339 107.46 133.94 105.86 132.447C104.259 130.955 101.924 130.326 101.433 130.611C100.942 130.896 97.895 129.665 97.7163 129.475C97.5375 129.286 97.9831 133.793 95.3363 133.638C95.3363 133.638 92.3719 131.45 91.7796 130.547C91.1872 129.643 89.01 129.036 89.01 129.036Z" fill="#F7A48B"/>
<path d="M109.233 138.5C109.197 138.5 109.163 138.489 109.135 138.468C109.106 138.446 109.086 138.416 109.077 138.382C109.068 138.348 109.071 138.312 109.085 138.279C109.1 138.247 109.124 138.22 109.155 138.204C110.007 137.716 111.394 137.434 113 137.106C115.031 136.69 117.336 136.221 118.886 135.216C120.207 134.361 121.464 133.694 122.571 133.111C123.753 132.484 124.772 131.946 125.389 131.41C126.507 130.44 130.138 128.05 130.725 127.663C130.692 127.049 130.496 126.455 130.157 125.941C129.639 125.23 128.073 124.742 126.664 125.185C125.255 125.627 120.978 128.428 120.935 128.46C120.921 128.468 120.906 128.475 120.89 128.479C117.931 129.278 113.974 130.779 113.934 130.795C113.915 130.797 113.897 130.797 113.878 130.795H109.233C109.194 130.79 109.159 130.771 109.133 130.742C109.107 130.712 109.093 130.675 109.093 130.636C109.093 130.597 109.107 130.56 109.133 130.531C109.159 130.501 109.194 130.482 109.233 130.477H113.849C114.204 130.344 117.942 128.937 120.786 128.172C121.154 127.93 125.18 125.31 126.573 124.875C127.966 124.441 129.748 124.833 130.418 125.752C130.808 126.341 131.026 127.027 131.048 127.732C131.048 127.76 131.041 127.786 131.029 127.811C131.016 127.835 130.998 127.855 130.976 127.871C130.933 127.898 126.773 130.619 125.599 131.639C124.956 132.199 123.969 132.722 122.723 133.38C121.618 133.963 120.37 134.624 119.062 135.472C117.461 136.509 115.124 136.986 113.064 137.407C111.551 137.716 110.129 138.007 109.315 138.473C109.291 138.488 109.262 138.498 109.233 138.5Z" fill="#F29079"/>
<path d="M121.487 128.065C121.448 128.065 121.41 128.051 121.381 128.026C121.351 127.996 121.335 127.955 121.335 127.914C121.335 127.872 121.351 127.832 121.381 127.802C123.598 125.368 128.318 123.607 128.521 123.537C128.54 123.53 128.561 123.527 128.582 123.528C128.602 123.528 128.623 123.533 128.642 123.542C128.66 123.551 128.677 123.563 128.691 123.578C128.706 123.593 128.716 123.611 128.724 123.631C128.737 123.67 128.734 123.713 128.717 123.75C128.7 123.788 128.669 123.818 128.63 123.833C128.582 123.849 123.779 125.64 121.616 128.018C121.599 128.035 121.579 128.048 121.557 128.056C121.535 128.064 121.511 128.068 121.487 128.065Z" fill="#F29079"/>
<path d="M113.8 130.04C113.766 130.04 113.733 130.028 113.706 130.008C113.679 129.987 113.66 129.958 113.651 129.926C113.639 129.886 113.644 129.843 113.664 129.806C113.684 129.77 113.718 129.743 113.757 129.731C116.354 128.99 119.982 128.02 120.02 128.01C120.059 128.001 120.101 128.008 120.135 128.029C120.17 128.05 120.195 128.084 120.205 128.123C120.215 128.162 120.21 128.204 120.191 128.239C120.171 128.275 120.138 128.301 120.1 128.313C120.065 128.313 116.439 129.294 113.846 130.035C113.831 130.039 113.815 130.041 113.8 130.04Z" fill="#F29079"/>
<path d="M111.333 129.641C111.3 129.641 111.268 129.631 111.242 129.612C111.215 129.594 111.195 129.567 111.184 129.537C110.826 128.535 111.184 128.026 111.205 128.004C111.23 127.969 111.267 127.945 111.31 127.937C111.352 127.93 111.396 127.939 111.432 127.964C111.467 127.989 111.491 128.027 111.499 128.069C111.506 128.112 111.496 128.155 111.472 128.191C111.456 128.209 111.205 128.604 111.49 129.43C111.504 129.469 111.502 129.512 111.485 129.549C111.467 129.586 111.436 129.616 111.397 129.63C111.377 129.639 111.355 129.642 111.333 129.641Z" fill="#F29079"/>
<path d="M104.48 135.603C103.39 135.572 102.303 135.466 101.228 135.285L100.233 135.147C97.7991 134.808 95.878 134.544 94.6293 133.969C93.8742 133.622 93.2019 132.7 92.5508 131.81C92.0519 131.128 91.5823 130.477 91.174 130.262C90.2162 129.745 88.4338 128.942 88.4151 128.929C88.3774 128.912 88.3479 128.88 88.3329 128.841C88.318 128.802 88.3188 128.759 88.3351 128.721C88.3526 128.683 88.3845 128.653 88.424 128.638C88.4635 128.623 88.5073 128.624 88.5459 128.641C88.5619 128.641 90.3576 129.457 91.3235 129.974C91.7957 130.227 92.2867 130.901 92.807 131.613C93.4046 132.431 94.0797 133.358 94.7627 133.673C95.9688 134.227 97.8712 134.491 100.278 134.824L101.276 134.963C103.816 135.328 106.978 135.778 107.495 133.702C107.973 131.786 105.062 130.395 102.935 129.377C102.599 129.217 102.279 129.065 101.996 128.921C100.889 128.337 99.714 127.889 98.4982 127.588C98.4726 127.58 98.449 127.566 98.4288 127.548C98.4288 127.548 97.3829 126.562 97.0093 126.192C96.7825 125.963 96.6918 125.408 96.5638 124.518C96.5042 123.937 96.3871 123.363 96.2142 122.804C96.2003 122.765 96.2023 122.722 96.2197 122.684C96.2372 122.646 96.2687 122.617 96.3076 122.602C96.3271 122.595 96.3477 122.591 96.3685 122.592C96.3892 122.593 96.4096 122.598 96.4284 122.606C96.4473 122.615 96.4642 122.627 96.4783 122.643C96.4923 122.658 96.5033 122.676 96.5104 122.695C96.6912 123.274 96.8136 123.87 96.8759 124.473C96.9667 125.097 97.068 125.805 97.2335 125.968C97.567 126.301 98.4422 127.13 98.6156 127.301C99.8414 127.613 101.026 128.07 102.143 128.662C102.41 128.804 102.738 128.956 103.071 129.116C105.297 130.182 108.341 131.634 107.802 133.798C107.445 135.213 106.086 135.603 104.48 135.603Z" fill="#F29079"/>
<path d="M97.3376 126.424C97.3043 126.423 97.2719 126.413 97.2442 126.394C97.2106 126.369 97.1881 126.332 97.1816 126.291C97.1751 126.25 97.1851 126.207 97.2095 126.173C97.8339 125.32 97.9379 123.689 97.9379 123.673C97.9391 123.653 97.9444 123.632 97.9535 123.614C97.9625 123.595 97.9751 123.579 97.9906 123.565C98.0061 123.551 98.0241 123.541 98.0437 123.534C98.0633 123.527 98.084 123.524 98.1047 123.525C98.1253 123.527 98.1456 123.532 98.1642 123.541C98.1828 123.55 98.1995 123.563 98.2133 123.578C98.227 123.594 98.2376 123.612 98.2444 123.631C98.2511 123.651 98.254 123.671 98.2528 123.692C98.2528 123.761 98.1434 125.432 97.4656 126.357C97.451 126.377 97.4318 126.394 97.4096 126.406C97.3873 126.417 97.3627 126.423 97.3376 126.424Z" fill="#F29079"/>
<path d="M105.335 129.833C105.316 129.836 105.297 129.836 105.279 129.833C105.24 129.818 105.208 129.788 105.191 129.75C105.174 129.712 105.173 129.669 105.188 129.63C105.432 128.997 105.8 128.42 106.271 127.932C106.286 127.918 106.303 127.906 106.322 127.898C106.341 127.89 106.361 127.886 106.382 127.886C106.403 127.886 106.423 127.89 106.442 127.898C106.461 127.906 106.478 127.918 106.493 127.932C106.508 127.947 106.519 127.964 106.527 127.984C106.535 128.003 106.54 128.023 106.54 128.044C106.54 128.065 106.535 128.086 106.527 128.105C106.519 128.124 106.508 128.142 106.493 128.156C106.05 128.616 105.704 129.16 105.476 129.755C105.462 129.78 105.441 129.8 105.416 129.814C105.391 129.827 105.363 129.834 105.335 129.833Z" fill="#F29079"/>
<path d="M89.6826 130.254C89.0876 130.244 88.495 130.175 87.9136 130.048C87.8755 130.037 87.843 130.012 87.8228 129.978C87.8025 129.944 87.7959 129.903 87.8044 129.864C87.8128 129.825 87.8357 129.791 87.8683 129.768C87.9009 129.746 87.941 129.736 87.9803 129.742C88.0017 129.742 89.9361 130.174 90.7579 129.755C90.7951 129.736 90.8383 129.733 90.8781 129.745C90.9178 129.758 90.9509 129.786 90.97 129.823C90.9891 129.86 90.9927 129.903 90.9799 129.943C90.9672 129.983 90.9391 130.016 90.902 130.035C90.5168 130.197 90.1003 130.272 89.6826 130.254Z" fill="#F29079"/>
<path d="M97.8956 126.973C97.8609 126.973 97.8272 126.962 97.7995 126.941C97.7719 126.92 97.752 126.89 97.7429 126.857C97.7337 126.824 97.7359 126.788 97.7491 126.756C97.7622 126.724 97.7856 126.697 97.8156 126.68C98.2714 126.408 98.6356 126.006 98.8615 125.526C98.8799 125.488 98.9123 125.459 98.9517 125.445C98.9911 125.432 99.0344 125.434 99.0723 125.451C99.1096 125.469 99.1384 125.501 99.1523 125.54C99.1663 125.579 99.1644 125.621 99.147 125.659C98.8949 126.197 98.4868 126.647 97.9757 126.951C97.9511 126.965 97.9237 126.972 97.8956 126.973Z" fill="#F29079"/>
<path d="M95.8943 133.121C95.8675 133.121 95.8411 133.115 95.8178 133.102C95.7944 133.088 95.7748 133.07 95.7609 133.047C95.7396 133.011 95.733 132.968 95.7425 132.927C95.7519 132.887 95.7767 132.851 95.8116 132.828C97.4125 131.85 97.1751 129.995 97.1644 129.918C97.1582 129.877 97.1685 129.835 97.193 129.802C97.2175 129.768 97.2542 129.746 97.2951 129.739C97.3364 129.734 97.3782 129.745 97.4116 129.77C97.4449 129.794 97.4673 129.831 97.4739 129.872C97.4739 129.894 97.7701 132.005 95.977 133.097C95.9522 133.113 95.9236 133.121 95.8943 133.121Z" fill="#F29079"/>
</g>
<path d="M88.4736 44.1801V42.5384H109.053C110.22 42.5377 111.338 42.0743 112.163 41.2502C112.987 40.4261 113.45 39.3087 113.45 38.1436V34.1458H129.494C129.96 34.1402 130.405 33.9502 130.731 33.6175C131.057 33.2848 131.238 32.8365 131.234 32.3709V24.3754C131.233 23.9101 131.048 23.464 130.718 23.1352C130.388 22.8064 129.941 22.6218 129.475 22.6218H94.6691C94.2025 22.6225 93.7553 22.8081 93.4256 23.1379C93.0959 23.4677 92.9108 23.9147 92.9108 24.3808V32.3948C92.9108 32.8611 93.0959 33.3084 93.4254 33.6386C93.755 33.9689 94.2023 34.1551 94.6691 34.1565H110.678V37.456C110.678 38.0674 110.435 38.6537 110.002 39.0861C109.569 39.5184 108.982 39.7613 108.37 39.7613H88.4816V38.1249L84.418 41.1418L88.4736 44.1801Z" fill="white"/>
<path d="M126.053 27.5069L127.913 27.7788L126.565 29.0874L126.883 30.9396L125.218 30.0681L123.553 30.9396L123.87 29.0874L122.528 27.7788L124.388 27.5069L125.218 25.8226L126.053 27.5069Z" fill="#293842"/>
<path d="M119.48 27.5069L121.34 27.7788L119.993 29.0874L120.313 30.9396L118.645 30.0681L116.98 30.9396L117.301 29.0874L115.953 27.7788L117.816 27.5069L118.645 25.8226L119.48 27.5069Z" fill="#293842"/>
<path d="M112.912 27.5069L114.772 27.7788L113.424 29.0874L113.742 30.9396L112.077 30.0681L110.412 30.9396L110.729 29.0874L109.382 27.7788L111.247 27.5069L112.077 25.8226L112.912 27.5069Z" fill="#293842"/>
<path d="M106.337 27.5069L108.2 27.7788L106.855 29.0874L107.172 30.9396L105.507 30.0681L103.84 30.9396L104.16 29.0874L102.812 27.7788L104.672 27.5069L105.507 25.8226L106.337 27.5069Z" fill="#293842"/>
<path d="M99.7685 27.5069L101.631 27.7788L100.283 29.0874L100.604 30.9396L98.9361 30.0681L97.2711 30.9396L97.5886 29.0874L96.2412 27.7788L98.1009 27.5069L98.9361 25.8226L99.7685 27.5069Z" fill="#293842"/>
</svg>
