<svg width="75" height="75" viewBox="0 0 75 75" fill="none" xmlns="http://www.w3.org/2000/svg">
<path d="M50.0519 61.1167L50.0491 61.1141L27.3778 40.6103C27.3771 40.6097 27.3764 40.6091 27.3757 40.6085C26.0554 39.4027 26.0864 37.5164 27.4163 36.3413C27.4169 36.3407 27.4175 36.3402 27.4182 36.3396L50.0569 16.5088C50.0674 16.5027 50.0907 16.4933 50.128 16.496C50.1487 16.4976 50.1661 16.5023 50.1807 16.509C50.1834 16.5207 50.1849 16.5356 50.1836 16.5538C50.1807 16.5936 50.1659 16.6213 50.1478 16.6397L27.4898 36.4288L27.4814 36.4362L27.4731 36.4437C26.9066 36.9535 26.5371 37.6652 26.5371 38.4668C26.5371 39.2674 26.9057 39.9784 27.4711 40.4881C27.4717 40.4887 27.4724 40.4893 27.4731 40.4899L50.1433 60.9927C50.1435 60.9929 50.1437 60.9931 50.1439 60.9933C50.1644 61.0122 50.1733 61.0337 50.1745 61.0558C50.1752 61.067 50.1735 61.0757 50.1714 61.0815C50.1698 61.0863 50.167 61.0922 50.1596 61.1004C50.1405 61.1213 50.1188 61.1304 50.0965 61.1316C50.0853 61.1322 50.0766 61.1306 50.0708 61.1285C50.066 61.1269 50.0601 61.1241 50.0519 61.1167Z" fill="black" stroke="black" stroke-width="3"/>
</svg>
