<svg width="31" height="25" viewBox="0 0 31 25" fill="none" xmlns="http://www.w3.org/2000/svg">
<path d="M2 6.5L10.1749 11.9499C12.0994 13.2329 13.0617 13.8745 14.1017 14.1238C15.0209 14.344 15.9791 14.344 16.8983 14.1238C17.9383 13.8745 18.9007 13.2329 20.8252 11.9499L29 6.5M6.8 23H24.2C25.8801 23 26.7203 23 27.362 22.673C27.9265 22.3854 28.3854 21.9265 28.673 21.362C29 20.7203 29 19.8802 29 18.2V6.8C29 5.11985 29 4.27976 28.673 3.63803C28.3854 3.07354 27.9265 2.61459 27.362 2.32698C26.7203 2 25.8801 2 24.2 2H6.8C5.11985 2 4.27976 2 3.63803 2.32698C3.07354 2.61459 2.61459 3.07354 2.32698 3.63803C2 4.27976 2 5.11983 2 6.8V18.2C2 19.8802 2 20.7203 2.32698 21.362C2.61459 21.9265 3.07354 22.3854 3.63803 22.673C4.27976 23 5.11983 23 6.8 23Z" stroke="#888888" stroke-width="3" stroke-linecap="round" stroke-linejoin="round"/>
</svg>
