<svg width="13" height="25" viewBox="0 0 13 25" fill="none" xmlns="http://www.w3.org/2000/svg">
<path d="M6.5 21.25C5.33333 21.25 4.28333 21.1083 3.35 20.825C2.41667 20.525 1.525 20.0083 0.675 19.275C0.458333 19.0917 0.291667 18.8833 0.175 18.65C0.0583334 18.4167 7.07805e-08 18.1833 7.07805e-08 17.95C7.07805e-08 17.5667 0.133333 17.2333 0.4 16.95C0.683333 16.65 1.03333 16.5 1.45 16.5C1.76667 16.5 2.05 16.6 2.3 16.8C2.93333 17.3167 3.55833 17.7083 4.175 17.975C4.80833 18.2417 5.58333 18.375 6.5 18.375C7.11667 18.375 7.68333 18.2833 8.2 18.1C8.71667 17.9 9.13333 17.6417 9.45 17.325C9.76667 16.9917 9.925 16.6167 9.925 16.2C9.925 15.7 9.775 15.275 9.475 14.925C9.175 14.575 8.71667 14.2833 8.1 14.05C7.48333 13.8 6.7 13.6083 5.75 13.475C4.85 13.3417 4.05833 13.1417 3.375 12.875C2.69167 12.5917 2.11667 12.2417 1.65 11.825C1.2 11.3917 0.858333 10.8917 0.625 10.325C0.391667 9.74167 0.275 9.09167 0.275 8.375C0.275 7.29167 0.55 6.36667 1.1 5.6C1.66667 4.83333 2.425 4.25 3.375 3.85C4.325 3.45 5.375 3.25 6.525 3.25C7.60833 3.25 8.60833 3.41667 9.525 3.75C10.4583 4.06667 11.2167 4.475 11.8 4.975C12.2833 5.35833 12.525 5.8 12.525 6.3C12.525 6.66667 12.3833 7 12.1 7.3C11.8167 7.6 11.4833 7.75 11.1 7.75C10.85 7.75 10.625 7.675 10.425 7.525C10.1583 7.29167 9.8 7.075 9.35 6.875C8.9 6.65833 8.425 6.48333 7.925 6.35C7.425 6.2 6.95833 6.125 6.525 6.125C5.80833 6.125 5.2 6.21667 4.7 6.4C4.21667 6.58333 3.85 6.83333 3.6 7.15C3.35 7.46667 3.225 7.83333 3.225 8.25C3.225 8.75 3.36667 9.16667 3.65 9.5C3.95 9.81667 4.375 10.075 4.925 10.275C5.475 10.4583 6.13333 10.625 6.9 10.775C7.9 10.9583 8.775 11.175 9.525 11.425C10.2917 11.675 10.925 12 11.425 12.4C11.925 12.7833 12.3 13.275 12.55 13.875C12.8 14.4583 12.925 15.175 12.925 16.025C12.925 17.1083 12.625 18.0417 12.025 18.825C11.425 19.6083 10.6333 20.2083 9.65 20.625C8.68333 21.0417 7.63333 21.25 6.5 21.25ZM8.3 22.6C8.3 23.0333 8.15 23.3917 7.85 23.675C7.56667 23.975 7.20833 24.125 6.775 24.125C6.35833 24.125 6.00833 23.975 5.725 23.675C5.44167 23.3917 5.3 23.0333 5.3 22.6V2.5C5.3 2.06667 5.44167 1.70833 5.725 1.425C6.025 1.125 6.39167 0.974999 6.825 0.974999C7.25833 0.974999 7.60833 1.125 7.875 1.425C8.15833 1.70833 8.3 2.06667 8.3 2.5V22.6Z" fill="black"/>
</svg>
