<svg width="34" height="34" viewBox="0 0 34 34" fill="none" xmlns="http://www.w3.org/2000/svg">
<path d="M29.5159 28.4478C28.1112 30.2623 26.6354 31.7855 26.0296 32.3931L24.5323 30.7298C23.4904 29.5723 22.2296 28.0542 21.2379 26.506C20.206 24.8951 19.6333 23.5042 19.6333 22.542C19.6333 19.0862 22.4978 16.2333 26.0667 16.2333C29.6355 16.2333 32.5 19.0862 32.5 22.5419C32.5 23.2007 32.226 24.1043 31.6554 25.2021C31.0993 26.2722 30.3327 27.3925 29.5159 28.4478ZM7.93339 17.6219L7.86577 17.5536C7.13366 16.8144 5.49168 15.0962 4.04264 13.1325C3.31786 12.1504 2.66528 11.1387 2.19927 10.1825C1.72299 9.20525 1.5 8.40321 1.5 7.80867C1.5 4.35283 4.36451 1.5 7.93333 1.5C11.5021 1.5 14.3667 4.35282 14.3667 7.80878C14.3667 8.40328 14.1437 9.2053 13.6674 10.1826C13.2014 11.1388 12.5488 12.1504 11.824 13.1326C10.375 15.0962 8.733 16.8144 8.00085 17.5537L7.93339 17.6219Z" stroke="#888888" stroke-width="3"/>
<path d="M19.6328 22.542C19.6328 19.0862 22.4973 16.2333 26.0661 16.2333C29.635 16.2333 32.4995 19.0862 32.4995 22.542C32.4995 23.2008 32.2255 24.1044 31.6549 25.2022C31.0987 26.2723 30.3322 27.3927 29.5153 28.4479C28.1386 30.2264 26.6934 31.7251 26.0661 32.356C25.4389 31.7251 23.9937 30.2264 22.6169 28.4479C21.8001 27.3927 21.0335 26.2723 20.4774 25.2022C19.9068 24.1044 19.6328 23.2008 19.6328 22.542Z" stroke="#888888" stroke-width="3"/>
<path d="M1.5 7.80867C1.5 4.35283 4.36451 1.5 7.93333 1.5C11.5022 1.5 14.3667 4.35283 14.3667 7.80867C14.3667 8.46744 14.0927 9.37111 13.5221 10.4689C12.9659 11.5389 12.1994 12.6593 11.3825 13.7146C10.0057 15.4931 8.56056 16.9918 7.93333 17.6226C7.3061 16.9918 5.86093 15.4931 4.48413 13.7146C3.66727 12.6593 2.90073 11.5389 2.34458 10.4689C1.774 9.37111 1.5 8.46744 1.5 7.80867Z" stroke="#888888" stroke-width="3"/>
<path d="M8.70033 7.80866C8.70033 8.23335 8.35679 8.57533 7.93366 8.57533C7.51053 8.57533 7.16699 8.23335 7.16699 7.80866C7.16699 7.39042 7.51542 7.04199 7.93366 7.04199C8.3519 7.04199 8.70033 7.39042 8.70033 7.80866Z" stroke="#888888" stroke-width="3"/>
<path d="M26.8336 22.542C26.8336 22.9667 26.4901 23.3087 26.067 23.3087C25.6438 23.3087 25.3003 22.9667 25.3003 22.542C25.3003 22.1238 25.6487 21.7753 26.067 21.7753C26.4852 21.7753 26.8336 22.1238 26.8336 22.542Z" stroke="#888888" stroke-width="3"/>
</svg>
