<svg width="347" height="347" viewBox="0 0 347 347" fill="none" xmlns="http://www.w3.org/2000/svg">
<g clip-path="url(#clip0_765_3095)">
<path d="M47.7471 80.2958C47.7471 80.2958 45.6651 90.4976 48.3023 94.2452C50.8701 97.9928 55.1035 80.851 55.1035 80.851L47.7471 80.2958Z" fill="#76413B"/>
<path d="M87.1663 108.195L82.5165 142.895L59.1981 146.712L59.4063 129.917L87.1663 108.195Z" fill="#D89087"/>
<path d="M59.8922 134.636C59.8922 134.636 78.6302 138.037 84.2516 119.09C89.873 100.144 89.1096 77.034 69.2612 76.34C49.4128 75.5766 45.0406 88.3462 47.539 116.384C49.2046 134.289 59.8922 134.636 59.8922 134.636Z" fill="#FFAC9D"/>
<path d="M86.0559 106.043C86.0559 106.043 86.6111 98.4786 93.1347 100.769C99.6583 103.059 90.1505 121.381 85.9171 114.579C81.6837 107.778 86.0559 106.043 86.0559 106.043Z" fill="#FFAC9D"/>
<path d="M94.3145 101.046C94.3145 101.046 89.7341 98.8256 87.1663 102.781L85.2231 111.873L81.4755 111.248L82.3777 94.1758C82.3777 94.1758 74.4661 89.4566 75.7847 80.0182C75.7847 80.0182 42.1951 91.5386 40.6683 73.3558L45.8733 76.2706C45.8733 76.2706 37.4065 69.9552 44.4853 56.4222C44.4853 56.4222 48.0941 67.8038 58.5735 63.7786C58.5735 63.7786 49.5515 65.3748 49.7597 57.7408C49.7597 57.7408 56.2833 64.542 75.0907 59.2676C93.8981 53.9932 91.6773 71.8984 91.6773 71.8984L86.1947 68.2896C86.1947 68.2896 95.7025 64.542 101.463 72.2454C107.292 80.0182 94.3145 101.046 94.3145 101.046Z" fill="#965450"/>
<path d="M101.532 72.3148C98.6174 68.4284 94.731 67.4568 91.608 67.4568C90.914 62.9458 88.2768 56.9774 78.3526 58.5736C78.2138 65.7218 76.8952 73.564 70.7186 77.9362C63.7092 82.933 55.173 82.933 46.845 81.9614C56.908 86.4724 75.9236 79.9488 75.9236 79.9488C74.605 89.3872 82.5166 94.1064 82.5166 94.1064L81.6144 111.179L85.362 111.803L87.3052 102.712C89.8036 98.7562 94.4534 100.977 94.4534 100.977C94.4534 100.977 107.292 80.0182 101.532 72.3148Z" fill="#76413B"/>
<path d="M61.0025 117.355C60.7943 117.217 60.5861 117.078 60.3085 116.939C60.1003 116.8 59.8227 116.661 59.6145 116.592C59.1287 116.384 58.6429 116.176 58.1571 115.898C57.6713 115.69 57.1161 115.482 56.6303 115.273L55.1035 114.718L54.6871 114.579L54.9647 114.163C55.6587 113.122 56.1445 112.012 56.5609 110.901C56.9773 109.721 57.3937 108.542 57.7407 107.362C58.0877 106.182 58.4347 104.933 58.7817 103.753L59.7533 100.075C59.7533 101.324 59.6145 102.643 59.4063 103.892C59.1981 105.141 58.9899 106.39 58.6429 107.639C58.2959 108.889 57.9489 110.068 57.3937 111.248C57.1855 111.873 56.8385 112.428 56.5609 112.983C56.2833 113.538 55.8669 114.094 55.4505 114.579L55.3117 114.024L56.8385 114.718C57.3243 114.926 57.8101 115.204 58.2959 115.482C58.7817 115.759 59.2675 116.037 59.6839 116.314C59.8921 116.453 60.1697 116.592 60.3779 116.8C60.6555 117.008 60.8637 117.147 61.0025 117.355Z" fill="#B26262"/>
<path d="M62.5988 98.8255C62.5988 98.8255 62.6682 98.5479 62.8764 98.2009C62.9458 97.9927 63.0846 97.7151 63.2928 97.5069C63.501 97.2293 63.7092 96.8823 63.9868 96.6047C64.2644 96.3271 64.542 95.9801 64.9584 95.7025C65.3054 95.3555 65.7218 95.1473 66.2076 94.8697C66.4158 94.7309 66.6934 94.6615 66.9016 94.5227L67.2486 94.3839L67.665 94.2452C68.2202 94.037 68.7754 93.9676 69.3306 93.8982C69.8858 93.8982 70.5104 93.8287 71.0656 93.9675L71.482 94.0369L71.8984 94.1757C72.176 94.2451 72.4536 94.3146 72.6618 94.4534C73.1476 94.6616 73.6334 94.8698 73.9804 95.1474C74.3968 95.425 74.7438 95.7026 75.0214 95.9802C75.299 96.2578 75.5072 96.5353 75.7154 96.8129C75.9236 97.0905 76.0624 97.2987 76.2012 97.5069C76.4094 97.9233 76.5482 98.1315 76.5482 98.1315C76.5482 98.1315 76.2706 97.9927 75.9236 97.7845C75.7154 97.6457 75.5072 97.507 75.2296 97.3682C74.952 97.2294 74.6744 97.0211 74.3274 96.9517C73.9804 96.8129 73.6334 96.6048 73.2864 96.5354C72.9394 96.3966 72.523 96.3272 72.1066 96.1884C71.8984 96.119 71.6902 96.1189 71.482 96.0495C71.2738 95.9801 71.0656 95.9802 70.8574 95.9802C70.441 95.9108 70.0246 95.9802 69.5388 95.9802C69.1224 96.0496 68.6366 96.119 68.2202 96.1884C67.8038 96.2578 67.3874 96.466 66.971 96.5354C66.5546 96.6742 66.2076 96.813 65.7912 97.0212C65.4442 97.16 65.0972 97.3682 64.7502 97.5764C64.4032 97.7152 64.1256 97.9234 63.9174 98.0622C63.6398 98.201 63.4316 98.3397 63.2234 98.4785C62.8764 98.6867 62.5988 98.8255 62.5988 98.8255Z" fill="#252028"/>
<path d="M47.8165 99.7278C47.8165 99.7278 47.8859 99.5196 47.9553 99.1032C48.0247 98.895 48.0941 98.6868 48.2329 98.4092C48.3717 98.1316 48.5105 97.854 48.6493 97.5764C48.8575 97.2988 49.0657 96.9518 49.3433 96.6742C49.4821 96.5354 49.6209 96.3966 49.7597 96.1884C49.8985 96.0496 50.1067 95.9108 50.2455 95.772C50.3843 95.6332 50.5925 95.4944 50.8007 95.3556C51.0089 95.2168 51.2171 95.078 51.4253 95.0086C51.6335 94.9392 51.9111 94.8004 52.1193 94.731L52.8827 94.5922C53.3685 94.5228 53.9237 94.5228 54.4095 94.6616C54.6871 94.6616 54.8953 94.731 55.1035 94.8698C55.3117 94.9392 55.5893 95.0086 55.7975 95.1474C56.0057 95.2862 56.2139 95.3556 56.4221 95.4944C56.6303 95.6332 56.7691 95.772 56.9079 95.9108C57.2549 96.1884 57.4631 96.466 57.6713 96.7436C57.8795 97.0212 58.0183 97.2988 58.1571 97.5764C58.2959 97.7846 58.3653 98.0622 58.4347 98.2704C58.5735 98.6174 58.6429 98.895 58.6429 98.895C58.6429 98.895 58.4347 98.7562 58.1571 98.548C58.0183 98.4092 57.8101 98.2704 57.6019 98.1316C57.3937 97.9928 57.1161 97.854 56.9079 97.7152C56.6303 97.5764 56.3527 97.3682 56.0751 97.2988C55.9363 97.2294 55.7975 97.16 55.5893 97.0906C55.4505 97.0212 55.2423 97.0212 55.1035 96.9518C54.9647 96.8824 54.7565 96.8824 54.6177 96.813C54.4789 96.813 54.2707 96.7436 54.1319 96.7436C53.7849 96.6742 53.4379 96.7436 53.1603 96.7436L52.6745 96.813L52.1887 96.9518C51.8417 97.0906 51.4947 97.16 51.2171 97.3682C51.0783 97.4376 50.8701 97.507 50.7313 97.5764C50.5925 97.6458 50.4537 97.7846 50.3149 97.854C50.0373 97.9928 49.7597 98.201 49.4821 98.4092C49.2045 98.548 48.9963 98.7562 48.7881 98.895C48.5799 99.0338 48.3717 99.1726 48.2329 99.3114C48.0247 99.6584 47.8165 99.7278 47.8165 99.7278Z" fill="#252028"/>
<path d="M71.8984 102.573C71.9678 104.239 72.523 105.627 73.1476 105.557C73.7722 105.557 74.1886 104.169 74.1192 102.434C74.0498 100.769 73.4946 99.3807 72.87 99.4501C72.3148 99.4501 71.829 100.838 71.8984 102.573Z" fill="#252028"/>
<path d="M54.479 103.822C54.5484 105.488 55.1036 106.876 55.7282 106.807C56.3528 106.807 56.7692 105.419 56.6998 103.684C56.6304 102.018 56.0752 100.63 55.4506 100.699C54.826 100.699 54.4096 102.087 54.479 103.822Z" fill="#252028"/>
<path d="M53.5073 120.617C53.5073 120.617 53.8543 120.687 54.3401 120.756C54.8953 120.825 55.6587 120.964 56.6303 121.034C57.1161 121.103 57.6019 121.103 58.1571 121.172C58.7123 121.242 59.2675 121.242 59.8227 121.311C60.3779 121.381 61.0025 121.311 61.6271 121.381C62.2517 121.381 62.8763 121.381 63.5009 121.311C64.1255 121.242 64.7501 121.242 65.3053 121.172C65.5829 121.103 65.9299 121.103 66.2075 121.034C66.4851 121.034 66.7627 120.895 67.0403 120.895C67.3179 120.825 67.5955 120.756 67.8731 120.756C68.1507 120.687 68.4283 120.617 68.6365 120.548C69.1223 120.409 69.6775 120.27 70.0939 120.131C70.5103 119.993 70.9267 119.854 71.2737 119.715C71.6207 119.576 71.8983 119.437 72.1759 119.299C72.6617 119.09 73.0087 118.952 73.0087 118.952C73.0087 118.952 72.8005 119.16 72.3147 119.507C72.1065 119.715 71.8289 119.923 71.4819 120.131C71.1349 120.34 70.7879 120.548 70.3021 120.825C69.8857 121.103 69.3999 121.242 68.8447 121.519C68.5671 121.589 68.2895 121.728 68.0119 121.866C67.7343 121.936 67.4567 122.005 67.1791 122.144C66.6239 122.352 65.9993 122.422 65.3747 122.56C64.7501 122.699 64.1255 122.699 63.4315 122.769C62.8069 122.838 62.1129 122.769 61.4883 122.769C60.8637 122.699 60.2391 122.699 59.6145 122.63C58.9899 122.56 58.4347 122.491 57.8795 122.352C57.3243 122.283 56.8385 122.144 56.3527 122.005C54.6177 121.242 53.5073 120.617 53.5073 120.617Z" fill="#B26262"/>
<path d="M87.2358 113.747C87.444 113.608 87.5828 113.538 87.7216 113.4C87.8604 113.261 87.9992 113.122 88.138 112.983C88.2768 112.844 88.4156 112.706 88.485 112.497C88.5544 112.359 88.6238 112.15 88.6238 112.012C88.6238 111.942 88.6238 111.873 88.6238 111.803C88.6238 111.734 88.6238 111.665 88.5544 111.595C88.485 111.526 88.485 111.456 88.4156 111.387L88.2074 111.179C88.138 111.109 88.0686 111.04 87.9992 110.971C87.9298 110.901 87.8604 110.832 87.791 110.832L87.3052 110.554L87.097 110.415V110.207C87.0276 109.583 87.0276 108.958 87.097 108.333C87.097 107.709 87.1664 107.084 87.3052 106.46C87.444 105.835 87.5828 105.21 87.8604 104.655C88.138 104.1 88.485 103.475 89.0402 103.059C89.3178 102.851 89.6648 102.712 90.0118 102.573C90.22 102.504 90.3588 102.504 90.567 102.504H90.7058C90.7752 102.504 90.7058 102.504 90.7752 102.504H90.8446H91.0528C91.3304 102.504 91.7468 102.643 92.0244 102.781C92.3714 102.92 92.649 103.198 92.7878 103.545C92.996 103.892 92.996 104.239 92.996 104.586C92.996 104.933 92.9266 105.21 92.8572 105.557C92.7184 106.182 92.4408 106.737 92.0938 107.223C92.302 106.668 92.3714 106.043 92.4408 105.488C92.4408 105.21 92.4408 104.933 92.4408 104.655C92.3714 104.378 92.302 104.1 92.1632 103.961C92.0244 103.753 91.8162 103.614 91.608 103.545C91.3998 103.475 91.1916 103.406 90.8446 103.406H90.6364H90.567H90.4976C90.3588 103.406 90.2894 103.475 90.1506 103.475C89.9424 103.545 89.7342 103.684 89.526 103.822C89.179 104.169 88.832 104.586 88.6238 105.072C88.4156 105.557 88.2768 106.113 88.138 106.668C87.9992 107.223 87.9298 107.778 87.8604 108.403C87.791 108.958 87.791 109.583 87.7216 110.138L87.5134 109.791L88.0686 110.207C88.138 110.277 88.2074 110.346 88.3462 110.415C88.4156 110.485 88.485 110.554 88.5544 110.693L88.7626 110.971C88.832 111.04 88.832 111.179 88.9014 111.318C88.9708 111.456 88.9708 111.526 88.9708 111.665C88.9708 111.803 88.9708 111.942 88.9708 112.012C88.9014 112.289 88.832 112.497 88.6932 112.636C88.5544 112.844 88.4156 112.983 88.2074 113.122C87.9992 113.4 87.6522 113.608 87.2358 113.747Z" fill="#B26262"/>
<path d="M63.0151 252.755L64.0561 347H37.8229C37.8229 347 30.8829 225.828 40.8071 195.083C48.9963 169.544 63.0151 252.755 63.0151 252.755Z" fill="#28222B"/>
<path d="M94.5227 218.749L106.529 347H83.0717L64.8889 261.291C64.8889 261.291 44.2077 256.988 35.5327 251.02C35.5327 251.02 36.0185 211.878 38.1005 209.657C40.2519 207.506 94.5227 218.749 94.5227 218.749Z" fill="#352C38"/>
<path d="M96.0495 234.294L94.5227 218.749C94.5227 218.749 40.2519 207.506 38.1699 209.657C37.1289 210.768 36.4349 221.525 36.0879 231.796C47.0531 235.474 70.3715 241.096 96.0495 234.294Z" fill="#28222B"/>
<path d="M81.4062 139.008C81.4062 139.008 105.488 142.062 108.056 147.197C110.624 152.333 97.2294 229.506 97.2294 229.506C97.2294 229.506 68.7754 236.932 32.5486 228.604C32.5486 228.604 25.678 155.109 29.4256 149.279C31.924 145.393 43.2362 141.021 57.8796 139.355C70.6492 146.85 75.0214 142.617 81.4062 139.008Z" fill="#5D8584"/>
<path d="M103.267 166.629C98.4785 175.513 92.3019 184.257 84.0433 190.225C79.3935 193.557 74.3967 196.194 69.1223 198.415C63.2233 200.982 57.1855 203.55 50.8701 205.008C44.0689 206.534 37.1983 206.881 30.6053 205.771C31.5769 218.679 32.5485 228.604 32.5485 228.604C68.8447 236.932 97.2293 229.506 97.2293 229.506C97.2293 229.506 106.39 176.692 108.125 155.525C106.945 159.62 105.002 163.506 103.267 166.629Z" fill="#517270"/>
<path d="M88.5543 138.939L74.6049 149.21L71.1349 137.967L84.5985 131.86L88.5543 138.939Z" fill="white"/>
<path d="M53.0909 140.049L61.2107 148.516L63.8479 138.384L55.5893 134.081L53.0909 140.049Z" fill="white"/>
<path d="M91.2609 232.143L87.5133 236.654L97.8539 250.118L100.908 239.916L91.2609 232.143Z" fill="#FFAC9D"/>
<path d="M108.056 147.197C108.056 147.197 137.204 188.282 136.718 199.733C136.232 211.184 99.9359 244.357 99.9359 244.357C99.9359 244.357 94.1757 240.957 89.5953 233.739L111.595 201.676C111.595 201.676 97.2987 177.178 96.2577 173.986C95.2167 170.793 98.5479 144.838 108.056 147.197Z" fill="#5D8584"/>
<path d="M282.25 255.461L281.209 347H309.038C309.038 347 316.395 226.938 305.985 194.251C297.31 167.115 282.25 255.461 282.25 255.461Z" fill="#5C7E9B"/>
<path d="M253.31 224.37L236.168 347H260.944L280.237 264.483C280.237 264.483 302.237 259.972 311.398 253.657C311.398 253.657 310.981 212.086 308.761 209.727C306.54 207.506 253.31 224.37 253.31 224.37Z" fill="#6F96BD"/>
<path d="M260.25 228.673C255.323 228.257 252.477 227.771 252.477 227.771L251.783 233.323C254.351 234.017 257.127 234.433 260.042 234.78C260.042 232.698 260.181 230.686 260.25 228.673Z" fill="#352C38"/>
<path d="M308.205 231.102C310.149 230.755 311.259 230.477 311.259 230.477L310.843 223.26C309.732 223.607 308.691 223.884 307.65 224.162C307.928 226.522 308.067 228.812 308.205 231.102Z" fill="#352C38"/>
<path d="M305.082 224.925C288.079 229.228 272.603 229.367 262.887 228.812C262.818 230.824 262.748 232.906 262.679 234.919C278.086 236.029 296.477 233.253 305.638 231.588C305.429 229.367 305.36 227.146 305.082 224.925Z" fill="#352C38"/>
<path d="M276.42 227.632L276.906 235.96L292.66 234.711L291.688 226.73L276.42 227.632Z" fill="#765E69"/>
<path d="M285.234 134.914C285.234 134.914 307.095 133.803 311.884 137.204C316.672 140.604 340.823 175.651 343.946 186.131C347.069 196.61 314.59 218.194 310.843 220.345C310.843 220.345 309.871 211.254 308.761 206.881L322.016 188.352L302.168 161.008L285.234 134.914Z" fill="#FDEDEE"/>
<path d="M343.946 186.2C341.934 179.399 331.107 162.396 322.432 150.251C318.685 157.399 314.035 163.992 308.83 170.238L321.947 188.421L308.691 206.951C309.871 211.323 310.773 220.414 310.773 220.414C314.59 218.263 347.069 196.68 343.946 186.2Z" fill="#EDDFE0"/>
<path d="M251.159 117.911L255.461 140.119L278.78 136.926L278.641 124.157L251.159 117.911Z" fill="#76413B"/>
<path d="M256.294 135.885C256.294 135.885 231.102 141.437 228.881 147.128C226.66 152.819 253.241 226.175 253.241 226.175C253.241 226.175 276.628 230.755 310.843 220.345C310.843 220.345 316.88 147.475 312.3 141.645C307.72 135.885 282.527 130.958 256.294 135.885Z" fill="#FDEDEE"/>
<path d="M280.862 189.809C268.3 185.02 255.739 179.33 246.231 169.614C241.373 164.686 237.279 159.342 233.462 153.582C232.004 151.361 230.547 149.21 228.951 147.059C228.951 147.128 228.881 147.128 228.881 147.197C226.66 152.888 253.241 226.244 253.241 226.244C253.241 226.244 276.628 230.824 310.843 220.414C310.843 220.414 311.606 211.254 312.369 199.178C301.682 196.61 291.133 193.695 280.862 189.809Z" fill="#EDDFE0"/>
<path d="M264.206 143.45L268.439 147.822L269.827 213.405L281.07 222.427L289.051 210.698L275.796 146.712L280.445 139.216L271.979 134.011L265.663 135.399L264.206 143.45Z" fill="#352C38"/>
<path d="M248.73 136.51L264.414 146.018L269.203 134.636L252.269 128.668L248.73 136.51Z" fill="white"/>
<path d="M286.344 134.289L278.572 144.005L269.55 134.22L283.152 128.182L286.344 134.289Z" fill="white"/>
<path d="M235.197 220.623C235.197 220.623 250.187 229.922 252.13 226.938C254.073 223.954 254.143 219.79 254.143 219.79C254.143 219.79 273.714 227.285 254.559 216.806C254.559 216.806 276.767 224.023 254.629 213.752C254.629 213.752 275.032 215.209 252.824 210.698C252.824 210.698 273.644 208.755 250.187 208.755C250.187 208.755 246.786 209.866 248.174 215.903L236.168 210.421L235.197 220.623Z" fill="#965450"/>
<path d="M245.954 214.932L236.168 210.421L235.266 220.623C235.266 220.623 239.014 222.982 243.039 224.925C243.941 221.594 245.121 218.332 245.954 214.932Z" fill="#76413B"/>
<path d="M250.603 136.579C250.603 136.579 226.73 140.327 222.843 144.838C218.957 149.279 202.093 186.061 201.538 197.027C200.982 207.992 235.127 222.913 239.291 224.162C239.291 224.162 244.704 216.667 244.774 212.156L224.995 197.096L240.263 165.935L250.603 136.579Z" fill="#FDEDEE"/>
<path d="M311.12 205.493C288.635 206.604 308.691 207.437 308.691 207.437C287.594 212.78 307.095 210.421 307.095 210.421C286.344 221.178 307.303 213.336 307.303 213.336C289.467 224.301 308.899 215.765 308.899 215.765C308.899 215.765 308.761 218.61 310.218 220.414C310.704 221.039 313.202 222.149 313.41 219.998C316.186 202.856 311.12 205.493 311.12 205.493Z" fill="#965450"/>
<path d="M290.508 77.6586C290.508 77.6586 291.341 94.731 288.01 96.3272C284.679 97.9234 284.054 81.545 284.054 81.545L290.508 77.6586Z" fill="#252028"/>
<path d="M274.546 131.721C274.546 131.721 254.629 135.399 248.66 115.273C242.622 95.1474 243.386 70.6492 264.414 69.8164C285.512 68.9836 290.161 82.4472 287.594 112.289C285.928 131.305 274.546 131.721 274.546 131.721Z" fill="#965450"/>
<path d="M246.648 101.463C246.648 101.463 246.023 93.4818 239.083 95.9108C232.143 98.3398 242.345 117.772 246.856 110.624C251.367 103.337 246.648 101.463 246.648 101.463Z" fill="#965450"/>
<path d="M241.165 95.3556C241.165 95.3556 245.537 95.078 246.37 100.699C247.202 106.321 250.672 105.835 251.228 102.781C251.852 99.7278 249.631 91.1222 249.631 91.1222C249.631 91.1222 254.767 87.0276 254.42 76.8258C254.42 76.8258 282.041 87.9992 291.271 80.3652C298.42 74.4662 298.975 63.9174 292.521 59.684C286.066 55.3812 281 63.154 281 63.154C281 63.154 286.136 59.4064 281.833 57.5326C277.53 55.6588 275.171 62.6682 275.171 62.6682C275.171 62.6682 276.559 55.5894 272.395 55.867C268.231 56.1446 272.256 62.5988 272.256 62.5988C272.256 62.5988 259.556 51.4948 251.505 65.5136C251.505 65.5136 244.843 60.8638 238.874 68.7754C232.906 76.687 241.165 95.3556 241.165 95.3556Z" fill="#352C38"/>
<path d="M254.351 76.8258C254.351 76.8258 262.401 80.0876 271.215 81.892C267.468 80.9898 263.095 79.8794 260.319 77.034C254.767 71.4126 256.919 64.0562 261.152 58.4348C257.821 58.643 254.351 60.4474 251.436 65.5136C251.436 65.5136 244.774 60.8638 238.805 68.7754C232.837 76.687 241.096 95.3556 241.096 95.3556C241.096 95.3556 245.468 95.078 246.301 100.699C247.133 106.321 250.603 105.835 251.159 102.781C251.783 99.7278 249.562 91.1222 249.562 91.1222C249.562 91.1222 254.767 87.0276 254.351 76.8258Z" fill="#252028"/>
<path d="M259.14 115.065L281.695 115.551C281.695 115.62 273.158 127.002 259.14 115.065Z" fill="white"/>
<path d="M271.701 112.428C272.603 112.22 273.436 112.012 274.338 111.873C275.24 111.665 276.143 111.526 276.975 111.387L276.559 111.942C276.351 111.248 276.143 110.485 276.004 109.791C275.796 109.027 275.657 108.333 275.449 107.57C275.31 106.807 275.102 106.113 274.963 105.349L274.477 103.128C274.199 101.671 273.922 100.144 273.644 98.6868C273.436 97.2294 273.228 95.7026 273.089 94.1758C273.644 95.6332 274.061 97.0212 274.477 98.4786C274.893 99.936 275.24 101.393 275.657 102.851L276.143 105.072C276.281 105.835 276.49 106.529 276.628 107.292C276.767 108.056 276.906 108.75 277.045 109.513C277.184 110.277 277.322 110.971 277.461 111.734L277.531 112.289H277.045C276.143 112.359 275.24 112.359 274.338 112.428C273.505 112.428 272.603 112.428 271.701 112.428Z" fill="#562626"/>
<path d="M271.493 93.69C271.493 93.69 271.215 93.5512 270.868 93.2736C270.66 93.1348 270.452 92.996 270.174 92.7878C269.896 92.649 269.619 92.4408 269.272 92.2326C268.925 92.0244 268.578 91.8162 268.162 91.6774C267.815 91.4692 267.329 91.3304 266.912 91.1222C266.496 90.9834 266.01 90.7752 265.594 90.7058C265.108 90.567 264.692 90.567 264.206 90.4976C263.72 90.4976 263.304 90.4282 262.818 90.4976C262.61 90.4976 262.332 90.4976 262.124 90.567C261.916 90.6364 261.638 90.6364 261.43 90.7058C261.013 90.8446 260.597 90.914 260.181 91.0528C259.764 91.1916 259.417 91.3998 259.07 91.5386C258.723 91.6774 258.446 91.8856 258.099 92.0244C257.821 92.1632 257.543 92.302 257.405 92.4408C256.988 92.7184 256.78 92.8572 256.78 92.8572C256.78 92.8572 256.919 92.5796 257.127 92.1632C257.266 91.955 257.405 91.6774 257.613 91.3998C257.821 91.1222 258.029 90.7752 258.376 90.4976C258.723 90.22 259.07 89.873 259.487 89.5954C259.695 89.4566 259.903 89.3178 260.181 89.179C260.389 89.0402 260.666 88.9708 260.944 88.832C261.222 88.6932 261.499 88.6238 261.777 88.5544L262.193 88.4156L262.61 88.3462C263.165 88.2074 263.789 88.2768 264.414 88.2768C265.039 88.3462 265.594 88.4156 266.149 88.6238L266.565 88.7626L266.982 88.9708C267.259 89.1096 267.537 89.179 267.745 89.3178C268.231 89.5954 268.647 89.873 269.064 90.22C269.48 90.4976 269.758 90.8446 270.035 91.1916C270.313 91.4692 270.521 91.8162 270.729 92.0938C270.938 92.3714 271.076 92.649 271.215 92.8572C271.423 93.4124 271.493 93.69 271.493 93.69Z" fill="#252028"/>
<path d="M287.246 94.6616C287.246 94.6616 287.038 94.5228 286.761 94.2452C286.622 94.1064 286.414 93.9676 286.205 93.7594C285.997 93.6206 285.789 93.4124 285.511 93.2042C285.234 92.996 284.956 92.7878 284.679 92.5796C284.54 92.5102 284.401 92.3714 284.193 92.302C284.054 92.2326 283.846 92.0938 283.707 92.0244C283.568 91.955 283.36 91.8856 283.221 91.8162C283.013 91.7468 282.874 91.6774 282.666 91.608C282.458 91.5386 282.319 91.4692 282.111 91.4692L281.556 91.3998C281.209 91.3998 280.792 91.3304 280.445 91.3998C280.237 91.3998 280.098 91.4692 279.89 91.4692C279.682 91.5386 279.543 91.5386 279.335 91.608C279.196 91.6774 278.988 91.7468 278.849 91.7468C278.71 91.8162 278.502 91.8856 278.363 91.955C278.224 92.0244 278.016 92.0938 277.877 92.2326C277.739 92.302 277.6 92.3714 277.461 92.5102C277.183 92.7184 276.975 92.8572 276.698 92.996C276.489 93.1348 276.281 93.343 276.142 93.4124C275.795 93.69 275.587 93.8288 275.587 93.8288C275.587 93.8288 275.657 93.6206 275.795 93.2042C275.865 92.996 275.934 92.7878 276.142 92.5102C276.281 92.2326 276.489 91.955 276.698 91.6774C276.975 91.3998 277.183 91.0528 277.53 90.8446C277.669 90.7058 277.877 90.567 278.086 90.4282C278.294 90.2894 278.502 90.22 278.71 90.0812C278.918 89.9424 279.196 89.873 279.404 89.8036C279.612 89.7342 279.89 89.6648 280.168 89.5954C280.653 89.4566 281.209 89.526 281.764 89.526L282.527 89.6648C282.805 89.7342 283.013 89.873 283.291 89.9424C283.568 90.0118 283.776 90.1506 283.985 90.2894C284.193 90.4282 284.401 90.4976 284.609 90.7058C284.817 90.8446 284.956 90.9834 285.164 91.1222C285.303 91.261 285.442 91.4692 285.65 91.608C285.928 91.8856 286.136 92.2326 286.414 92.5102C286.622 92.7878 286.761 93.1348 286.899 93.343C287.038 93.6206 287.108 93.8288 287.177 94.037C287.177 94.384 287.246 94.6616 287.246 94.6616Z" fill="#252028"/>
<path d="M261.638 97.7152C261.569 99.5196 261.013 100.977 260.319 100.908C259.695 100.908 259.209 99.3808 259.278 97.6458C259.348 95.8414 259.903 94.384 260.597 94.4534C261.291 94.4534 261.707 95.9108 261.638 97.7152Z" fill="#252028"/>
<path d="M280.237 98.9644C280.168 100.769 279.612 102.226 278.918 102.157C278.294 102.157 277.808 100.63 277.877 98.895C277.947 97.0906 278.502 95.6332 279.196 95.7026C279.821 95.7026 280.306 97.16 280.237 98.9644Z" fill="#252028"/>
<path d="M245.468 109.583C245.051 109.444 244.635 109.236 244.288 109.027C244.08 108.889 243.941 108.75 243.802 108.542C243.663 108.333 243.524 108.125 243.455 107.848C243.455 107.709 243.386 107.57 243.455 107.431C243.455 107.292 243.455 107.154 243.524 107.015C243.594 106.876 243.594 106.737 243.663 106.668L243.871 106.321C243.941 106.182 244.01 106.113 244.149 106.043C244.218 105.974 244.288 105.835 244.427 105.766L244.982 105.349L244.704 105.766C244.704 105.141 244.635 104.516 244.565 103.892C244.496 103.267 244.427 102.643 244.288 102.087C244.149 101.463 244.01 100.908 243.733 100.422C243.594 100.144 243.455 99.936 243.316 99.6584C243.177 99.4502 242.969 99.242 242.83 99.1032C242.622 98.9644 242.414 98.8256 242.206 98.7562C242.067 98.7562 241.998 98.6868 241.859 98.6868H241.789C241.859 98.6868 241.789 98.6868 241.859 98.6868H241.789H241.581C241.234 98.6868 241.026 98.7562 240.818 98.7562C240.61 98.8256 240.401 98.9644 240.263 99.1726C240.124 99.3808 240.054 99.589 239.985 99.8666C239.916 100.144 239.916 100.422 239.985 100.769C240.054 101.393 240.193 102.018 240.332 102.643C239.985 102.087 239.707 101.532 239.499 100.838C239.43 100.491 239.36 100.144 239.36 99.7972C239.36 99.4502 239.43 99.0338 239.569 98.6868C239.707 98.3398 240.054 98.0622 240.471 97.854C240.818 97.7152 241.304 97.5764 241.581 97.5764H241.789H241.859H241.928H241.998H242.136C242.345 97.5764 242.553 97.6458 242.692 97.6458C243.108 97.7152 243.455 97.9234 243.733 98.1316C244.357 98.6174 244.774 99.242 245.051 99.8666C245.329 100.491 245.537 101.185 245.676 101.81C245.815 102.434 245.884 103.128 245.884 103.822C245.884 104.516 245.953 105.141 245.884 105.835V106.113L245.676 106.251L245.19 106.529C245.121 106.598 245.051 106.668 244.982 106.737C244.912 106.807 244.843 106.876 244.774 106.945L244.565 107.154C244.496 107.223 244.496 107.292 244.427 107.362C244.357 107.431 244.357 107.501 244.357 107.57C244.357 107.639 244.357 107.709 244.357 107.778C244.357 107.848 244.357 107.917 244.357 108.056C244.357 108.125 244.427 108.195 244.427 108.333C244.496 108.542 244.635 108.68 244.774 108.819C244.912 108.958 245.051 109.097 245.259 109.236C245.121 109.305 245.259 109.444 245.468 109.583Z" fill="#562626"/>
<path d="M168.295 247.619C168.295 247.619 168.364 282.736 184.743 347H229.02C229.02 347 240.749 222.496 200.982 195.916C173.986 177.942 168.295 247.619 168.295 247.619Z" fill="#5B454C"/>
<path d="M146.989 192.655C146.989 192.655 123.879 214.932 119.784 258.169C116.314 294.881 127.765 347.001 127.765 347.001H176.137L179.468 273.714C179.468 273.714 210.282 261.638 224.856 241.443C224.856 241.443 221.802 210.491 198.831 192.1C175.86 173.57 146.989 192.655 146.989 192.655Z" fill="#765E69"/>
<path d="M208.547 201.607C205.84 198.345 202.648 195.083 198.9 192.03C175.929 173.569 147.059 192.654 147.059 192.654C147.059 192.654 135.538 203.62 129.5 221.247C141.923 221.108 171.14 221.317 208.547 201.607Z" fill="#5B454C"/>
<path d="M164.894 37.6842C164.894 37.6842 182.036 31.0218 190.989 40.6684C199.941 50.315 191.613 92.649 199.317 101.81C207.02 111.04 208.061 119.993 198.484 131.097C188.837 142.201 162.327 131.721 162.743 101.185C163.159 70.6492 164.894 37.6842 164.894 37.6842Z" fill="#28222B"/>
<path d="M169.475 100.977C169.475 100.977 168.573 118.605 172.528 117.702C176.484 116.8 189.254 111.942 193.21 122.838C197.165 133.803 135.469 147.475 130.611 129.847C125.753 112.22 153.096 135.955 148.516 95.2168C143.936 54.479 169.475 100.977 169.475 100.977Z" fill="#FFAC9D"/>
<path d="M148.932 100.422C150.806 102.296 152.749 104.031 155.109 105.28C159.481 107.57 164.409 108.611 169.475 109.097C169.267 105.002 169.475 100.977 169.475 100.977C169.475 100.977 143.936 54.479 148.516 95.2168C148.724 97.0906 148.863 98.8256 148.932 100.422Z" fill="#D89087"/>
<path d="M139.563 71.5514C139.563 71.5514 140.049 43.6526 169.197 46.5674C198.345 49.5516 186.408 103.198 172.528 106.113C164.894 107.778 138.731 103.614 139.563 71.5514Z" fill="#FFAC9D"/>
<path d="M160.314 91.5386C160.314 91.5386 168.711 100.075 178.358 92.1632L160.314 91.5386Z" fill="white"/>
<path d="M172.737 72.3148C172.737 72.87 172.806 73.4946 172.806 74.0498C172.875 74.605 172.875 75.1602 173.014 75.7154C173.084 75.993 173.084 76.2706 173.153 76.5482C173.222 76.8258 173.222 77.1034 173.292 77.381L173.5 78.2138L173.708 79.0466C173.778 79.3242 173.916 79.6018 173.986 79.81C174.055 80.0876 174.194 80.2958 174.263 80.5734C174.402 80.851 174.472 81.0592 174.61 81.3368L175.027 82.0308C175.166 82.239 175.374 82.4472 175.513 82.6554C175.651 82.8636 175.86 83.0718 176.068 83.28C176.276 83.4882 176.415 83.6964 176.623 83.8352L177.248 84.321L177.872 84.8068L177.178 85.0844C175.513 85.7784 173.847 86.4724 172.112 87.0276C173.639 85.9866 175.166 85.1538 176.762 84.2516L176.692 85.015L175.929 84.5292C175.651 84.3904 175.443 84.1128 175.235 83.9046C175.027 83.6964 174.749 83.4882 174.61 83.2106C174.402 82.933 174.263 82.7248 174.055 82.4472L173.569 81.6838C173.431 81.4062 173.292 81.1286 173.222 80.851C173.084 80.5734 173.014 80.2958 172.945 80.0182C172.875 79.7406 172.737 79.463 172.737 79.1854L172.528 78.2832L172.39 77.381C172.32 77.1034 172.32 76.8258 172.32 76.4788C172.32 76.2012 172.32 75.9236 172.32 75.5766C172.39 74.605 172.459 73.4946 172.737 72.3148Z" fill="#B26262"/>
<path d="M168.781 66.8322C168.781 66.8322 168.503 66.624 168.156 66.277C167.948 66.0688 167.74 65.8606 167.393 65.6524C167.254 65.583 167.115 65.4442 166.976 65.3054C166.907 65.236 166.838 65.1666 166.768 65.1666C166.699 65.0972 166.56 65.0972 166.491 65.0278C166.144 64.8196 165.727 64.6114 165.311 64.4032C165.103 64.3338 164.894 64.195 164.686 64.1256C164.478 64.0562 164.2 63.9868 163.992 63.9174C163.784 63.848 163.506 63.848 163.229 63.7786C162.951 63.7092 162.743 63.6398 162.465 63.6398C162.188 63.6398 161.98 63.5704 161.702 63.5704H160.939C160.661 63.5704 160.383 63.6398 160.175 63.6398C159.898 63.6398 159.62 63.7092 159.412 63.7786C159.134 63.848 158.926 63.848 158.648 63.9174C158.371 63.9868 158.163 64.0562 157.885 64.1256C157.607 64.195 157.399 64.2644 157.191 64.3338C156.983 64.4032 156.705 64.4726 156.497 64.6114C156.081 64.8196 155.664 64.9584 155.317 65.1666C155.109 65.236 154.97 65.3748 154.762 65.4442C154.623 65.5136 154.415 65.6524 154.276 65.7218C153.999 65.93 153.721 66.0688 153.513 66.277C153.096 66.624 152.819 66.7628 152.819 66.7628C152.819 66.7628 152.888 66.4852 153.096 65.93C153.166 65.6524 153.374 65.3748 153.582 65.0278C153.721 64.889 153.79 64.6808 153.929 64.542C154.068 64.4032 154.207 64.195 154.415 64.0562C154.762 63.7092 155.178 63.3622 155.595 63.0152C155.803 62.807 156.081 62.7376 156.289 62.5294C156.566 62.3906 156.775 62.1824 157.052 62.113C157.33 61.9742 157.607 61.8354 157.885 61.766C158.163 61.6272 158.51 61.5578 158.787 61.4884C159.065 61.419 159.412 61.3496 159.759 61.2802C160.106 61.2802 160.383 61.1414 160.73 61.2108H161.702C162.049 61.2108 162.396 61.2802 162.674 61.3496C163.021 61.3496 163.298 61.4884 163.645 61.5578C163.923 61.6966 164.27 61.6966 164.547 61.9048C164.825 62.0436 165.103 62.1824 165.38 62.3212C165.658 62.46 165.866 62.6682 166.074 62.807C166.56 63.154 166.907 63.5704 167.254 63.9174C167.601 64.2644 167.809 64.6808 168.017 65.0278C168.226 65.3748 168.364 65.6524 168.434 65.93C168.711 66.5546 168.781 66.8322 168.781 66.8322Z" fill="#252028"/>
<path d="M174.055 67.7344C174.055 67.7344 174.125 67.4568 174.333 67.1098C174.472 66.9016 174.541 66.624 174.749 66.4158C174.957 66.1382 175.096 65.8606 175.374 65.5136C175.651 65.236 175.929 64.889 176.345 64.6114C176.554 64.4726 176.692 64.3338 176.901 64.195C177.109 64.0562 177.317 63.9174 177.595 63.848C177.803 63.7092 178.08 63.6398 178.358 63.5704L178.774 63.4316C178.913 63.4316 179.052 63.3622 179.191 63.3622C179.746 63.2234 180.371 63.2234 180.926 63.2928L181.828 63.4316C182.106 63.501 182.383 63.6398 182.661 63.7092C182.938 63.7786 183.147 63.9868 183.424 64.0562C183.702 64.195 183.91 64.3338 184.118 64.4726C184.535 64.7502 184.882 65.1666 185.229 65.4442C185.576 65.7912 185.784 66.1382 185.992 66.4852C186.2 66.8322 186.339 67.1792 186.478 67.4568C186.617 67.7344 186.686 68.012 186.755 68.2202C186.894 68.6366 186.964 68.9142 186.964 68.9142C186.964 68.9142 186.755 68.7754 186.408 68.4284C186.27 68.2896 186.061 68.0814 185.784 67.9426C185.576 67.7344 185.298 67.5262 185.02 67.318C184.743 67.1098 184.465 66.8322 184.118 66.624C183.771 66.4158 183.424 66.2076 183.077 65.9994C182.73 65.7912 182.314 65.6524 181.967 65.5136C181.759 65.4442 181.55 65.4442 181.342 65.3748L180.718 65.3054C180.301 65.3054 179.885 65.236 179.538 65.3054C179.33 65.3054 179.121 65.3748 178.913 65.3748C178.705 65.4442 178.497 65.4442 178.289 65.5136C178.08 65.583 177.872 65.6524 177.733 65.7218C177.525 65.7912 177.386 65.8606 177.178 65.93C176.831 66.0688 176.484 66.277 176.207 66.4158C175.86 66.5546 175.651 66.7628 175.374 66.9016C175.096 67.0404 174.888 67.2486 174.68 67.318C174.333 67.665 174.055 67.7344 174.055 67.7344Z" fill="#252028"/>
<path d="M159.62 74.1192C159.62 76.0624 159.134 77.6586 158.51 77.6586C157.885 77.6586 157.33 76.0624 157.33 74.1192C157.33 72.176 157.816 70.5798 158.44 70.5798C159.065 70.5798 159.62 72.176 159.62 74.1192Z" fill="#252028"/>
<path d="M178.705 74.605C178.705 76.5482 178.219 78.1443 177.594 78.1443C176.97 78.1443 176.415 76.5482 176.415 74.605C176.415 72.6618 176.9 71.0656 177.525 71.0656C178.15 71.0656 178.635 72.6618 178.705 74.605Z" fill="#252028"/>
<path d="M139.425 117.98C139.425 117.98 117.217 121.658 116.037 126.516C114.788 131.374 147.961 199.733 147.961 199.733L209.31 191.197C209.31 191.197 212.642 161.424 199.317 142.617C199.317 142.617 202.648 117.98 200.566 117.425C198.415 116.8 179.885 115.273 179.885 115.273L161.98 116.523L139.425 117.98Z" fill="#FDEDEE"/>
<path d="M136.995 117.98C136.995 117.98 143.103 126.169 156.705 132.554L161.563 118.258L169.752 132.207C169.752 132.207 180.093 122.769 183.424 115.482L174.61 108.472L161.841 116.384L143.311 109.374L136.995 117.98Z" fill="white"/>
<path d="M117.633 124.712C117.633 124.712 132.901 135.677 139.494 149.071C146.087 162.535 150.876 181.897 150.876 181.897L220.484 179.607L222.011 193.557C222.011 193.557 148.585 216.736 136.302 211.254C124.018 205.84 107.778 128.598 117.633 124.712Z" fill="white"/>
<path d="M220.484 179.607L188.837 182.314L158.857 185.367L154.276 181.897L150.945 181.828C150.945 181.828 150.667 180.648 150.112 178.705L141.923 172.528L152.264 196.194C152.264 196.194 186.617 200.358 221.455 191.822L220.484 179.607Z" fill="#FDEDEE"/>
<path d="M167.323 178.011L159.898 177.595C159.898 177.595 152.194 172.875 148.03 168.364C143.866 163.784 141.16 162.535 141.16 162.535C141.16 162.535 129.709 161.424 130.958 163.368C132.207 165.311 140.604 166.005 140.604 166.005L143.242 169.058C143.242 169.058 135.955 169.752 135.122 170.863C134.289 171.973 129.015 181.203 130.125 181.203C131.235 181.203 133.873 179.399 137.273 173.639C137.273 173.639 133.803 184.535 134.081 187.033C134.358 189.531 138.384 182.314 139.078 178.219C139.772 174.055 139.078 186.478 139.494 186.755C139.91 187.033 141.715 183.008 141.715 180.509C141.715 178.011 145.324 177.456 145.324 177.456C145.324 177.456 153.999 187.519 155.664 187.241C157.33 186.964 170.169 187.935 170.169 187.935L167.323 178.011Z" fill="#FFAC9D"/>
<path d="M165.103 187.588C167.809 187.796 170.099 187.935 170.099 187.935L167.323 178.011L162.327 177.733C163.09 181.065 164.131 184.326 165.103 187.588Z" fill="#D89087"/>
<path d="M200.427 117.355C200.427 117.355 219.582 135.261 229.922 162.604C240.263 189.948 237.209 189.323 220.831 194.181C204.452 199.039 168.92 190.503 168.92 190.503L165.241 175.929L208.061 170.169C208.061 170.169 205.91 157.746 198.345 145.532C198.345 145.601 200.774 127.418 200.427 117.355Z" fill="white"/>
<path d="M200.635 171.14C200.635 171.14 205.702 161.077 207.367 159.551C209.102 158.024 216.112 151.292 216.806 151.847C217.569 152.402 216.806 154.97 214.515 157.122C212.225 159.273 206.951 164.617 206.951 164.617L207.09 162.465C207.09 162.465 218.402 156.566 219.235 156.566C220.067 156.566 220.553 158.787 213.683 162.396L208.616 168.017C208.616 168.017 216.875 162.257 218.124 162.327C219.373 162.396 214.099 167.74 212.295 168.85C210.56 170.03 200.635 171.14 200.635 171.14Z" fill="#FFAC9D"/>
<path d="M122.56 57.1856C122.56 57.1856 121.519 34.2836 137.551 30.883C148.863 28.454 172.598 30.4666 172.39 39.0028C172.181 47.539 169.405 56.3528 155.525 59.337C141.645 62.3212 155.734 109.583 147.822 116.661C139.91 123.74 125.475 118.327 116.037 126.516C116.037 126.516 112.636 114.302 118.188 109.513C129.986 99.1726 120.825 80.504 122.56 57.1856Z" fill="#352C38"/>
</g>
<defs>
<clipPath id="clip0_765_3095">
<rect width="347" height="347" fill="white"/>
</clipPath>
</defs>
</svg>
