<svg width="60" height="60" viewBox="0 0 60 60" fill="none" xmlns="http://www.w3.org/2000/svg">
<g clip-path="url(#clip0_765_3238)">
<g filter="url(#filter0_d_765_3238)">
<mask id="mask0_765_3238" style="mask-type:luminance" maskUnits="userSpaceOnUse" x="0" y="0" width="59" height="59">
<path d="M55.3719 0H3.30578C1.48005 0 0 1.62806 0 3.63636V54.9091C0 56.9174 1.48005 58.5455 3.30578 58.5455H55.3719C57.1976 58.5455 58.6777 56.9174 58.6777 54.9091V3.63636C58.6777 1.62806 57.1976 0 55.3719 0Z" fill="white"/>
</mask>
<g mask="url(#mask0_765_3238)">
<path d="M55.3719 0H3.30578C1.48005 0 0 1.62806 0 3.63636V54.9091C0 56.9174 1.48005 58.5455 3.30578 58.5455H55.3719C57.1976 58.5455 58.6777 56.9174 58.6777 54.9091V3.63636C58.6777 1.62806 57.1976 0 55.3719 0Z" fill="#FF9500"/>
<path d="M33.352 45.3455L32.3636 38.7746L25.9603 39.0582L24.3272 47.9455L18.3107 47.3782L26.0032 13.1055L33.9536 13.8618L39.5834 45.9127L33.352 45.3455ZM29.5702 19.2982L26.8627 34L31.676 33.8109L29.5702 19.2982Z" fill="#484848"/>
<path d="M33.3521 45.3454L33.189 45.3751L33.2101 45.5149L33.3385 45.5267L33.3521 45.3454ZM32.3637 38.7745L32.5268 38.7449L32.5028 38.5863L32.3571 38.5929L32.3637 38.7745ZM25.9604 39.0582L25.9538 38.8765L25.824 38.8822L25.7984 39.0222L25.9604 39.0582ZM24.3273 47.9454L24.3133 48.1265L24.46 48.1405L24.4893 47.9814L24.3273 47.9454ZM18.3108 47.3782L18.1503 47.3345L18.104 47.5411L18.2967 47.5593L18.3108 47.3782ZM26.0033 13.1054L26.0176 12.9243L25.8767 12.9109L25.8428 13.0619L26.0033 13.1054ZM33.9538 13.8618L34.1161 13.8273L34.0924 13.6925L33.968 13.6807L33.9538 13.8618ZM39.5835 45.9127L39.57 46.094L39.7871 46.1136L39.7458 45.8782L39.5835 45.9127ZM29.5703 19.2982L29.7336 19.2694L29.4083 19.262L29.5703 19.2982ZM26.8628 34L26.7009 33.9638L26.6592 34.19L26.8688 34.1816L26.8628 34ZM31.6761 33.8109L31.682 33.9925L31.8688 33.9853L31.8394 33.7822L31.6761 33.8109ZM33.5152 45.3158L32.5268 38.7449L32.2005 38.8042L33.189 45.3751L33.5152 45.3158ZM32.3571 38.5929L25.9538 38.8765L25.967 39.2398L32.3703 38.9562L32.3571 38.5929ZM25.7984 39.0222L24.1653 47.9094L24.4893 47.9814L26.1223 39.0942L25.7984 39.0222ZM24.3414 47.7643L18.3248 47.1971L18.2967 47.5593L24.3133 48.1265L24.3414 47.7643ZM18.4713 47.4218L26.1638 13.149L25.8428 13.0619L18.1503 47.3345L18.4713 47.4218ZM25.9891 13.2866L33.9395 14.0429L33.968 13.6807L26.0176 12.9243L25.9891 13.2866ZM33.7914 13.8963L39.4212 45.9473L39.7458 45.8782L34.1161 13.8273L33.7914 13.8963ZM39.5971 45.7314L33.3657 45.1642L33.3385 45.5267L39.57 46.094L39.5971 45.7314ZM29.4083 19.262L26.7009 33.9638L27.0248 34.0362L29.7323 19.3343L29.4083 19.262ZM26.8688 34.1816L31.682 33.9925L31.6701 33.6293L26.8569 33.8183L26.8688 34.1816ZM31.8394 33.7822L29.7336 19.2694L29.4071 19.3269L31.5129 33.8396L31.8394 33.7822Z" fill="#484848"/>
<path fill-rule="evenodd" clip-rule="evenodd" d="M6.5112 -33.5043C9.81214 -29.9039 9.81389 -24.1272 11.4581 -19.3461C12.4122 -16.5716 12.1883 -13.0368 14.2207 -11.0856C17.7753 -7.67311 24.8329 -9.19924 26.8906 -4.53068C28.5439 -0.779724 23.6332 2.84338 22.0229 6.61572C20.537 10.0971 20.3203 14.4388 17.7043 16.9917C15.0895 19.5434 10.5168 18.021 7.82381 20.4723C3.62637 24.2928 3.60379 34.0301 -1.80688 34.7512C-6.71665 35.4054 -9.63257 27.9019 -11.9709 23.1099C-13.9211 19.1134 -10.9337 12.9098 -13.9659 9.83405C-17.6681 6.07859 -24.8265 10.0027 -28.5589 6.28349C-31.7013 3.1521 -33.0746 -3.12355 -31.1205 -7.26003C-28.8923 -11.977 -21.6319 -10.7768 -18.5604 -14.8813C-16.0245 -18.2699 -17.8756 -23.7501 -15.9183 -27.5743C-13.6091 -32.0863 -10.9192 -37.5479 -6.34014 -38.7586C-1.84817 -39.9461 3.2307 -37.0823 6.5112 -33.5043Z" fill="#1C1C1B"/>
<path fill-rule="evenodd" clip-rule="evenodd" d="M88.6687 66.9901C85.5806 70.8121 80.337 71.1294 76.0867 73.1961C73.6203 74.3955 70.3994 74.3425 68.7391 76.6814C65.8355 80.7719 67.6059 88.4401 63.4804 90.9552C60.1657 92.9757 56.6089 87.7797 53.0968 86.217C49.8555 84.775 45.9026 84.7737 43.4424 82.0397C40.9836 79.307 42.116 74.2015 39.7439 71.3774C36.0467 66.9755 27.2065 67.4821 26.2568 61.5786C25.395 56.2216 32.047 52.6094 36.2692 49.7795C39.7907 47.4194 45.5849 50.3621 48.2113 46.8639C51.4183 42.5926 47.4657 34.9443 50.6381 30.6417C53.309 27.0194 58.9307 25.1685 62.7922 27.089C67.1955 29.2792 66.5022 37.319 70.3958 40.4686C73.61 43.069 78.4836 40.737 82.0617 42.6781C86.2834 44.9681 91.388 47.6245 92.7368 52.5879C94.0599 57.457 91.7376 63.1917 88.6687 66.9901Z" fill="#1C1C1B"/>
</g>
</g>
</g>
<defs>
<filter id="filter0_d_765_3238" x="0" y="0" width="66.6777" height="66.5454" filterUnits="userSpaceOnUse" color-interpolation-filters="sRGB">
<feFlood flood-opacity="0" result="BackgroundImageFix"/>
<feColorMatrix in="SourceAlpha" type="matrix" values="0 0 0 0 0 0 0 0 0 0 0 0 0 0 0 0 0 0 127 0" result="hardAlpha"/>
<feOffset dx="4" dy="4"/>
<feGaussianBlur stdDeviation="2"/>
<feComposite in2="hardAlpha" operator="out"/>
<feColorMatrix type="matrix" values="0 0 0 0 0 0 0 0 0 0 0 0 0 0 0 0 0 0 0.25 0"/>
<feBlend mode="normal" in2="BackgroundImageFix" result="effect1_dropShadow_765_3238"/>
<feBlend mode="normal" in="SourceGraphic" in2="effect1_dropShadow_765_3238" result="shape"/>
</filter>
<clipPath id="clip0_765_3238">
<rect width="60" height="60" fill="white"/>
</clipPath>
</defs>
</svg>
