<svg width="122" height="22" viewBox="0 0 122 22" fill="none" xmlns="http://www.w3.org/2000/svg">
<path d="M10.1737 2.08049C10.4355 1.46458 10.5664 1.15663 10.7487 1.06179C10.9071 0.979402 11.093 0.979402 11.2513 1.06179C11.4336 1.15663 11.5646 1.46458 11.8264 2.08049L13.9117 6.9863C13.9892 7.16838 14.0279 7.25941 14.0878 7.32913C14.1407 7.39082 14.2055 7.44016 14.2778 7.47394C14.3596 7.51212 14.4541 7.52258 14.6432 7.5435L19.7371 8.10727C20.3766 8.17804 20.6963 8.21342 20.8387 8.36591C20.9623 8.49836 21.0197 8.68383 20.9939 8.86721C20.9643 9.07829 20.7255 9.30396 20.2478 9.75542L16.4427 13.3512C16.3015 13.4846 16.2308 13.5513 16.1862 13.6326C16.1466 13.7046 16.1218 13.7844 16.1136 13.8669C16.1042 13.9602 16.1239 14.0577 16.1633 14.2528L17.2261 19.507C17.3596 20.1666 17.4263 20.4964 17.332 20.6855C17.25 20.8498 17.0996 20.9644 16.9253 20.9953C16.7247 21.0309 16.4462 20.8625 15.8891 20.5256L11.452 17.842C11.2874 17.7424 11.205 17.6927 11.1175 17.6731C11.04 17.656 10.96 17.656 10.8825 17.6731C10.795 17.6927 10.7127 17.7424 10.548 17.842L6.11095 20.5256C5.5539 20.8625 5.27537 21.0309 5.07474 20.9953C4.90046 20.9644 4.75 20.8498 4.66808 20.6855C4.57378 20.4964 4.64049 20.1666 4.77392 19.507L5.83669 14.2528C5.87613 14.0577 5.89586 13.9602 5.88649 13.8669C5.8782 13.7844 5.85347 13.7046 5.81389 13.6326C5.76916 13.5513 5.69855 13.4846 5.55734 13.3512L1.75231 9.75542C1.27461 9.30396 1.03575 9.07829 1.00605 8.86721C0.98027 8.68383 1.03773 8.49836 1.16138 8.36591C1.30374 8.21342 1.6235 8.17804 2.26302 8.10727L7.35689 7.5435C7.54596 7.52258 7.64048 7.51212 7.72222 7.47394C7.79454 7.44016 7.85929 7.39082 7.91229 7.32913C7.97217 7.25941 8.01087 7.16838 8.08828 6.9863L10.1737 2.08049Z" fill="#F9D949" stroke="black" stroke-linecap="round" stroke-linejoin="round"/>
<path d="M35.1737 2.08049C35.4355 1.46458 35.5664 1.15663 35.7487 1.06179C35.9071 0.979402 36.093 0.979402 36.2513 1.06179C36.4336 1.15663 36.5646 1.46458 36.8264 2.08049L38.9117 6.9863C38.9892 7.16838 39.0279 7.25941 39.0878 7.32913C39.1407 7.39082 39.2055 7.44016 39.2778 7.47394C39.3596 7.51212 39.4541 7.52258 39.6432 7.5435L44.7371 8.10727C45.3766 8.17804 45.6963 8.21342 45.8387 8.36591C45.9623 8.49836 46.0197 8.68383 45.9939 8.86721C45.9643 9.07829 45.7255 9.30396 45.2478 9.75542L41.4427 13.3512C41.3015 13.4846 41.2308 13.5513 41.1862 13.6326C41.1466 13.7046 41.1218 13.7844 41.1136 13.8669C41.1042 13.9602 41.1239 14.0577 41.1633 14.2528L42.2261 19.507C42.3596 20.1666 42.4263 20.4964 42.332 20.6855C42.25 20.8498 42.0996 20.9644 41.9253 20.9953C41.7247 21.0309 41.4462 20.8625 40.8891 20.5256L36.452 17.842C36.2874 17.7424 36.205 17.6927 36.1175 17.6731C36.04 17.656 35.96 17.656 35.8825 17.6731C35.795 17.6927 35.7127 17.7424 35.548 17.842L31.111 20.5256C30.5539 20.8625 30.2754 21.0309 30.0747 20.9953C29.9005 20.9644 29.75 20.8498 29.6681 20.6855C29.5738 20.4964 29.6405 20.1666 29.7739 19.507L30.8367 14.2528C30.8761 14.0577 30.8959 13.9602 30.8865 13.8669C30.8782 13.7844 30.8535 13.7046 30.8139 13.6326C30.7692 13.5513 30.6986 13.4846 30.5573 13.3512L26.7523 9.75542C26.2746 9.30396 26.0358 9.07829 26.0061 8.86721C25.9803 8.68383 26.0377 8.49836 26.1614 8.36591C26.3037 8.21342 26.6235 8.17804 27.263 8.10727L32.3569 7.5435C32.546 7.52258 32.6405 7.51212 32.7222 7.47394C32.7945 7.44016 32.8593 7.39082 32.9123 7.32913C32.9722 7.25941 33.0109 7.16838 33.0883 6.9863L35.1737 2.08049Z" fill="#F9D949" stroke="black" stroke-linecap="round" stroke-linejoin="round"/>
<path d="M60.1737 2.08049C60.4355 1.46458 60.5664 1.15663 60.7487 1.06179C60.9071 0.979402 61.093 0.979402 61.2513 1.06179C61.4336 1.15663 61.5646 1.46458 61.8264 2.08049L63.9117 6.9863C63.9892 7.16838 64.0279 7.25941 64.0878 7.32913C64.1407 7.39082 64.2055 7.44016 64.2778 7.47394C64.3596 7.51212 64.4541 7.52258 64.6432 7.5435L69.7371 8.10727C70.3766 8.17804 70.6963 8.21342 70.8387 8.36591C70.9623 8.49836 71.0197 8.68383 70.9939 8.86721C70.9643 9.07829 70.7255 9.30396 70.2478 9.75542L66.4427 13.3512C66.3015 13.4846 66.2308 13.5513 66.1862 13.6326C66.1466 13.7046 66.1218 13.7844 66.1136 13.8669C66.1042 13.9602 66.1239 14.0577 66.1633 14.2528L67.2261 19.507C67.3596 20.1666 67.4263 20.4964 67.332 20.6855C67.25 20.8498 67.0996 20.9644 66.9253 20.9953C66.7247 21.0309 66.4462 20.8625 65.8891 20.5256L61.452 17.842C61.2874 17.7424 61.205 17.6927 61.1175 17.6731C61.04 17.656 60.96 17.656 60.8825 17.6731C60.795 17.6927 60.7127 17.7424 60.548 17.842L56.111 20.5256C55.5539 20.8625 55.2754 21.0309 55.0747 20.9953C54.9005 20.9644 54.75 20.8498 54.6681 20.6855C54.5738 20.4964 54.6405 20.1666 54.7739 19.507L55.8367 14.2528C55.8761 14.0577 55.8959 13.9602 55.8865 13.8669C55.8782 13.7844 55.8535 13.7046 55.8139 13.6326C55.7692 13.5513 55.6986 13.4846 55.5573 13.3512L51.7523 9.75542C51.2746 9.30396 51.0358 9.07829 51.0061 8.86721C50.9803 8.68383 51.0377 8.49836 51.1614 8.36591C51.3037 8.21342 51.6235 8.17804 52.263 8.10727L57.3569 7.5435C57.546 7.52258 57.6405 7.51212 57.7222 7.47394C57.7945 7.44016 57.8593 7.39082 57.9123 7.32913C57.9722 7.25941 58.0109 7.16838 58.0883 6.9863L60.1737 2.08049Z" fill="#F9D949" stroke="black" stroke-linecap="round" stroke-linejoin="round"/>
<path d="M85.1737 2.08049C85.4355 1.46458 85.5664 1.15663 85.7487 1.06179C85.9071 0.979402 86.093 0.979402 86.2513 1.06179C86.4336 1.15663 86.5646 1.46458 86.8264 2.08049L88.9117 6.9863C88.9892 7.16838 89.0279 7.25941 89.0878 7.32913C89.1407 7.39082 89.2055 7.44016 89.2778 7.47394C89.3596 7.51212 89.4541 7.52258 89.6432 7.5435L94.7371 8.10727C95.3766 8.17804 95.6963 8.21342 95.8387 8.36591C95.9623 8.49836 96.0197 8.68383 95.9939 8.86721C95.9643 9.07829 95.7255 9.30396 95.2478 9.75542L91.4427 13.3512C91.3015 13.4846 91.2308 13.5513 91.1862 13.6326C91.1466 13.7046 91.1218 13.7844 91.1136 13.8669C91.1042 13.9602 91.1239 14.0577 91.1633 14.2528L92.2261 19.507C92.3596 20.1666 92.4263 20.4964 92.332 20.6855C92.25 20.8498 92.0996 20.9644 91.9253 20.9953C91.7247 21.0309 91.4462 20.8625 90.8891 20.5256L86.452 17.842C86.2874 17.7424 86.205 17.6927 86.1175 17.6731C86.04 17.656 85.96 17.656 85.8825 17.6731C85.795 17.6927 85.7127 17.7424 85.548 17.842L81.111 20.5256C80.5539 20.8625 80.2754 21.0309 80.0747 20.9953C79.9005 20.9644 79.75 20.8498 79.6681 20.6855C79.5738 20.4964 79.6405 20.1666 79.7739 19.507L80.8367 14.2528C80.8761 14.0577 80.8959 13.9602 80.8865 13.8669C80.8782 13.7844 80.8535 13.7046 80.8139 13.6326C80.7692 13.5513 80.6986 13.4846 80.5573 13.3512L76.7523 9.75542C76.2746 9.30396 76.0358 9.07829 76.0061 8.86721C75.9803 8.68383 76.0377 8.49836 76.1614 8.36591C76.3037 8.21342 76.6235 8.17804 77.263 8.10727L82.3569 7.5435C82.546 7.52258 82.6405 7.51212 82.7222 7.47394C82.7945 7.44016 82.8593 7.39082 82.9123 7.32913C82.9722 7.25941 83.0109 7.16838 83.0883 6.9863L85.1737 2.08049Z" fill="#F9D949" stroke="black" stroke-linecap="round" stroke-linejoin="round"/>
<path d="M110.174 2.08049C110.435 1.46458 110.566 1.15663 110.749 1.06179C110.907 0.979402 111.093 0.979402 111.251 1.06179C111.434 1.15663 111.565 1.46458 111.826 2.08049L113.912 6.9863C113.989 7.16838 114.028 7.25941 114.088 7.32913C114.141 7.39082 114.206 7.44016 114.278 7.47394C114.36 7.51212 114.454 7.52258 114.643 7.5435L119.737 8.10727C120.377 8.17804 120.696 8.21342 120.839 8.36591C120.962 8.49836 121.02 8.68383 120.994 8.86721C120.964 9.07829 120.725 9.30396 120.248 9.75542L116.443 13.3512C116.302 13.4846 116.231 13.5513 116.186 13.6326C116.147 13.7046 116.122 13.7844 116.114 13.8669C116.104 13.9602 116.124 14.0577 116.163 14.2528L117.226 19.507C117.36 20.1666 117.426 20.4964 117.332 20.6855C117.25 20.8498 117.1 20.9644 116.925 20.9953C116.725 21.0309 116.446 20.8625 115.889 20.5256L111.452 17.842C111.287 17.7424 111.205 17.6927 111.118 17.6731C111.04 17.656 110.96 17.656 110.883 17.6731C110.795 17.6927 110.713 17.7424 110.548 17.842L106.111 20.5256C105.554 20.8625 105.275 21.0309 105.075 20.9953C104.9 20.9644 104.75 20.8498 104.668 20.6855C104.574 20.4964 104.64 20.1666 104.774 19.507L105.837 14.2528C105.876 14.0577 105.896 13.9602 105.886 13.8669C105.878 13.7844 105.853 13.7046 105.814 13.6326C105.769 13.5513 105.699 13.4846 105.557 13.3512L101.752 9.75542C101.275 9.30396 101.036 9.07829 101.006 8.86721C100.98 8.68383 101.038 8.49836 101.161 8.36591C101.304 8.21342 101.623 8.17804 102.263 8.10727L107.357 7.5435C107.546 7.52258 107.64 7.51212 107.722 7.47394C107.795 7.44016 107.859 7.39082 107.912 7.32913C107.972 7.25941 108.011 7.16838 108.088 6.9863L110.174 2.08049Z" fill="#F9D949" stroke="black" stroke-linecap="round" stroke-linejoin="round"/>
</svg>
