<svg width="53" height="53" viewBox="0 0 53 53" fill="none" xmlns="http://www.w3.org/2000/svg">
<circle cx="26.5" cy="26.5" r="26" stroke="#FF9500" stroke-opacity="0.5"/>
<path fill-rule="evenodd" clip-rule="evenodd" d="M26.4886 15.0494C22.4412 15.0494 19.1602 18.3304 19.1602 22.3778C19.1602 26.4251 22.4412 29.7062 26.4886 29.7062C30.5358 29.7062 33.8169 26.4251 33.8169 22.3778C33.8169 18.3304 30.5358 15.0494 26.4886 15.0494ZM26.4886 18.7136C24.4648 18.7136 22.8244 20.3541 22.8244 22.3778C22.8244 24.4015 24.4648 26.042 26.4886 26.042C28.5123 26.042 30.1527 24.4015 30.1527 22.3778C30.1527 20.3541 28.5123 18.7136 26.4886 18.7136Z" fill="#FF9500" fill-opacity="0.5"/>
<path fill-rule="evenodd" clip-rule="evenodd" d="M24.8219 45.4546C25.034 45.6002 25.2029 45.7125 25.3211 45.7898L25.5155 45.9151C26.1102 46.2874 26.8665 46.2882 27.4612 45.9159L27.6569 45.7898C27.7748 45.7125 27.9438 45.6002 28.1559 45.4546C28.5802 45.1631 29.1793 44.7369 29.8949 44.1873C31.3231 43.0904 33.2312 41.4906 35.145 39.4779C38.921 35.5068 42.9778 29.6558 42.9778 22.7109C42.9778 18.2626 41.2503 13.9883 38.1628 10.8306C35.0739 7.67147 30.8755 5.88892 26.4889 5.88892C22.1023 5.88892 17.9039 7.67147 14.815 10.8306C11.7274 13.9883 10 18.2626 10 22.7109C10 29.6558 14.0569 35.5068 17.8328 39.4779C19.7466 41.4906 21.6546 43.0904 23.0828 44.1873C23.7985 44.7369 24.3975 45.1631 24.8219 45.4546ZM26.4889 9.55311C23.101 9.55311 19.8434 10.9291 17.4349 13.3923C15.0251 15.8569 13.6642 19.2081 13.6642 22.7109C13.6642 28.2418 16.9357 33.2169 20.4882 36.9529C22.2385 38.7938 23.9947 40.2675 25.3147 41.2812C25.7645 41.6268 26.1619 41.9173 26.4889 42.1495C26.8159 41.9173 27.2133 41.6268 27.6631 41.2812C28.9831 40.2675 30.7392 38.7938 32.4896 36.9529C36.042 33.2169 39.3136 28.2418 39.3136 22.7109C39.3136 19.2081 37.9527 15.8569 35.5428 13.3923C33.1345 10.9291 29.8768 9.55311 26.4889 9.55311Z" fill="#FF9500" fill-opacity="0.5"/>
</svg>
