<svg width="839" height="935" viewBox="0 0 839 935" fill="none" xmlns="http://www.w3.org/2000/svg">
<path d="M0 30.4749C0 13.9063 13.4315 0.474854 30 0.474854H837.623V934.016H30C13.4315 934.016 0 920.584 0 904.016V30.4749Z" fill="#FF9500"/>
<path d="M490.987 930.199C348.053 779.697 106.006 778.494 2.849 796.705V884.117C4.27353 924.519 33.9698 930.674 45.5019 930.199H490.987Z" fill="#FFCC70"/>
<path d="M835.248 748.352V919.296C807.708 910.748 719.862 886.532 616.346 865.638C512.83 844.745 466.296 822.428 442.553 814.355C334.686 767.21 260.37 715.871 213.182 679.612C202.006 671.949 191.535 663.693 181.865 654.808C190.558 661.841 200.96 670.221 213.182 679.612C371.03 787.837 669.399 777.62 835.248 748.352Z" fill="#E9B824"/>
<path d="M515.679 153.849C394.119 176.642 283.006 60.7799 242.645 0H838.572V379.399C764.117 386.997 734.107 330.649 728.409 301.525C708.149 242.803 637.239 131.057 515.679 153.849Z" fill="#E9B824"/>
<circle cx="627.937" cy="189.937" r="85" transform="rotate(-36.6614 627.937 189.937)" fill="url(#paint0_linear_816_35)"/>
<circle cx="540.5" cy="156.5" r="33.5" fill="url(#paint1_linear_816_35)"/>
<defs>
<linearGradient id="paint0_linear_816_35" x1="627.937" y1="104.937" x2="627.937" y2="274.937" gradientUnits="userSpaceOnUse">
<stop stop-color="#FFB000"/>
<stop offset="1" stop-color="#F4E869"/>
<stop offset="1" stop-color="#0E1639"/>
</linearGradient>
<linearGradient id="paint1_linear_816_35" x1="540.5" y1="123" x2="540.5" y2="190" gradientUnits="userSpaceOnUse">
<stop stop-color="#FFCC70"/>
<stop offset="1" stop-color="#FF9500"/>
</linearGradient>
</defs>
</svg>
