<svg width="53" height="53" viewBox="0 0 53 53" fill="none" xmlns="http://www.w3.org/2000/svg">
<circle cx="26.5" cy="26.5" r="26" stroke="#FF9500" stroke-opacity="0.5"/>
<path d="M20.2996 24.3997C22.0117 24.3997 23.3996 23.0119 23.3996 21.2998C23.3996 19.5877 22.0117 18.1998 20.2996 18.1998C18.5876 18.1998 17.1997 19.5877 17.1997 21.2998C17.1997 23.0119 18.5876 24.3997 20.2996 24.3997Z" stroke="#FF9500" stroke-opacity="0.5" stroke-width="3" stroke-linecap="round" stroke-linejoin="round"/>
<path d="M18.0688 39.8993C26.7021 21.1447 33.8784 17.8588 42.0002 30.0261" stroke="#FF9500" stroke-opacity="0.5" stroke-width="3" stroke-linecap="round" stroke-linejoin="round"/>
<path d="M35.7994 12H17.1998C13.7758 12 11 14.7758 11 18.1998V33.6995C11 37.1235 13.7758 39.8993 17.1998 39.8993H35.7994C39.2234 39.8993 41.9992 37.1235 41.9992 33.6995V18.1998C41.9992 14.7758 39.2234 12 35.7994 12Z" stroke="#FF9500" stroke-opacity="0.5" stroke-width="3" stroke-linecap="round" stroke-linejoin="round"/>
</svg>
