<svg width="53" height="53" viewBox="0 0 53 53" fill="none" xmlns="http://www.w3.org/2000/svg">
<circle cx="26.5" cy="26.5" r="26" stroke="#FF9500" stroke-opacity="0.4"/>
<path d="M27.0891 25.9112C30.2114 25.9112 32.7425 23.3801 32.7425 20.2578C32.7425 17.1356 30.2114 14.6045 27.0891 14.6045C23.9669 14.6045 21.4358 17.1356 21.4358 20.2578C21.4358 23.3801 23.9669 25.9112 27.0891 25.9112Z" stroke="#FF9500" stroke-width="3"/>
<path d="M26.5 47.1111C37.8832 47.1111 47.1111 37.8832 47.1111 26.5C47.1111 15.1168 37.8832 5.88892 26.5 5.88892C15.1168 5.88892 5.88892 15.1168 5.88892 26.5C5.88892 37.8832 15.1168 47.1111 26.5 47.1111Z" stroke="#FF9500" stroke-width="3"/>
<path d="M38.3375 40.9867C38.0377 35.5379 36.3694 31.5645 27.0888 31.5645C17.8085 31.5645 16.1402 35.5379 15.8403 40.9867" stroke="#FF9500" stroke-width="3" stroke-linecap="round"/>
</svg>
