<svg width="50" height="50" viewBox="0 0 50 50" fill="none" xmlns="http://www.w3.org/2000/svg">
<rect x="0.1" y="0.1" width="49.8" height="49.8" rx="9.9" fill="white" stroke="black" stroke-width="0.2"/>
<path d="M41.5547 16.4641C41.4122 16.0736 41.0715 15.8368 40.67 15.9258C40.5215 15.9216 39.3692 15.805 38.448 13.2835C38.0323 12.1448 37.1979 11.2364 36.0987 10.7254C35.2386 10.3257 34.297 10.208 33.3822 10.3744C32.4743 8.6955 30.6183 7.74283 28.706 8.06078C27.3876 8.27999 26.2148 9.10111 25.4036 10.3727C24.7473 11.4015 24.3272 12.6956 24.1456 14.2319C23.3462 13.1182 22.2516 12.3992 21.0316 12.1962C19.1198 11.878 17.2626 12.831 16.3541 14.5105C14.2236 14.1265 12.0557 15.3181 11.2884 17.4191C10.368 19.9404 9.21583 20.057 9.06728 20.0612C8.66565 19.9722 8.32545 20.2088 8.18288 20.599C7.61371 22.1562 8.41763 23.8865 9.97632 24.4566C10.2615 24.5603 10.5561 24.62 10.8527 24.6354C11.0993 25.5697 11.7903 26.3593 12.7296 26.7027C13.6686 27.0456 14.7056 26.887 15.4963 26.3315C15.7332 26.511 15.9972 26.6553 16.2827 26.7597C16.6219 26.8835 16.9689 26.9422 17.3106 26.9422C18.538 26.9421 19.6936 26.1847 20.1387 24.9665C20.2742 24.596 20.1292 24.1816 19.7924 23.9763C19.7823 23.9702 18.8416 23.1938 19.8138 20.5324C20.2297 19.3939 20.1773 18.1617 19.6663 17.0626C19.2842 16.2408 18.6798 15.5671 17.9232 15.1056C18.5319 14.1611 19.632 13.6402 20.7602 13.8279C22.3465 14.0918 24.0415 15.9062 24.0415 20.2071V31.166H18.8747C18.6172 31.166 18.3745 31.2859 18.218 31.4904C18.0614 31.6948 18.0091 31.9604 18.0762 32.2089L18.696 34.5017H17.4687C17.0119 34.5017 16.6416 34.872 16.6416 35.3288C16.6416 35.7856 17.0119 36.1559 17.4687 36.1559H19.1431L20.5576 41.3888C20.6551 41.7495 20.9823 42.0001 21.356 42.0001H28.3812C28.7549 42.0001 29.0822 41.7495 29.1796 41.3888L30.5941 36.1559H32.2685C32.7253 36.1559 33.0956 35.7856 33.0956 35.3288C33.0956 34.872 32.7253 34.5017 32.2685 34.5017H31.0412L31.6609 32.209C31.7281 31.9604 31.6757 31.6948 31.5191 31.4904C31.3626 31.286 31.1198 31.1661 30.8624 31.1661H25.6956V20.2072C25.6956 20.2049 25.6956 20.2028 25.6956 20.2005V16.0718C25.6956 11.7707 27.3908 9.95629 28.9771 9.69259C30.105 9.50526 31.2048 10.026 31.8135 10.9704C31.057 11.4319 30.4526 12.1055 30.0705 12.9272C29.5594 14.0265 29.5069 15.2586 29.9227 16.397C30.8438 18.9188 30.0382 19.7505 29.9273 19.8495C29.5627 20.0403 29.455 20.4408 29.5977 20.8312C30.0429 22.0492 31.1984 22.8066 32.4267 22.8065C32.7686 22.8065 33.1161 22.7478 33.4556 22.624C33.7403 22.5196 34.0041 22.3753 34.2407 22.1958C35.0314 22.7514 36.0687 22.9098 37.0083 22.567C37.9475 22.2234 38.638 21.434 38.8844 20.5C39.1812 20.4846 39.4761 20.4248 39.7617 20.3207C41.3183 19.7513 42.1228 18.0213 41.5547 16.4641ZM18.1664 17.76C18.4911 18.4585 18.5243 19.2414 18.26 19.9649C17.2859 22.6319 17.8164 24.0975 18.3408 24.816C17.9838 25.2309 17.3937 25.4043 16.8505 25.2061C16.5842 25.1086 16.3594 24.9342 16.2003 24.702C16.0488 24.4807 15.7997 24.3465 15.5316 24.342C15.527 24.342 15.5223 24.342 15.5177 24.342C15.2548 24.342 15.0073 24.467 14.8513 24.6793C14.4975 25.1607 13.8584 25.3539 13.2974 25.149C12.7358 24.9437 12.3713 24.3842 12.4112 23.7883C12.429 23.521 12.3162 23.2615 12.1086 23.0922C11.901 22.9228 11.6241 22.8645 11.3659 22.9359C11.0937 23.011 10.8089 22.9993 10.5434 22.9026C9.99962 22.7038 9.65996 22.1906 9.65451 21.6432C10.5185 21.4319 11.8688 20.6534 12.8425 17.9865C13.3878 16.493 15.0468 15.7217 16.541 16.2673C17.2645 16.5315 17.8418 17.0616 18.1664 17.76ZM29.7823 32.8203L27.7481 40.346H21.9893L20.8567 36.1559H25.1376C25.5943 36.1559 25.9646 35.7856 25.9646 35.3288C25.9646 34.872 25.5943 34.5017 25.1376 34.5017H20.4096L19.9551 32.8203H29.7823V32.8203ZM39.1943 18.7669C38.9277 18.8641 38.643 18.8755 38.3709 18.8005C38.1124 18.729 37.8355 18.7876 37.628 18.957C37.4202 19.1265 37.3077 19.3861 37.3257 19.6536C37.3659 20.2489 37.0017 20.8082 36.4409 21.0134C35.8792 21.2183 35.24 21.0252 34.8863 20.544C34.7304 20.3317 34.4828 20.2066 34.2198 20.2066C34.2154 20.2066 34.2111 20.2066 34.2066 20.2067C33.9388 20.211 33.6896 20.3448 33.538 20.5656C33.3779 20.7987 33.1527 20.9734 32.8877 21.0705C32.344 21.2689 31.7531 21.0956 31.3961 20.6807C31.9204 19.9622 32.4509 18.4966 31.4767 15.8296C31.2125 15.1063 31.2459 14.3234 31.5707 13.6249C31.8955 12.9264 32.4727 12.3963 33.196 12.1321C33.9197 11.8679 34.7031 11.901 35.4016 12.2257C36.1001 12.5504 36.6302 13.1277 36.8945 13.8513L36.8945 13.8514C37.8686 16.5177 39.2189 17.2964 40.0828 17.5078C40.0769 18.0551 39.7373 18.5683 39.1943 18.7669Z" fill="black"/>
</svg>
