<svg width="50" height="50" viewBox="0 0 50 50" fill="none" xmlns="http://www.w3.org/2000/svg">
<rect x="0.1" y="0.1" width="49.8" height="49.8" rx="9.9" fill="white" stroke="black" stroke-width="0.2"/>
<path d="M27.363 24.2441C27.2206 23.8203 27.1484 23.3769 27.1484 22.9262C27.1484 20.5886 29.103 18.6869 31.5055 18.6869C33.9081 18.6869 35.8627 20.5886 35.8627 22.9262C35.8627 25.2639 33.9081 27.1657 31.5055 27.1657C29.869 27.1657 28.385 26.2863 27.6326 24.8707L26.8623 25.2584C27.7643 26.9553 29.5435 28.0094 31.5055 28.0094C34.3863 28.0094 36.7298 25.7291 36.7298 22.9262C36.7298 20.1234 34.3863 17.8431 31.5055 17.8431C28.6249 17.8431 26.2812 20.1234 26.2812 22.9262C26.2812 23.4661 26.3678 23.9976 26.5387 24.5062L27.363 24.2441Z" fill="black"/>
<path d="M31.5049 26.8266C33.7153 26.8266 35.5136 25.077 35.5136 22.9263C35.5136 20.7756 33.7153 19.0259 31.5049 19.0259C29.2944 19.0259 27.4961 20.7756 27.4961 22.9263C27.4961 25.077 29.2944 26.8266 31.5049 26.8266ZM31.5049 19.8697C33.1654 19.8697 34.5282 21.1299 34.6383 22.7188H33.4505V23.5626H34.5774C34.2756 24.9437 33.0128 25.9829 31.5048 25.9829C29.9968 25.9829 28.734 24.9437 28.4322 23.5626H32.6976V22.7188H28.3713C28.4816 21.1299 29.8444 19.8697 31.5049 19.8697Z" fill="black"/>
<path d="M9.26863 31.3082H10.6162V32.1171H11.4834V31.3082V30.7221H20.4719V32.0931H22.1682H23.0354H32.9536C37.547 32.0931 41.2839 28.4572 41.2839 23.988C41.2839 19.5188 37.5469 15.8828 32.9536 15.8828H27.8562L27.0791 16.6427L27.0175 16.5839C26.4494 16.0405 25.5297 16.0449 24.9673 16.594L23.2494 18.2709C22.9737 18.5399 22.8231 18.8973 22.8249 19.2772C22.8269 19.657 22.9813 20.013 23.2597 20.2793L23.3104 20.3278L22.1681 21.4448V27.4789L20.4718 28.495V29.8784H11.4834V29.7186H19.443V28.8748H11.4834V28.2886H9.26863C8.41293 28.2886 7.7168 28.9659 7.7168 29.7986C7.7168 30.6309 8.41293 31.3082 9.26863 31.3082ZM23.9218 19.7293L23.8677 19.6776C23.7553 19.5701 23.693 19.4264 23.6921 19.2729C23.6913 19.1194 23.7522 18.9752 23.8635 18.8665L25.5815 17.1896C25.6958 17.0779 25.8467 17.022 25.9976 17.022C26.1466 17.022 26.2956 17.0764 26.4095 17.1855L26.4673 17.2408L25.7417 17.9504L23.9218 19.7293ZM23.0354 21.7929L26.4219 18.4815L27.6975 17.2345L27.6974 17.2343L28.2167 16.7265H31.5052C33.8748 16.7265 36.0286 17.9973 37.1261 20.043L37.8948 19.6525C37.3885 18.7087 36.6843 17.9101 35.8463 17.2943C38.529 18.3959 40.4167 20.9814 40.4167 23.9879C40.4167 27.9919 37.0688 31.2493 32.9536 31.2493H25.0172V29.9002H32.0141C35.7054 29.9002 38.7086 26.9783 38.7086 23.3866V22.8914C38.7086 22.0108 38.5428 21.152 38.2157 20.3387L37.4082 20.6461C37.6957 21.361 37.8414 22.1164 37.8414 22.8914V23.3866C37.8414 26.513 35.2272 29.0565 32.0141 29.0565H24.15V31.2493H23.0353V26.9592L23.0354 21.7929ZM21.339 28.9663L22.1681 28.4697V31.2495H21.339V28.9663ZM9.26863 29.1322H10.6162V29.3766H9.71834V30.2203H10.6162V30.2325V30.4645H9.26863C8.89111 30.4645 8.58398 30.1657 8.58398 29.7984C8.58398 29.431 8.89111 29.1322 9.26863 29.1322Z" fill="black"/>
<path d="M26.7183 27.7629H24.1719V28.6067H26.7183V27.7629Z" fill="black"/>
</svg>
