<svg width="25" height="25" viewBox="0 0 25 25" fill="none" xmlns="http://www.w3.org/2000/svg">
<path d="M9.92435 3.72748L10.7762 5.25383C11.5449 6.63127 11.2363 8.43825 10.0255 9.64901C10.0255 9.64901 8.55709 11.1177 11.2197 13.7804C13.8814 16.4421 15.351 14.9745 15.351 14.9745C16.5618 13.7637 18.3687 13.4551 19.7462 14.2239L21.2725 15.0757C23.3525 16.2365 23.5981 19.1534 21.7699 20.9817C20.6714 22.0802 19.3255 22.9351 17.8378 22.9914C15.3334 23.0864 11.0803 22.4526 6.81386 18.1862C2.54749 13.9198 1.91365 9.66662 2.0086 7.16219C2.065 5.67448 2.9198 4.32868 4.01838 3.23012C5.84662 1.40187 8.76353 1.64751 9.92435 3.72748Z" stroke="#888888" stroke-width="3" stroke-linecap="round"/>
</svg>
