<svg width="390" height="390" viewBox="0 0 390 390" fill="none" xmlns="http://www.w3.org/2000/svg">
<path d="M371.202 359.112C371.202 359.19 292.344 359.346 195 359.346C97.656 359.346 18.798 359.268 18.798 359.112C18.798 358.956 97.656 358.878 195 358.878C292.266 358.956 371.202 359.034 371.202 359.112Z" fill="#263238"/>
<path d="M168.168 104.832L160.758 106.158C158.106 109.122 154.596 111.462 150.54 112.71C138.762 116.298 126.282 109.59 122.694 97.734C119.106 85.878 125.814 73.398 137.592 69.888C149.37 66.3 161.85 73.008 165.438 84.864C166.92 89.778 166.608 94.848 164.892 99.294L168.168 104.832Z" fill="white"/>
<path d="M168.168 104.832C168.168 104.832 168.09 104.676 167.934 104.442C167.778 104.208 167.544 103.818 167.31 103.35C166.764 102.414 165.906 101.01 164.892 99.294H165.048C165.048 99.294 164.97 99.372 164.97 99.294C164.97 99.294 164.892 99.216 164.97 99.216C165.984 96.564 166.764 92.898 166.218 88.452C166.062 87.36 165.828 86.19 165.516 85.098C165.126 84.006 164.736 82.758 164.19 81.666C163.098 79.404 161.46 77.064 159.432 75.114C157.326 73.164 154.752 71.526 151.788 70.434C148.824 69.342 145.548 68.874 142.194 69.186C138.84 69.498 135.486 70.59 132.522 72.462C129.48 74.334 126.906 76.986 125.112 80.184C121.446 86.424 121.29 94.068 124.02 100.074C125.346 103.116 127.296 105.69 129.558 107.718C131.82 109.746 134.472 111.228 137.124 112.164C142.428 114.036 147.81 113.646 151.944 112.086C156.078 110.604 159.042 108.108 160.992 106.002C160.992 106.002 160.992 106.002 161.07 106.002C163.488 105.612 165.282 105.3 166.53 105.066C167.154 104.988 167.622 104.91 167.934 104.832C168.012 104.832 168.168 104.832 168.168 104.832C168.168 104.832 168.012 104.832 167.7 104.91C167.388 104.988 166.92 105.066 166.296 105.144C165.048 105.378 163.176 105.69 160.758 106.158H160.836C158.964 108.342 155.922 110.838 151.788 112.398C147.654 113.958 142.194 114.426 136.734 112.554C134.004 111.618 131.352 110.136 129.09 108.03C126.75 105.924 124.8 103.35 123.474 100.23C120.744 94.146 120.9 86.346 124.566 79.95L125.268 78.78C125.502 78.39 125.814 78 126.126 77.688C126.672 76.908 127.296 76.284 127.92 75.582C128.232 75.27 128.622 74.958 128.934 74.646C129.246 74.334 129.558 74.022 129.948 73.71C130.65 73.164 131.352 72.54 132.132 72.15C135.174 70.278 138.606 69.108 142.038 68.796C145.47 68.484 148.824 69.03 151.788 70.122C154.752 71.214 157.404 72.93 159.51 74.88C161.616 76.908 163.254 79.17 164.346 81.51C164.97 82.68 165.282 83.85 165.672 85.02C165.984 86.19 166.218 87.36 166.374 88.452C166.92 92.898 166.062 96.72 165.048 99.294L164.892 99.216C164.892 99.216 164.97 99.138 164.97 99.216C165.984 101.01 166.764 102.414 167.31 103.428C167.544 103.896 167.778 104.208 167.934 104.52C168.09 104.676 168.168 104.832 168.168 104.832Z" fill="#263238"/>
<path d="M143.754 100.464L132.834 93.132L135.408 89.31L142.74 94.224L151.866 82.056L155.532 84.864L143.754 100.464Z" fill="#FF725E"/>
<path d="M331.578 199.134C331.188 199.29 330.876 199.368 330.564 199.524C330.018 199.758 329.55 199.992 329.16 200.382L326.43 202.644C325.494 203.424 324.87 204.516 324.636 205.686C323.154 214.032 322.53 222.534 322.608 230.958C322.608 231.972 322.686 233.142 323.544 233.844C324.324 234.546 325.494 234.624 326.586 234.546C328.692 234.468 330.798 234.078 332.436 232.908C334.542 231.348 335.4 228.696 335.946 226.278C337.662 219.024 338.208 211.614 338.364 204.204C338.442 200.694 335.01 198.042 331.578 199.134Z" fill="#455A64"/>
<path d="M317.07 337.038L316.446 353.652C316.446 353.652 333.138 359.892 333.294 362.934L301.002 362.856L300.924 336.882L317.07 337.038Z" fill="#263238"/>
<path d="M306.462 352.248C305.838 352.404 305.37 353.106 305.526 353.73C305.682 354.354 306.384 354.822 307.008 354.666C307.632 354.51 308.178 353.652 307.944 353.106C307.71 352.482 306.852 352.014 306.306 352.326" fill="#E0E0E0"/>
<path d="M301.08 362.934L301.158 360.282L332.124 361.296C332.124 361.296 333.528 361.92 333.372 362.934H301.08Z" fill="#455A64"/>
<path d="M316.992 353.574C316.992 353.73 316.212 353.808 315.432 354.276C314.652 354.744 314.262 355.446 314.106 355.368C313.95 355.368 314.184 354.432 315.12 353.808C316.056 353.184 316.992 353.418 316.992 353.574Z" fill="white"/>
<path d="M320.346 354.978C320.346 355.134 319.722 355.368 319.176 356.07C318.63 356.694 318.474 357.474 318.318 357.396C318.162 357.396 318.084 356.46 318.708 355.68C319.41 354.9 320.346 354.822 320.346 354.978Z" fill="white"/>
<path d="M322.296 359.034C322.14 359.034 321.906 358.254 322.374 357.396C322.764 356.538 323.544 356.226 323.622 356.304C323.7 356.46 323.232 356.928 322.92 357.63C322.53 358.332 322.452 359.034 322.296 359.034Z" fill="white"/>
<path d="M316.68 349.752C316.602 349.908 315.9 349.674 314.964 349.752C314.106 349.83 313.404 350.064 313.326 349.986C313.248 349.908 313.95 349.284 314.964 349.206C316.056 349.128 316.758 349.596 316.68 349.752Z" fill="white"/>
<path d="M277.602 334.776L275.886 354.822L279.084 371.124C279.318 372.294 278.538 373.386 277.29 373.542C276.588 373.62 275.964 373.386 275.496 372.918C272.61 369.798 262.08 358.176 262.314 356.694C262.548 354.978 262.782 335.4 262.782 335.4L277.602 334.776Z" fill="#263238"/>
<path d="M277.212 373.62L262.314 355.446L262.236 356.304C262.158 357.006 262.392 357.786 262.86 358.332C264.03 359.892 267.384 364.182 275.34 372.996C275.886 373.464 276.588 373.698 277.212 373.62Z" fill="#455A64"/>
<g opacity="0.6">
<path d="M266.916 349.206C267.384 349.596 267.54 350.376 267.15 350.844C266.76 351.312 265.98 351.468 265.512 351.078C265.044 350.688 264.888 349.752 265.278 349.362C265.668 348.894 266.604 348.816 266.994 349.284" fill="white"/>
</g>
<path d="M273.234 364.494C273.312 364.572 273.858 363.558 275.106 363.012C276.354 362.466 277.446 362.856 277.446 362.7C277.446 362.622 277.212 362.466 276.744 362.388C276.276 362.31 275.574 362.31 274.95 362.622C274.248 362.934 273.78 363.402 273.546 363.792C273.234 364.182 273.156 364.494 273.234 364.494Z" fill="white"/>
<path d="M274.482 367.302C274.56 367.38 275.262 366.756 276.354 366.522C277.446 366.288 278.304 366.522 278.304 366.366C278.382 366.288 277.446 365.742 276.198 366.054C275.028 366.366 274.404 367.224 274.482 367.302Z" fill="white"/>
<path d="M270.738 360.906C270.816 360.984 271.908 360.048 273.468 359.58C275.106 359.034 276.51 359.19 276.51 359.112C276.588 359.034 275.106 358.644 273.312 359.19C271.674 359.658 270.66 360.828 270.738 360.906Z" fill="white"/>
<path d="M270.816 354.744C270.894 354.9 271.986 354.51 273.468 354.51C274.95 354.51 276.042 354.978 276.12 354.822C276.198 354.744 275.028 354.042 273.468 354.042C271.908 354.042 270.738 354.666 270.816 354.744Z" fill="white"/>
<path d="M271.128 348.816C271.206 348.972 272.376 348.348 273.858 348.504C275.418 348.66 276.432 349.44 276.51 349.362C276.51 349.284 276.354 349.05 275.886 348.738C275.418 348.426 274.716 348.114 273.936 348.036C273.078 347.958 272.376 348.114 271.908 348.348C271.362 348.582 271.128 348.816 271.128 348.816Z" fill="white"/>
<path d="M273.936 347.412C273.936 347.412 274.014 347.178 274.014 346.632C274.014 346.164 273.936 345.384 273.546 344.604C273.39 344.214 273.156 343.746 272.61 343.434C272.376 343.278 271.908 343.278 271.674 343.59C271.44 343.824 271.362 344.136 271.284 344.448C271.206 345.696 272.22 347.022 273.624 347.334C275.028 347.568 276.432 346.866 277.056 345.774C277.212 345.462 277.29 345.15 277.212 344.838C277.056 344.448 276.666 344.292 276.354 344.37C275.73 344.448 275.34 344.76 274.95 344.994C274.248 345.54 273.78 346.086 273.468 346.476C273.156 346.866 273.078 347.1 273.078 347.178C273.156 347.256 273.624 346.242 275.106 345.306C275.496 345.072 275.886 344.838 276.276 344.838C276.51 344.838 276.666 344.916 276.744 345.072C276.822 345.228 276.744 345.462 276.666 345.696C276.12 346.554 274.872 347.256 273.702 347.022C272.532 346.788 271.596 345.618 271.674 344.604C271.674 344.37 271.752 344.136 271.908 343.98C272.064 343.824 272.22 343.824 272.454 343.902C272.844 344.058 273.078 344.526 273.234 344.916C274.014 346.32 273.858 347.412 273.936 347.412Z" fill="white"/>
<path d="M331.656 195.156C331.656 195.156 332.904 206.076 332.046 217.62C331.734 222.066 318.864 346.008 318.864 346.008H298.506L304.2 229.788L302.562 230.178C302.562 230.178 291.408 279.708 290.55 287.742C289.77 294.918 280.332 347.334 280.332 347.334L261.69 347.568L267.618 278.226L274.56 211.692L277.134 192.348L331.656 195.156Z" fill="#263238"/>
<g opacity="0.3">
<path d="M281.346 234.078C281.736 234.234 284.7 234.234 287.43 230.958C290.16 227.682 293.748 209.742 293.748 209.742C293.748 209.742 309.504 213.174 320.424 210.444C331.344 207.714 333.138 203.502 333.138 203.502L292.89 204.204L287.82 206.388L281.346 234.078Z" fill="black"/>
</g>
<path d="M275.808 202.332L277.056 192.894C277.056 192.894 331.188 193.44 331.89 194.142C333.372 195.702 333.45 202.332 332.202 203.736C332.202 203.736 324.246 211.224 308.88 209.508C301.626 208.572 275.808 202.332 275.808 202.332Z" fill="#455A64"/>
<path d="M277.212 198.276C274.716 198.276 271.752 198.432 270.27 200.46C269.334 201.708 269.178 203.346 269.1 204.906C268.71 211.38 268.242 217.932 268.476 224.406C268.554 226.98 268.788 229.788 270.504 231.738C271.986 233.454 274.404 234.234 276.666 234.546C279.318 234.936 282.36 234.78 284.31 232.908C286.104 231.27 286.65 228.696 287.118 226.278C288.756 217.62 290.472 208.962 292.11 200.304L277.212 198.276Z" fill="#455A64"/>
<path d="M289.38 204.36C289.38 204.36 289.146 204.516 288.678 204.75C288.444 204.828 288.132 204.984 287.742 205.062C287.352 205.14 286.962 205.296 286.494 205.452C285.558 205.686 284.466 205.842 283.218 205.92C281.97 205.998 280.566 205.92 279.162 205.686C277.758 205.452 276.432 205.062 275.262 204.594C274.092 204.126 273.078 203.58 272.298 203.112C271.908 202.878 271.518 202.644 271.284 202.41C270.972 202.176 270.738 202.02 270.504 201.786C270.114 201.474 269.88 201.24 269.958 201.24C270.036 201.162 270.894 201.942 272.454 202.878C273.234 203.346 274.248 203.814 275.418 204.282C276.588 204.672 277.836 205.062 279.24 205.296C280.644 205.53 281.97 205.53 283.218 205.53C284.466 205.452 285.558 205.296 286.416 205.14C288.288 204.75 289.302 204.282 289.38 204.36Z" fill="#263238"/>
<path d="M320.424 208.494C320.346 208.494 320.346 207.012 320.424 205.218C320.58 203.424 320.736 201.942 320.814 201.942C320.892 201.942 320.892 203.424 320.814 205.218C320.736 207.012 320.502 208.494 320.424 208.494Z" fill="#263238"/>
<path d="M358.02 149.526C358.02 149.526 354.042 161.928 349.596 164.814C345.228 167.622 338.832 166.452 335.556 163.176C332.28 159.9 328.302 155.922 328.302 155.922L322.764 121.758C322.764 121.758 328.38 125.502 331.578 129.012C334.776 132.522 344.994 146.406 344.994 146.406L348.816 144.612L358.02 149.526Z" fill="#E0E0E0"/>
<path d="M363.948 142.584C364.026 142.74 363.948 147.264 363.948 147.264C363.948 147.264 359.19 150.93 353.73 148.746C348.192 146.562 348.192 142.116 348.192 142.116L348.894 139.62L350.376 135.174L363.948 142.584Z" fill="#455A64"/>
<path d="M358.023 143.997H379.161V141.033H358.023V143.997Z" fill="#6F4439"/>
<path d="M358.098 140.946L261.222 80.808H281.58L379.158 140.946H358.098Z" fill="#AE7461"/>
<path d="M358.098 140.946V144.066L322.998 122.616L260.676 83.46V80.496L358.098 140.946Z" fill="#6F4439"/>
<g opacity="0.3">
<path d="M358.098 140.946V144.066L322.998 122.616L260.676 83.46V80.496L358.098 140.946Z" fill="black"/>
</g>
<path d="M355.759 139.994H376.897V137.03H355.759V139.994Z" fill="#6F4439"/>
<path d="M355.758 136.968L258.96 76.752H279.24L376.896 136.968H355.758Z" fill="#AE7461"/>
<path d="M355.758 136.968V140.01L320.658 118.56L258.414 79.482V76.518L355.758 136.968Z" fill="#6F4439"/>
<g opacity="0.3">
<path d="M355.758 136.968V140.01L320.658 118.56L258.414 79.482V76.518L355.758 136.968Z" fill="black"/>
</g>
<path d="M342.966 121.134C340.704 118.794 343.746 118.014 344.604 117.546C345.462 117.078 351.546 115.596 352.326 118.638C352.326 118.638 354.9 118.638 355.212 120.042C355.212 120.042 364.884 123.552 364.026 129.168L355.524 124.332C355.68 124.332 345.618 123.786 342.966 121.134Z" fill="#455A64"/>
<path d="M283.14 114.582C283.14 114.582 267.072 122.772 266.448 131.586C266.292 133.77 272.61 162.162 275.73 178.62C277.134 186.108 276.822 189.774 276.822 189.774L277.056 192.972C279.864 194.22 302.952 201.63 318.084 200.148C335.01 198.432 332.358 192.504 331.5 189.228C330.642 185.952 329.94 171.21 329.94 170.664C329.94 170.196 323.154 121.524 323.154 121.524L308.412 114.426L306.384 111.462L303.576 117.312L284.934 109.356L283.14 114.582Z" fill="#E0E0E0"/>
<path d="M283.14 114.582C295.074 122.85 306.072 133.302 312 140.088L311.61 115.986L323.466 121.68C323.466 121.68 329.472 162.864 329.94 170.664C330.33 178.464 332.904 193.284 332.28 194.766C331.656 196.248 325.494 201.708 318.396 202.098C294.606 203.19 276.588 196.404 276.588 196.404L275.808 178.62L272.064 160.056L269.1 149.37C269.1 149.37 279.63 168.012 289.926 158.574C297.726 151.398 294.294 134.472 284.856 126.36C280.41 122.538 272.064 121.914 272.064 121.914C272.064 121.914 279.942 115.128 283.14 114.582Z" fill="#FF725E"/>
<path d="M275.808 178.542C275.808 178.542 282.204 182.208 298.662 183.924C315.12 185.718 330.642 178.074 330.642 178.074L331.344 183.69C331.344 183.69 316.368 190.71 297.024 188.76C284.466 187.512 276.12 185.094 276.12 185.094L275.808 178.542Z" fill="white"/>
<path d="M276.198 187.2C276.198 187.2 282.282 190.71 298.974 192.504C315.666 194.298 332.046 187.668 332.046 187.668L332.436 191.646C332.436 191.646 318.24 199.134 298.584 197.106C285.87 195.858 276.51 192.348 276.51 192.348L276.198 187.2Z" fill="white"/>
<path d="M320.424 200.928C320.424 200.928 320.346 200.694 320.346 200.304C320.268 199.836 320.268 199.29 320.19 198.51C320.034 196.872 319.878 194.688 319.644 191.88C319.176 186.264 318.63 178.62 317.694 170.118C316.758 161.616 315.432 153.972 314.106 148.59C313.95 147.888 313.794 147.264 313.638 146.64C313.482 146.016 313.326 145.47 313.17 144.924C312.858 143.832 312.624 142.896 312.39 142.194C312.156 141.492 312 140.868 311.844 140.478C311.766 140.088 311.688 139.854 311.688 139.854C311.688 139.854 311.766 140.088 311.922 140.478C312.078 140.868 312.234 141.492 312.468 142.194C312.702 142.896 313.014 143.832 313.326 144.924C313.482 145.47 313.638 146.016 313.794 146.64C313.95 147.264 314.106 147.888 314.262 148.59C315.666 154.05 316.992 161.694 317.928 170.196C318.864 178.698 319.41 186.42 319.8 191.958C319.956 194.688 320.112 196.95 320.19 198.588C320.19 199.368 320.268 199.914 320.268 200.382C320.424 200.772 320.424 200.928 320.424 200.928Z" fill="#263238"/>
<path d="M325.338 126.282C325.338 126.282 325.494 126.75 325.572 127.53C325.728 128.31 325.884 129.48 326.118 130.962C326.508 133.848 326.976 137.904 327.366 142.35C327.756 146.796 327.912 150.852 327.99 153.816C327.99 155.298 328.068 156.468 328.068 157.326C328.068 158.184 328.068 158.574 327.99 158.574C327.99 158.574 327.912 158.106 327.912 157.326C327.834 156.468 327.834 155.298 327.756 153.894C327.6 150.93 327.366 146.952 326.976 142.506C326.586 138.06 326.196 134.004 325.806 131.118C325.65 129.714 325.494 128.544 325.416 127.686C325.338 126.75 325.338 126.282 325.338 126.282Z" fill="#263238"/>
<path d="M308.334 114.348C308.334 114.348 308.334 114.504 308.334 114.894C308.334 115.284 308.256 115.752 308.256 116.376C308.178 117.702 308.1 119.574 307.788 121.914V122.226L307.554 121.992C306.306 120.744 304.98 119.262 303.42 117.702L303.732 117.624C303.03 119.574 302.172 121.602 301.314 123.786L301.236 124.02L301.002 123.942C296.01 121.602 291.486 119.34 288.288 117.624C286.65 116.766 285.402 116.064 284.466 115.596C284.076 115.362 283.686 115.206 283.452 115.05C283.218 114.894 283.14 114.816 283.14 114.816C283.14 114.816 283.296 114.894 283.53 114.972C283.842 115.128 284.154 115.284 284.544 115.518C285.48 115.986 286.806 116.688 288.366 117.468C291.642 119.106 296.088 121.29 301.158 123.63L300.846 123.708C301.704 121.524 302.484 119.418 303.264 117.546L303.342 117.234L303.576 117.468C305.058 119.028 306.462 120.51 307.632 121.758L307.398 121.836C307.632 119.574 307.788 117.702 307.944 116.376C308.022 115.752 308.1 115.284 308.1 114.894C308.334 114.504 308.334 114.348 308.334 114.348Z" fill="#263238"/>
<g opacity="0.3">
<path d="M274.638 160.914L274.17 157.404L313.17 166.296C313.17 166.296 307.554 176.436 295.854 178.308C284.076 180.258 279.63 169.104 274.638 160.914Z" fill="black"/>
</g>
<path d="M354.666 126.594C355.68 126.672 356.538 127.53 356.538 128.466C356.538 129.09 356.226 129.714 355.212 130.182C352.638 131.352 346.788 130.182 346.788 130.182C346.788 130.182 341.874 138.372 339.846 140.322L332.436 151.398L318.864 141.726L326.04 134.472C326.04 134.472 329.94 125.19 332.514 123.396C335.088 121.602 345.072 120.822 345.228 122.772C345.228 122.772 353.262 121.836 353.418 126.282L354.666 126.594Z" fill="#455A64"/>
<path d="M330.798 148.2C330.486 149.058 315.432 162.552 315.432 162.552L310.518 148.278L320.19 142.116C324.87 142.584 328.146 144.924 330.798 148.2Z" fill="#FFBF9D"/>
<path d="M344.682 126.048C344.682 125.892 346.632 125.736 349.128 125.892C351.546 125.97 353.496 126.204 353.496 126.36C353.496 126.516 351.546 126.438 349.05 126.36C346.632 126.204 344.682 126.204 344.682 126.048Z" fill="#263238"/>
<path d="M353.34 126.282C353.34 126.282 353.184 125.97 353.106 125.268C352.95 124.644 352.17 123.942 351.078 123.63C349.986 123.24 348.582 123.084 347.022 123.006C344.838 123.006 342.81 123.084 341.328 123.162C339.846 123.24 338.988 123.318 338.988 123.24C338.988 123.162 339.846 123.006 341.328 122.85C342.81 122.694 344.76 122.538 347.022 122.538C348.582 122.616 349.986 122.772 351.156 123.24C352.326 123.63 353.184 124.488 353.262 125.19C353.34 125.892 353.34 126.282 353.34 126.282Z" fill="#263238"/>
<path d="M325.806 134.706C325.806 134.706 326.04 134.628 326.43 134.55C326.82 134.472 327.444 134.394 328.146 134.394C329.628 134.316 331.734 134.628 333.762 135.642C335.79 136.656 337.272 138.138 338.13 139.386C338.52 140.01 338.832 140.556 338.988 140.868C339.144 141.258 339.222 141.492 339.222 141.492C339.144 141.492 338.832 140.712 337.896 139.542C337.038 138.372 335.556 136.968 333.606 136.032C331.656 135.018 329.628 134.706 328.224 134.706C326.664 134.55 325.806 134.784 325.806 134.706Z" fill="#263238"/>
<path d="M318.864 141.804C318.864 141.804 319.098 141.726 319.566 141.804C320.034 141.804 320.658 141.882 321.516 141.96C323.076 142.194 325.338 142.818 327.366 144.3C329.394 145.782 330.798 147.654 331.578 149.058C331.968 149.76 332.202 150.384 332.358 150.774C332.514 151.164 332.592 151.476 332.514 151.476C332.436 151.476 332.124 150.54 331.266 149.214C330.408 147.888 329.082 146.094 327.054 144.69C325.104 143.286 322.92 142.662 321.36 142.35C319.878 141.96 318.864 141.882 318.864 141.804Z" fill="#263238"/>
<path d="M270.738 124.878C271.362 124.566 281.424 123.162 286.572 132.99C291.72 142.74 296.478 153.192 296.478 153.192L310.128 146.952L316.134 164.346C316.134 164.346 298.662 177.372 290.004 175.422C281.346 173.472 269.958 151.008 269.412 150.15C268.788 149.292 261.222 130.26 270.738 124.878Z" fill="#E0E0E0"/>
<path d="M270.738 124.878C270.738 124.878 270.66 124.956 270.426 125.112C270.27 125.19 270.192 125.268 269.958 125.424C269.802 125.58 269.646 125.736 269.412 125.892C268.632 126.594 267.54 127.842 266.838 129.87C265.434 133.848 265.902 140.088 268.32 147.108C268.632 147.966 268.944 148.902 269.334 149.76C269.802 150.618 270.27 151.476 270.738 152.334C271.752 154.128 272.766 155.922 273.936 157.794C276.198 161.538 278.772 165.438 281.97 169.182C283.608 171.054 285.324 172.848 287.508 174.174C288.6 174.876 289.77 175.266 291.096 175.344C292.344 175.422 293.67 175.266 294.996 175.032C297.57 174.486 300.144 173.472 302.64 172.224C305.136 171.054 307.554 169.65 309.972 168.168C312.078 166.842 314.106 165.516 315.978 164.112L315.9 164.346C313.794 158.34 311.844 152.49 309.972 146.952L310.206 147.03C305.37 149.214 300.768 151.32 296.478 153.27L296.322 153.348L296.244 153.192C293.67 147.498 291.174 142.35 288.912 137.826C288.366 136.734 287.82 135.642 287.274 134.55C287.04 134.004 286.728 133.536 286.494 132.99C286.182 132.522 285.948 132.054 285.636 131.586C284.466 129.792 283.062 128.31 281.58 127.296C280.098 126.282 278.616 125.58 277.212 125.268C275.886 124.878 274.638 124.722 273.702 124.644C272.766 124.566 271.986 124.644 271.518 124.722C271.284 124.722 271.05 124.8 270.972 124.8C270.738 124.878 270.738 124.878 270.738 124.878C270.738 124.878 270.816 124.878 270.894 124.8C271.05 124.8 271.206 124.722 271.44 124.722C271.908 124.644 272.688 124.566 273.702 124.644C274.716 124.722 275.886 124.8 277.29 125.19C278.694 125.58 280.176 126.204 281.736 127.218C283.218 128.232 284.7 129.714 285.948 131.586C286.26 132.054 286.494 132.522 286.806 133.068C287.04 133.536 287.352 134.082 287.586 134.628C288.132 135.72 288.678 136.812 289.302 137.904C291.564 142.428 294.138 147.576 296.712 153.27L296.478 153.192C300.768 151.242 305.37 149.136 310.128 146.874L310.284 146.796L310.362 147.03C312.234 152.568 314.262 158.34 316.368 164.346L316.446 164.502L316.29 164.58C314.34 165.984 312.312 167.31 310.206 168.636C307.788 170.118 305.37 171.522 302.796 172.692C300.3 173.862 297.726 174.876 295.074 175.5C293.748 175.812 292.422 175.968 291.096 175.812C289.77 175.734 288.444 175.266 287.352 174.564C286.26 173.862 285.246 173.082 284.31 172.224C283.374 171.366 282.516 170.43 281.736 169.494C278.538 165.75 275.964 161.772 273.702 158.028C272.532 156.156 271.518 154.284 270.504 152.568C270.036 151.71 269.568 150.774 269.1 149.916C268.71 148.98 268.398 148.122 268.086 147.264C266.916 143.754 266.214 140.4 265.98 137.436C265.746 134.472 266.058 131.898 266.76 129.87C267.462 127.842 268.554 126.594 269.412 125.892C269.646 125.736 269.802 125.58 269.958 125.424C270.114 125.346 270.27 125.19 270.426 125.112C270.582 124.956 270.738 124.878 270.738 124.878Z" fill="#263238"/>
<path d="M294.762 160.914C294.684 160.914 294.762 159.12 295.23 156.936C295.698 154.752 296.322 153.036 296.4 153.114C296.478 153.114 296.088 154.908 295.62 157.014C295.23 159.198 294.918 160.914 294.762 160.914Z" fill="#263238"/>
<path d="M289.146 160.914C289.068 160.914 289.146 160.29 289.458 159.276C289.77 158.262 290.472 156.936 291.642 155.766C292.734 154.596 294.06 153.816 294.996 153.426C296.01 153.036 296.634 152.958 296.634 153.036C296.634 153.114 296.01 153.27 295.074 153.738C294.138 154.206 292.968 154.908 291.876 156.078C290.784 157.17 290.082 158.418 289.692 159.354C289.38 160.368 289.224 160.992 289.146 160.914Z" fill="#263238"/>
<path d="M345.384 122.772C345.384 122.772 345.306 122.616 345.15 122.46C344.994 122.304 344.76 122.07 344.37 121.992C343.98 121.914 343.434 121.914 342.888 121.914C342.342 121.914 341.718 121.914 341.016 121.992C338.364 122.148 336.258 122.382 336.258 122.226C336.258 122.148 336.804 122.07 337.662 121.914C338.52 121.758 339.69 121.602 341.016 121.524C341.64 121.524 342.342 121.446 342.888 121.524C343.434 121.524 343.98 121.524 344.448 121.68C344.916 121.836 345.228 122.07 345.306 122.304C345.384 122.616 345.384 122.772 345.384 122.772Z" fill="#263238"/>
<path d="M317.616 77.298C316.992 76.206 316.446 75.426 315.276 74.958C305.37 70.59 293.904 70.902 283.53 73.944C280.8 74.724 277.992 75.894 276.666 78.468V78.624C276.12 80.262 276.9 82.368 278.226 83.616C279.474 84.786 281.19 85.41 282.828 85.878C290.706 88.14 299.13 87.594 307.242 86.424C309.114 86.112 311.064 85.8 312.858 85.098C314.652 84.396 316.368 83.304 317.46 81.744C318.396 80.418 318.396 78.78 317.616 77.298Z" fill="#FF725E"/>
<g opacity="0.3">
<path d="M317.616 77.298C316.992 76.206 316.446 75.426 315.276 74.958C305.37 70.59 293.904 70.902 283.53 73.944C280.8 74.724 277.992 75.894 276.666 78.468V78.624C276.12 80.262 276.9 82.368 278.226 83.616C279.474 84.786 281.19 85.41 282.828 85.878C290.706 88.14 299.13 87.594 307.242 86.424C309.114 86.112 311.064 85.8 312.858 85.098C314.652 84.396 316.368 83.304 317.46 81.744C318.396 80.418 318.396 78.78 317.616 77.298Z" fill="black"/>
</g>
<path d="M284.778 94.926C283.452 91.494 282.204 88.0621 281.502 84.4741C280.8 80.8861 280.722 77.1421 281.892 73.6321C282.048 73.0861 283.53 69.576 284.076 69.576C284.466 69.576 283.608 72.8521 283.842 73.2421C285.87 76.4401 286.572 80.2621 286.494 84.0841C286.338 87.9061 285.714 91.26 284.778 94.926Z" fill="#263238"/>
<path d="M313.872 78.5461C313.248 70.0441 306.15 63.4921 297.648 63.4141H296.79C287.664 63.8821 282.984 71.9161 283.686 81.0421L285.09 109.356L303.42 117.234L305.994 111.852L305.916 109.512C305.916 109.512 314.73 108.186 314.886 99.4501C315.042 95.2381 314.496 86.5021 313.872 78.5461Z" fill="#FFBF9D"/>
<path d="M305.994 109.512C305.994 109.512 300.456 109.824 294.606 106.08C294.606 106.08 297.336 112.632 306.072 111.852L305.994 109.512Z" fill="#FF9A6C"/>
<path d="M310.05 86.1901C310.05 86.8141 309.504 87.4381 308.802 87.4381C308.1 87.4381 307.554 86.9701 307.554 86.2681C307.554 85.6441 308.1 85.0201 308.802 85.0201C309.426 85.0201 310.05 85.5661 310.05 86.1901Z" fill="#263238"/>
<path d="M312 82.212C311.844 82.368 310.908 81.666 309.582 81.666C308.256 81.666 307.242 82.368 307.086 82.134C307.008 82.056 307.164 81.744 307.632 81.432C308.022 81.12 308.802 80.808 309.66 80.808C310.518 80.808 311.22 81.12 311.61 81.432C311.922 81.822 312.078 82.134 312 82.212Z" fill="#263238"/>
<path d="M297.96 86.1901C297.96 86.8141 297.414 87.4381 296.712 87.4381C296.01 87.4381 295.464 86.9701 295.464 86.2681C295.464 85.6441 296.01 85.0201 296.712 85.0201C297.414 85.0201 297.96 85.4881 297.96 86.1901Z" fill="#263238"/>
<path d="M298.818 82.6801C298.662 82.8361 297.726 82.1341 296.4 82.1341C295.074 82.1341 294.06 82.8361 293.904 82.6021C293.826 82.5241 293.982 82.2121 294.45 81.9001C294.84 81.5881 295.62 81.2761 296.478 81.2761C297.336 81.2761 298.038 81.5881 298.428 81.9001C298.74 82.2901 298.896 82.6021 298.818 82.6801Z" fill="#263238"/>
<path d="M303.576 93.054C303.576 92.976 304.434 92.82 305.76 92.664C306.072 92.664 306.462 92.586 306.462 92.352C306.54 92.118 306.384 91.728 306.228 91.338C305.916 90.48 305.604 89.622 305.214 88.686C303.81 84.942 302.796 81.9 302.952 81.822C303.108 81.744 304.356 84.786 305.76 88.53C306.072 89.466 306.384 90.324 306.696 91.182C306.852 91.572 307.008 92.04 306.852 92.508C306.774 92.742 306.54 92.976 306.306 92.976C306.072 93.054 305.916 93.054 305.682 93.054C304.434 93.132 303.576 93.132 303.576 93.054Z" fill="#263238"/>
<path d="M299.598 93.9901C299.832 93.9901 299.832 95.472 301.08 96.486C302.328 97.5 303.888 97.344 303.888 97.578C303.888 97.656 303.576 97.8901 302.874 97.8901C302.25 97.8901 301.314 97.7341 300.534 97.0321C299.754 96.4081 299.442 95.55 299.442 94.926C299.364 94.302 299.52 93.9901 299.598 93.9901Z" fill="#263238"/>
<path d="M298.74 77.2201C298.584 77.6101 297.258 77.3761 295.698 77.6101C294.138 77.7661 292.812 78.2341 292.656 77.9221C292.578 77.7661 292.812 77.4541 293.28 77.0641C293.826 76.6741 294.606 76.3621 295.542 76.2841C296.478 76.2061 297.336 76.3621 297.96 76.5961C298.506 76.7521 298.818 77.0641 298.74 77.2201Z" fill="#263238"/>
<path d="M311.454 77.688C311.22 78 310.284 77.688 309.192 77.61C308.1 77.532 307.164 77.766 306.93 77.454C306.852 77.298 307.008 76.986 307.398 76.674C307.788 76.362 308.49 76.128 309.27 76.206C310.05 76.206 310.674 76.518 311.064 76.83C311.454 77.22 311.61 77.61 311.454 77.688Z" fill="#263238"/>
<path d="M284.388 87.5941C284.232 87.5161 278.382 85.8001 278.538 91.8061C278.694 97.8121 285.168 96.4861 285.168 96.3301C285.168 96.0961 284.388 87.5941 284.388 87.5941Z" fill="#FFBF9D"/>
<path d="M282.828 93.9901C282.828 93.9901 282.75 94.0681 282.516 94.1461C282.36 94.2241 282.048 94.3021 281.736 94.1461C281.112 93.9121 280.566 92.9761 280.488 91.8841C280.488 91.3381 280.566 90.7921 280.722 90.4021C280.878 89.9341 281.19 89.6221 281.502 89.5441C281.814 89.4661 282.048 89.6221 282.126 89.7781C282.204 89.9341 282.204 90.0901 282.204 90.0901C282.204 90.0901 282.36 90.0121 282.282 89.7781C282.282 89.6221 282.204 89.5441 282.048 89.3881C281.892 89.3101 281.658 89.2321 281.502 89.2321C281.034 89.3101 280.644 89.7001 280.41 90.1681C280.176 90.6361 280.02 91.2601 280.098 91.8841C280.176 93.0541 280.8 94.2241 281.658 94.4581C282.048 94.5361 282.438 94.4581 282.594 94.3021C282.828 94.0681 282.828 93.9901 282.828 93.9901Z" fill="#FF9A6C"/>
<path d="M309.66 68.7961C310.596 68.2501 307.554 65.2081 305.136 64.1941C301.47 62.7121 295.932 61.8541 292.656 62.9461C288.678 64.1941 285.402 66.3001 283.53 70.0441C281.658 73.7881 281.034 78.0001 281.268 82.2121C281.346 83.4601 281.502 84.7861 282.204 85.8781C283.062 87.2041 284.7 87.9841 284.7 89.7781C284.7 90.4801 284.934 91.1041 285.402 91.5721C286.572 92.6641 287.82 91.5721 288.444 90.4021C289.692 87.9841 289.692 85.1761 289.77 82.5241C289.77 80.5741 289.77 78.6241 289.224 76.8301C288.912 75.8161 288.366 74.8801 288.132 73.9441C287.82 72.9301 287.82 71.7601 288.444 70.9021C288.522 70.7461 288.678 70.5901 288.912 70.3561C290.55 68.7961 292.89 68.2501 295.074 68.9521C298.506 70.0441 304.356 71.6041 305.76 70.4341C307.866 68.7181 308.334 67.6261 308.334 67.6261L309.66 68.7961Z" fill="#263238"/>
<path d="M314.418 77.844C314.418 77.844 310.05 75.036 304.668 75.036C289.38 74.958 280.8 80.34 280.8 80.34L280.488 76.128C280.488 76.128 302.796 72.15 302.952 72.15C303.108 72.15 309.738 73.398 309.894 73.398C310.05 73.476 314.028 74.178 314.028 74.178L314.418 77.844Z" fill="#455A64"/>
<path d="M318.162 78.702C318.162 78.702 314.418 72.15 297.18 74.1C279.084 76.206 276.822 80.886 276.822 80.886C276.822 80.886 275.496 76.83 278.46 74.724C278.46 74.724 278.382 67.08 283.53 61.074C285.402 58.89 288.756 57.096 289.458 56.55L289.536 55.38C289.536 55.38 290.784 53.976 296.946 53.82C303.264 53.742 304.512 55.692 304.512 55.692L304.668 56.784C304.668 56.784 314.34 61.308 315.12 73.866C315.12 73.866 318.552 76.206 318.162 78.702Z" fill="#FF725E"/>
<g opacity="0.3">
<path d="M289.614 55.38C290.628 56.55 292.344 58.656 292.656 60.372C292.968 62.088 293.046 63.882 293.046 65.676C292.032 59.826 291.174 58.968 289.458 56.55L289.614 55.38Z" fill="black"/>
</g>
<path d="M278.46 74.724C278.46 74.724 278.538 74.646 278.772 74.568C279.084 74.49 279.396 74.334 279.786 74.178C280.254 74.022 280.8 73.788 281.424 73.554C282.048 73.32 282.828 73.086 283.608 72.852C286.884 71.916 291.564 70.98 296.79 70.746C302.016 70.434 306.774 70.824 310.05 71.682C310.908 71.916 311.61 72.15 312.234 72.384C312.858 72.618 313.404 72.852 313.794 73.086C314.184 73.32 314.496 73.476 314.73 73.632C314.964 73.788 315.042 73.866 315.042 73.866C315.042 73.866 314.886 73.788 314.652 73.71C314.418 73.554 314.106 73.398 313.716 73.242C313.326 73.008 312.702 72.852 312.078 72.618C311.454 72.384 310.674 72.228 309.894 71.994C306.618 71.292 301.86 70.902 296.712 71.214C291.564 71.448 286.884 72.384 283.608 73.164C282.75 73.32 282.048 73.632 281.424 73.788C280.8 73.944 280.254 74.178 279.786 74.334C279.396 74.49 279.006 74.568 278.772 74.646C278.616 74.724 278.46 74.802 278.46 74.724Z" fill="#263238"/>
<path d="M289.614 55.38C289.692 55.38 290.082 55.77 290.784 56.55C291.408 57.252 292.422 58.422 292.812 59.904C293.28 61.386 293.28 62.868 293.28 63.882C293.202 64.896 293.124 65.52 293.046 65.52C292.968 65.52 293.046 64.896 292.968 63.882C292.968 62.868 292.89 61.542 292.422 60.06C292.032 58.578 291.096 57.564 290.55 56.706C289.926 55.926 289.536 55.38 289.614 55.38Z" fill="#263238"/>
<g opacity="0.3">
<path d="M289.458 59.4361C289.458 59.2021 289.458 58.8901 289.302 58.6561C289.146 58.4221 288.834 58.4221 288.6 58.4221C288.366 58.5001 288.132 58.5781 287.898 58.7341C283.53 61.7761 280.566 67.0021 280.02 72.5401C280.02 72.7741 280.254 73.0081 280.488 72.8521C282.516 71.6821 284.622 70.9801 286.884 70.4341C287.586 70.2781 288.678 70.3561 288.99 69.5761C289.146 69.1081 289.224 68.6401 289.224 68.0941C289.38 65.2861 289.458 62.4001 289.458 59.4361Z" fill="white"/>
</g>
<path d="M304.824 62.946C304.746 62.946 304.746 61.386 304.668 59.436C304.668 57.486 304.59 55.926 304.746 55.926C304.824 55.926 305.058 57.486 305.058 59.436C305.136 61.308 304.98 62.946 304.824 62.946Z" fill="#263238"/>
<path d="M158.34 220.116C158.34 219.258 158.34 198.042 160.29 187.278C162.24 176.514 167.7 143.91 169.884 139.152C172.068 134.394 172.692 133.536 173.628 132.522C174.642 131.586 181.428 150.696 180.804 151.398C180.18 152.022 174.954 185.406 174.954 185.406L167.466 220.116H158.34Z" fill="#E0E0E0"/>
<path d="M146.796 237.51C146.328 238.212 142.974 279.162 142.974 279.162L161.304 295.23L173.316 295.386L176.124 250.77L158.184 236.964L146.796 237.51Z" fill="#455A64"/>
<path d="M156.624 241.176C156.624 241.176 156.546 235.326 159.822 233.922L160.758 235.56C160.758 235.56 159.51 237.51 159.588 241.176C159.51 241.176 157.716 242.19 156.624 241.176Z" fill="#263238"/>
<path d="M158.574 219.258C158.574 219.648 157.872 224.484 157.716 226.824C157.56 229.164 156.234 233.688 156.702 234.936C157.17 236.184 160.758 240.474 161.85 240.708C162.942 240.942 163.956 240.708 163.956 240.708L165.282 240.474L164.034 238.602L163.254 236.574L164.268 232.44C164.268 232.44 163.878 237.198 165.36 238.212C166.842 239.226 167.466 238.758 167.232 237.588C166.998 236.34 167.544 231.972 167.31 229.632C167.076 227.292 165.906 225.186 166.218 223.236C166.608 221.208 166.764 219.258 166.764 219.258H158.574Z" fill="#FFBF9D"/>
<path d="M163.878 233.922C163.878 233.922 168.168 237.666 166.92 246.714C166.92 246.714 164.424 247.806 163.878 246.714C163.878 246.714 165.048 239.226 163.02 237.042L163.878 233.922Z" fill="#263238"/>
<path d="M176.124 250.77C176.124 250.77 175.812 250.848 175.344 250.848C174.72 250.848 174.018 250.926 173.082 251.004C171.054 251.082 168.324 251.238 165.126 251.394H165.048L164.97 251.316C163.488 250.224 161.928 249.054 160.212 247.806C156.468 244.998 153.114 242.424 150.618 240.552C149.448 239.616 148.512 238.914 147.732 238.29C147.03 237.744 146.718 237.432 146.718 237.432C146.718 237.432 147.108 237.666 147.81 238.134C148.59 238.68 149.526 239.382 150.774 240.24C153.27 242.034 156.624 244.608 160.446 247.416C162.084 248.664 163.722 249.834 165.126 250.926H164.97C168.168 250.848 170.898 250.77 172.926 250.692C173.862 250.692 174.642 250.692 175.188 250.614C175.812 250.77 176.124 250.77 176.124 250.77Z" fill="#263238"/>
<path d="M164.58 251.394C164.658 251.394 164.112 261.3 163.254 273.468C162.396 285.636 161.616 295.464 161.46 295.464C161.382 295.464 161.928 285.558 162.786 273.39C163.644 261.222 164.424 251.316 164.58 251.394Z" fill="#263238"/>
<path d="M163.02 267.384C163.02 267.384 162.708 267.228 162.24 266.994C161.694 266.682 160.992 266.292 160.134 265.746C158.34 264.654 156 263.016 153.504 260.988C151.008 258.96 148.902 257.01 147.42 255.528C146.718 254.748 146.094 254.202 145.704 253.734C145.314 253.266 145.08 253.032 145.158 253.032C145.158 253.032 145.392 253.266 145.86 253.656C146.328 254.124 146.952 254.67 147.654 255.372C149.136 256.776 151.32 258.726 153.738 260.754C156.234 262.782 158.574 264.42 160.29 265.59C161.07 266.136 161.772 266.604 162.318 266.994C162.786 267.15 163.02 267.306 163.02 267.384Z" fill="#263238"/>
<path d="M171.6 208.572C171.522 208.572 194.844 225.732 194.844 225.732L226.2 204.36L223.002 198.12C223.002 198.12 203.97 204.984 195.702 203.268C187.356 201.552 176.124 198.12 176.124 198.12L171.6 208.572Z" fill="#455A64"/>
<path d="M202.644 350.142V351.078C202.644 351.078 186.888 357.63 186.732 360.594L218.166 360.126L217.62 349.674C213.018 351.858 208.104 352.248 202.644 350.142Z" fill="#263238"/>
<path d="M218.244 360.126L218.088 357.63L187.98 358.956C187.98 358.956 186.576 359.58 186.732 360.594L218.244 360.126Z" fill="#455A64"/>
<path d="M202.566 351.156C202.566 351.312 203.346 351.39 204.126 351.858C204.906 352.326 205.296 352.95 205.452 352.95C205.608 352.95 205.374 352.014 204.438 351.468C203.424 350.844 202.566 351 202.566 351.156Z" fill="white"/>
<path d="M199.29 352.56C199.29 352.716 199.914 352.95 200.46 353.574C201.006 354.198 201.162 354.9 201.318 354.9C201.474 354.9 201.552 354.042 200.85 353.262C200.226 352.482 199.29 352.404 199.29 352.56Z" fill="white"/>
<path d="M197.496 356.538C197.652 356.538 197.808 355.836 197.418 354.978C197.028 354.12 196.326 353.808 196.248 353.964C196.17 354.12 196.638 354.51 196.95 355.212C197.262 355.914 197.34 356.538 197.496 356.538Z" fill="white"/>
<path d="M171.678 208.182C171.678 208.182 166.062 227.682 175.578 252.72C185.094 277.68 190.398 297.648 190.71 303.03C191.1 308.412 192.27 311.688 197.262 328.77C200.928 341.172 203.268 350.298 203.268 350.298C207.012 352.404 211.224 352.014 214.032 351C214.032 351 214.11 321.828 208.65 301.86C203.19 281.892 199.446 250.692 201.318 239.382C203.19 228.072 199.134 221.676 199.134 221.676L171.678 208.182Z" fill="#FFBF9D"/>
<path d="M230.412 232.128C234.078 214.578 224.25 200.85 224.25 200.85L195.078 224.64C195.078 224.64 188.916 295.698 192.582 304.98C196.248 314.184 214.032 352.248 214.032 352.248L224.484 348.738C224.484 348.738 221.988 321.048 217.698 310.596C215.358 304.746 210.678 301.86 212.862 294.606C214.968 287.196 227.448 246.558 230.412 232.128Z" fill="#FFBF9D"/>
<path d="M224.718 346.164C224.718 346.164 216.918 354.042 212.628 349.752L211.848 352.17L208.884 368.862C208.728 369.954 209.352 371.046 210.366 371.358C211.224 371.592 212.082 371.358 212.628 370.734C215.592 367.38 226.434 355.134 226.122 353.652L225.732 349.674C225.654 348.816 224.874 346.866 224.874 346.71L224.718 346.164Z" fill="#263238"/>
<path d="M210.834 371.436L226.044 352.248L226.122 353.106C226.278 354.042 225.888 354.432 225.498 355.134C224.328 357.084 220.896 361.452 212.706 370.734C212.316 371.202 211.536 371.514 210.834 371.436Z" fill="#455A64"/>
<path d="M214.89 361.92C214.812 361.998 214.188 360.984 212.862 360.516C211.536 360.048 210.444 360.438 210.366 360.282C210.366 360.204 210.6 360.048 211.068 359.97C211.536 359.892 212.238 359.892 213.018 360.126C213.72 360.36 214.266 360.828 214.578 361.296C214.89 361.608 214.89 361.92 214.89 361.92Z" fill="white"/>
<path d="M213.642 364.806C213.564 364.884 212.784 364.26 211.692 364.104C210.6 363.87 209.664 364.182 209.586 364.026C209.508 363.948 210.522 363.402 211.77 363.636C213.018 363.948 213.72 364.806 213.642 364.806Z" fill="white"/>
<path d="M217.386 358.176C217.308 358.254 216.138 357.318 214.422 356.85C212.706 356.382 211.224 356.538 211.224 356.46C211.146 356.382 212.706 355.914 214.578 356.46C216.372 356.928 217.464 358.098 217.386 358.176Z" fill="white"/>
<path d="M192.036 290.628C192.036 290.628 192.036 290.862 192.036 291.252C192.036 291.72 192.036 292.344 191.958 293.124C191.958 294.762 191.88 297.102 192.192 299.988C192.426 302.874 193.206 306.228 194.844 309.738C195.624 311.454 196.638 313.248 197.496 315.12C198.432 316.992 199.29 319.02 200.148 321.048C201.942 325.104 203.736 328.926 205.374 332.436C207.012 335.946 208.416 339.066 209.586 341.796C210.756 344.448 211.536 346.71 212.082 348.192C212.394 348.972 212.55 349.596 212.706 349.986C212.862 350.376 212.862 350.61 212.862 350.61C212.862 350.61 212.784 350.376 212.628 349.986C212.472 349.518 212.238 348.972 211.926 348.27C211.302 346.788 210.444 344.604 209.274 341.952C208.104 339.3 206.622 336.18 204.984 332.67C203.346 329.16 201.552 325.338 199.758 321.282C198.9 319.254 198.042 317.304 197.106 315.354C196.17 313.482 195.234 311.688 194.454 309.972C192.816 306.462 192.036 303.03 191.802 300.066C191.568 297.18 191.646 294.762 191.724 293.202C191.802 292.422 191.802 291.798 191.88 291.33C191.958 290.862 192.036 290.628 192.036 290.628Z" fill="#FF9A6C"/>
<path d="M176.28 187.746C176.28 187.746 163.566 216.216 167.7 235.092C171.834 253.968 186.42 293.982 186.42 293.982L215.046 295.464C215.046 295.464 227.604 254.436 230.178 242.58C233.61 226.824 234.468 212.394 224.406 191.958L222.222 185.718L176.28 187.746Z" fill="#263238"/>
<path d="M191.1 293.748C191.1 293.748 191.1 293.67 191.1 293.514C191.1 293.358 191.1 293.124 191.1 292.89C191.1 292.266 191.178 291.486 191.178 290.472C191.256 288.366 191.412 285.324 191.568 281.58C191.958 274.014 192.504 263.64 193.05 252.252C193.596 242.112 194.142 232.752 194.532 225.654V225.732C191.958 221.91 189.93 218.868 188.448 216.684C187.746 215.592 187.2 214.812 186.81 214.188C186.654 213.954 186.498 213.72 186.42 213.564C186.576 213.72 186.654 213.954 186.888 214.188C187.278 214.812 187.902 215.592 188.604 216.606C190.086 218.79 192.192 221.832 194.844 225.576V225.654V225.732C194.454 232.83 193.986 242.19 193.44 252.33C192.816 263.796 192.192 274.17 191.802 281.658C191.568 285.402 191.412 288.444 191.256 290.55C191.178 291.564 191.1 292.344 191.1 292.968C191.1 293.202 191.022 293.436 191.022 293.592C191.1 293.67 191.1 293.748 191.1 293.748Z" fill="#455A64"/>
<path d="M228.93 129.012C228.93 129.012 231.582 130.806 233.22 134.862C236.184 142.194 243.36 167.076 243.516 168.792C243.75 171.21 245.388 177.138 244.374 180.258C243.438 183.378 234.39 185.874 234.39 185.874L230.022 174.798L231.582 173.082L222.768 150.696V138.606L228.93 129.012Z" fill="#E0E0E0"/>
<path d="M241.254 171.288C241.254 171.366 240.63 171.132 239.694 170.976C238.758 170.82 237.354 170.742 235.872 171.132C234.39 171.444 233.22 172.146 232.44 172.692C231.66 173.238 231.192 173.706 231.192 173.706C231.192 173.706 231.504 173.16 232.284 172.458C233.064 171.834 234.312 171.054 235.872 170.742C237.432 170.352 238.836 170.508 239.85 170.742C240.708 170.898 241.254 171.21 241.254 171.288Z" fill="#263238"/>
<path d="M188.682 124.02C188.058 124.176 173.316 129.792 172.536 133.614C171.756 137.358 177.918 150.228 177.918 150.228C177.918 150.228 174.408 158.184 177.918 163.8C177.918 163.8 174.018 185.952 173.472 191.88C173.394 192.738 173.394 193.596 173.472 193.674C175.032 195 225.81 194.922 226.278 193.986C226.746 192.972 222.144 162.864 222.768 160.29C223.392 157.716 222.768 150.852 222.768 150.852C222.768 150.852 229.632 129.636 228.93 129.168C228.306 128.7 210.054 122.616 210.054 122.616L207.168 122.07L192.582 123.396L188.682 124.02Z" fill="#FF725E"/>
<path d="M173.94 187.59C173.94 187.59 223.158 187.434 223.314 187.824C223.47 188.214 224.484 193.128 224.484 193.128L173.394 191.724L173.94 187.59Z" fill="white"/>
<path d="M175.188 179.478C175.188 179.478 222.612 179.634 222.768 180.024C222.924 180.414 223.47 184.002 223.47 184.002L174.408 184.314L175.188 179.478Z" fill="white"/>
<path d="M186.264 124.956L188.682 124.02L191.412 120.9L208.416 119.184L210.6 122.07L214.734 123.864L199.212 146.796L186.264 124.956Z" fill="#E0E0E0"/>
<path d="M202.488 137.046L242.658 197.418C242.658 197.418 242.97 207.402 233.064 205.218L189.15 145.704L202.488 137.046Z" fill="white"/>
<path d="M202.488 137.046C202.488 137.046 202.41 137.124 202.254 137.202C202.098 137.28 201.864 137.436 201.552 137.67C200.928 138.06 200.07 138.606 198.978 139.386C196.716 140.868 193.362 143.052 189.228 145.782V145.626C198.744 158.418 214.5 179.79 232.44 203.97C232.674 204.36 232.986 204.672 233.22 205.062L233.064 204.984C233.688 205.062 234.312 205.218 234.858 205.296H235.794H236.262L236.73 205.218C237.978 205.14 239.07 204.594 239.928 203.814C240.786 203.034 241.41 201.942 241.8 200.85C242.19 199.758 242.346 198.51 242.346 197.418V197.496C230.958 180.336 220.974 165.282 213.798 154.44C210.21 149.058 207.402 144.69 205.374 141.726C204.36 140.244 203.658 139.074 203.112 138.294C202.878 137.904 202.644 137.592 202.566 137.358C202.566 137.124 202.488 137.046 202.488 137.046C202.488 137.046 202.566 137.124 202.722 137.358C202.878 137.592 203.034 137.826 203.346 138.216C203.892 138.996 204.672 140.166 205.608 141.57C207.636 144.534 210.522 148.824 214.11 154.206C221.364 165.048 231.426 180.102 242.892 197.262V197.34V197.418C242.892 198.666 242.658 199.836 242.268 201.006C241.878 202.176 241.254 203.268 240.318 204.126C239.382 204.984 238.134 205.53 236.886 205.608L236.418 205.686H235.95H235.014C234.39 205.608 233.766 205.53 233.142 205.374H233.064L232.986 205.296C232.752 204.906 232.44 204.594 232.206 204.204C214.344 179.946 198.588 158.574 189.15 145.704L189.072 145.626L189.15 145.548C193.362 142.818 196.716 140.712 199.056 139.23C200.226 138.528 201.084 137.982 201.708 137.592C202.02 137.436 202.254 137.28 202.41 137.202C202.41 137.046 202.488 137.046 202.488 137.046Z" fill="#263238"/>
<path d="M175.344 178.776C175.344 178.776 175.344 178.386 175.5 177.606C175.656 176.826 175.812 175.734 175.968 174.486C176.436 171.756 176.982 168.012 177.684 163.722V163.878C177.06 162.63 176.514 161.226 176.28 159.744C175.734 156.156 176.514 152.724 177.684 150.15V150.306C176.514 147.654 175.5 145.392 174.798 143.754C174.486 142.974 174.252 142.428 174.018 141.882C173.862 141.492 173.784 141.258 173.784 141.18C173.784 141.18 173.94 141.414 174.096 141.804C174.33 142.272 174.642 142.896 174.954 143.598C175.734 145.236 176.748 147.42 177.996 150.072V150.15V150.228C176.904 152.724 176.124 156.156 176.67 159.588C176.904 161.07 177.372 162.396 177.996 163.644V163.722V163.8C177.216 168.09 176.592 171.756 176.124 174.564C175.89 175.89 175.656 176.904 175.5 177.684C175.5 178.386 175.344 178.776 175.344 178.776Z" fill="#263238"/>
<path d="M221.91 153.036C221.832 153.036 221.988 152.334 222.222 151.242C222.534 150.15 222.924 148.668 223.548 147.03C224.172 145.392 224.796 143.988 225.264 142.974C225.732 141.96 226.122 141.336 226.2 141.336C226.278 141.336 225.966 142.038 225.576 143.052C225.108 144.066 224.562 145.548 223.938 147.186C223.314 148.824 222.846 150.306 222.534 151.398C222.222 152.412 221.988 153.036 221.91 153.036Z" fill="#263238"/>
<path d="M198.939 146.112C202.632 143.732 204.245 139.659 202.542 137.016C200.838 134.373 196.463 134.159 192.77 136.539C189.076 138.92 187.463 142.992 189.166 145.636C190.87 148.279 195.245 148.492 198.939 146.112Z" fill="#E0E0E0"/>
<path d="M202.488 137.046C202.41 137.046 202.176 136.5 201.24 135.876C200.382 135.252 198.744 134.784 196.872 135.096C195 135.33 192.738 136.344 190.944 138.138C190.086 139.074 189.306 140.166 188.916 141.492C188.526 142.818 188.526 144.3 189.306 145.548C190.086 146.796 191.49 147.42 192.816 147.576C194.142 147.732 195.546 147.498 196.716 147.108C199.134 146.25 200.928 144.612 201.942 142.974C203.034 141.336 203.19 139.698 203.034 138.684C202.878 137.592 202.488 137.046 202.488 137.046C202.488 137.046 202.566 137.202 202.722 137.436C202.878 137.67 203.034 138.06 203.19 138.606C203.424 139.698 203.268 141.414 202.176 143.13C201.162 144.846 199.29 146.484 196.872 147.42C195.624 147.888 194.22 148.122 192.816 147.966C191.412 147.81 189.852 147.108 188.994 145.782C188.136 144.456 188.136 142.74 188.604 141.414C189.072 140.01 189.852 138.84 190.788 137.904C192.66 136.032 194.922 135.096 196.872 134.784C198.822 134.55 200.46 135.096 201.396 135.72C201.864 136.032 202.098 136.344 202.332 136.578C202.41 136.89 202.488 137.046 202.488 137.046Z" fill="#263238"/>
<path d="M239.928 204.204C239.85 204.282 230.568 191.334 219.258 175.344C207.948 159.354 198.822 146.25 198.9 146.25C198.978 146.172 208.26 159.12 219.57 175.11C230.88 191.1 240.006 204.126 239.928 204.204Z" fill="#263238"/>
<path d="M196.17 194.844C196.092 194.844 196.248 186.264 196.482 175.656C196.794 165.048 197.106 156.468 197.262 156.468C197.34 156.468 197.184 165.048 196.95 175.656C196.638 186.264 196.326 194.844 196.17 194.844Z" fill="#263238"/>
<path d="M198.9 129.09C198.9 129.09 198.666 129.714 198.042 130.65C197.418 131.586 196.482 132.834 195.156 134.082L195 134.238L194.844 134.082C194.376 133.38 193.83 132.678 193.362 131.898C191.958 129.87 190.788 127.998 190.008 126.594C189.228 125.19 188.76 124.332 188.76 124.254C188.838 124.254 189.384 125.034 190.242 126.438C191.1 127.764 192.348 129.636 193.674 131.664C194.22 132.444 194.688 133.146 195.156 133.848H194.844C196.17 132.6 197.184 131.43 197.808 130.494C198.51 129.636 198.9 129.09 198.9 129.09Z" fill="#263238"/>
<path d="M210.756 123.084C210.834 123.084 210.21 123.942 209.118 125.346C208.104 126.672 206.622 128.544 204.984 130.572C204.126 131.664 203.268 132.678 202.488 133.614L202.332 133.77L202.176 133.614C201.162 132.366 200.304 131.352 199.68 130.572C199.056 129.792 198.744 129.402 198.744 129.324C198.744 129.246 199.134 129.714 199.836 130.416C200.46 131.118 201.396 132.132 202.488 133.38H202.176C202.956 132.444 203.736 131.352 204.594 130.26C206.232 128.232 207.714 126.438 208.806 125.112C210.054 123.864 210.756 123.084 210.756 123.084Z" fill="#263238"/>
<path d="M209.274 176.046C208.26 175.266 208.728 173.55 210.054 173.472C210.366 173.472 210.756 173.472 211.146 173.55C213.252 173.784 218.088 175.11 219.648 174.876C221.13 174.564 222.456 174.174 223.158 172.926C223.86 171.678 220.974 167.31 221.286 165.204C221.598 163.098 222.924 163.644 223.236 164.112C223.548 164.658 225.498 168.012 226.356 169.26C227.214 170.508 231.114 174.876 232.44 175.344C233.844 175.734 234.702 175.968 234.702 175.968C234.702 175.968 237.198 176.748 237.822 179.322C238.446 181.896 236.184 184.86 234.156 184.782C232.128 184.782 217.464 185.406 216.684 184.938C215.904 184.392 214.266 183.378 213.954 181.818C213.954 181.818 210.522 180.336 210.444 179.166C210.444 179.166 210.522 177.06 210.522 176.748C210.6 176.748 209.898 176.514 209.274 176.046Z" fill="#FFBF9D"/>
<path d="M218.556 178.386C218.556 178.464 216.606 178.308 214.344 177.84C212.004 177.294 210.21 176.67 210.288 176.514C210.288 176.436 212.16 176.904 214.422 177.45C216.684 177.918 218.634 178.23 218.556 178.386Z" fill="#FF9A6C"/>
<path d="M220.74 181.584C220.74 181.662 220.194 181.662 219.18 181.662C218.244 181.662 216.918 181.506 215.514 181.194C214.11 180.882 212.862 180.414 212.004 180.102C211.146 179.712 210.6 179.4 210.678 179.4C210.756 179.322 212.862 180.258 215.592 180.882C218.4 181.35 220.74 181.428 220.74 181.584Z" fill="#FF9A6C"/>
<path d="M221.052 183.222C221.052 183.3 219.414 183.3 217.386 182.91C215.358 182.52 213.798 181.974 213.876 181.896C213.876 181.818 215.514 182.208 217.464 182.52C219.414 182.91 221.052 183.066 221.052 183.222Z" fill="#FF9A6C"/>
<path d="M222.144 103.272C220.272 101.478 217.308 100.62 215.124 101.946L207.87 109.2C207.87 112.866 210.522 116.376 214.11 117.312C217.698 118.248 221.754 116.532 223.548 113.412C225.342 110.292 224.718 105.924 222.144 103.272Z" fill="#263238"/>
<path d="M219.57 90.3241C218.946 89.3101 218.322 88.5301 217.074 88.0621C206.466 83.8501 194.22 84.1621 183.222 87.1261C180.336 87.9061 177.294 88.9981 175.89 91.4941V91.6501C175.266 93.2101 176.202 95.3161 177.528 96.4081C178.854 97.5781 180.648 98.1241 182.442 98.5921C190.866 100.776 199.836 100.308 208.494 99.0601C210.522 98.7481 212.55 98.4361 214.5 97.8121C216.45 97.1101 218.244 96.0961 219.414 94.6141C220.506 93.2881 220.428 91.7281 219.57 90.3241Z" fill="#FF725E"/>
<g opacity="0.3">
<path d="M219.57 90.3241C218.946 89.3101 218.322 88.5301 217.074 88.0621C206.466 83.8501 194.22 84.1621 183.222 87.1261C180.336 87.9061 177.294 88.9981 175.89 91.4941V91.6501C175.266 93.2101 176.202 95.3161 177.528 96.4081C178.854 97.5781 180.648 98.1241 182.442 98.5921C190.866 100.776 199.836 100.308 208.494 99.0601C210.522 98.7481 212.55 98.4361 214.5 97.8121C216.45 97.1101 218.244 96.0961 219.414 94.6141C220.506 93.2881 220.428 91.7281 219.57 90.3241Z" fill="black"/>
</g>
<path d="M213.72 83.1481C209.664 78.1561 204.204 75.3481 197.808 75.1921C194.22 75.1141 192.66 75.8941 190.086 76.5961C187.512 77.2981 185.094 78.7021 183.612 80.8861C181.74 83.5381 180.18 86.4241 179.868 89.6221C179.478 92.8981 179.166 96.1741 179.4 99.4501C179.634 102.726 180.57 106.08 182.442 108.732L190.788 110.214C195.39 110.37 200.07 110.526 204.594 109.434C209.118 108.42 213.486 105.924 215.904 102.024C219.18 96.5641 217.776 88.1401 213.72 83.1481Z" fill="#263238"/>
<path d="M206.31 83.0701L195.156 78.6241L192.27 78.9361C185.718 78.9361 181.194 86.1901 181.194 91.4941C181.116 97.4221 181.35 104.598 182.286 108.888C184.158 117.624 191.646 118.326 191.646 118.326C191.646 118.326 191.568 118.56 191.49 121.524L198.9 129.324L208.572 119.808L209.352 85.9561C209.196 84.4741 207.87 83.1481 206.31 83.0701Z" fill="#FFBF9D"/>
<path d="M195.312 106.938C195.234 106.47 195 106.08 194.688 105.768C194.064 105.222 193.05 105.144 192.348 105.612C191.646 106.08 191.256 107.094 191.412 108.03C191.802 108.576 192.426 108.966 193.05 108.966C193.128 108.966 193.284 108.966 193.362 108.966C193.83 108.966 194.376 108.81 194.766 108.42C195.156 108.108 195.39 107.484 195.312 106.938Z" fill="#FF9A6C"/>
<path d="M185.172 98.3581C185.172 98.9821 185.718 99.4501 186.342 99.4501C186.966 99.4501 187.434 98.9821 187.434 98.3581C187.434 97.7341 186.888 97.2661 186.264 97.2661C185.718 97.2661 185.172 97.7341 185.172 98.3581Z" fill="#263238"/>
<path d="M183.144 94.4581C183.3 94.6141 184.08 93.9121 185.328 93.8341C186.576 93.7561 187.434 94.3021 187.59 94.1461C187.668 94.0681 187.512 93.8341 187.122 93.5221C186.732 93.2881 186.03 93.0541 185.328 93.0541C184.548 93.1321 183.924 93.4441 183.612 93.7561C183.144 94.1461 183.066 94.4581 183.144 94.4581Z" fill="#263238"/>
<path d="M190.944 104.052C190.944 103.974 190.164 103.896 188.916 103.818C188.604 103.818 188.292 103.74 188.214 103.584C188.136 103.35 188.214 103.038 188.37 102.648C188.604 101.868 188.916 101.088 189.15 100.23C190.242 96.7981 191.022 93.9901 190.866 93.9121C190.71 93.8341 189.696 96.6421 188.604 100.074C188.37 100.932 188.058 101.712 187.824 102.492C187.746 102.882 187.512 103.272 187.746 103.74C187.824 103.974 188.058 104.13 188.292 104.13C188.526 104.208 188.682 104.208 188.838 104.208C190.164 104.13 190.944 104.13 190.944 104.052Z" fill="#263238"/>
<path d="M191.49 118.404C191.49 118.404 197.418 118.482 203.112 114.582C203.112 114.582 200.304 120.9 191.412 120.51L191.49 118.404Z" fill="#FF9A6C"/>
<path d="M194.532 104.676C194.298 104.676 194.376 106.002 193.362 107.016C192.27 108.03 190.866 107.952 190.866 108.108C190.866 108.186 191.178 108.342 191.802 108.342C192.348 108.342 193.206 108.108 193.908 107.484C194.532 106.86 194.844 106.08 194.844 105.534C194.844 104.988 194.61 104.676 194.532 104.676Z" fill="#263238"/>
<path d="M183.534 90.2461C183.768 90.5581 184.704 90.2461 185.796 90.3241C186.888 90.3241 187.824 90.5581 188.058 90.3241C188.136 90.1681 188.058 89.9341 187.668 89.6221C187.278 89.3101 186.654 89.0761 185.874 89.0761C185.094 89.0761 184.47 89.3101 184.08 89.5441C183.612 89.7781 183.456 90.0901 183.534 90.2461Z" fill="#263238"/>
<path d="M198.822 97.8121C198.822 98.4361 198.354 98.9041 197.73 98.9821C197.106 99.0601 196.56 98.5921 196.56 97.9681C196.56 97.3441 197.028 96.8761 197.652 96.7981C198.198 96.7981 198.744 97.2661 198.822 97.8121Z" fill="#263238"/>
<path d="M199.602 93.9901C199.446 94.1461 198.588 93.5221 197.34 93.5221C196.092 93.5221 195.234 94.1461 195.078 93.9901C195 93.9121 195.156 93.6781 195.546 93.3661C195.936 93.0541 196.56 92.8201 197.34 92.8201C198.12 92.8201 198.744 93.0541 199.134 93.3661C199.524 93.6781 199.68 93.9121 199.602 93.9901Z" fill="#263238"/>
<path d="M198.822 90.0901C198.588 90.4021 197.652 90.0901 196.482 90.0901C195.39 90.0901 194.376 90.3241 194.142 90.0121C194.064 89.8561 194.22 89.6221 194.61 89.3101C195 89.0761 195.702 88.8421 196.482 88.8421C197.262 88.8421 197.964 89.0761 198.354 89.3881C198.822 89.7001 198.978 90.0121 198.822 90.0901Z" fill="#263238"/>
<path d="M207.714 100.854C207.714 100.23 208.338 98.5921 208.962 98.4361C210.678 98.0461 213.798 98.0461 214.11 102.414C214.5 108.42 208.338 107.562 208.338 107.406C208.338 107.328 207.87 103.116 207.714 100.854Z" fill="#FFBF9D"/>
<path d="M209.898 105.144C209.898 105.144 209.976 105.222 210.21 105.3C210.366 105.378 210.678 105.378 210.99 105.3C211.614 105.066 212.082 103.974 212.082 102.882C212.082 102.336 211.926 101.79 211.692 101.4C211.458 101.01 211.146 100.698 210.834 100.62C210.522 100.542 210.288 100.776 210.21 100.932C210.132 101.088 210.21 101.244 210.132 101.244C210.132 101.244 209.976 101.166 210.054 100.932C210.054 100.776 210.132 100.698 210.288 100.542C210.444 100.386 210.6 100.308 210.834 100.386C211.302 100.386 211.77 100.776 212.004 101.244C212.238 101.712 212.472 102.258 212.472 102.882C212.472 104.13 211.926 105.3 211.068 105.534C210.678 105.69 210.288 105.534 210.132 105.456C209.898 105.3 209.82 105.144 209.898 105.144Z" fill="#FF9A6C"/>
<path d="M209.274 98.5141L207.714 100.074C201.162 93.7561 188.214 78.0001 188.994 78.9361C188.994 78.9361 193.518 77.0641 198.432 77.9221C203.346 78.7801 212.628 81.1981 212.472 86.9701C212.316 92.7421 209.274 98.5141 209.274 98.5141Z" fill="#263238"/>
<path d="M217.386 97.188C217.386 97.188 217.386 97.032 217.308 96.876C217.23 96.642 217.074 96.33 216.918 95.94C216.528 95.16 215.748 94.068 214.5 93.132C213.252 92.118 211.536 91.338 209.586 90.714C207.636 90.09 205.374 89.544 203.19 88.608C201.006 87.672 199.056 86.502 197.418 85.254C195.78 84.006 194.376 82.758 193.284 81.588C192.192 80.418 191.412 79.404 190.944 78.702C190.71 78.39 190.476 78.078 190.32 77.844C190.164 77.688 190.086 77.532 190.086 77.532C190.086 77.532 190.164 77.61 190.242 77.844C190.398 78.078 190.554 78.312 190.788 78.702C191.256 79.404 192.036 80.496 193.128 81.666C194.22 82.836 195.546 84.162 197.184 85.41C198.822 86.658 200.85 87.828 203.034 88.764C205.218 89.7 207.48 90.246 209.43 90.87C211.38 91.494 213.096 92.274 214.344 93.21C215.592 94.146 216.372 95.16 216.84 95.94C217.23 96.72 217.308 97.188 217.386 97.188Z" fill="#455A64"/>
<path d="M215.67 98.124C215.67 98.124 215.748 97.656 215.436 96.798C215.124 96.018 214.5 94.848 213.252 93.99C212.004 93.054 210.288 92.508 208.338 92.04C206.388 91.572 204.282 91.026 202.254 90.09C200.226 89.154 198.354 87.906 196.794 86.658C195.234 85.41 193.986 84.084 193.05 82.914C192.114 81.744 191.412 80.73 190.944 80.028C190.71 79.716 190.554 79.404 190.476 79.17C190.398 79.014 190.32 78.858 190.32 78.858C190.32 78.858 190.32 78.936 190.476 79.17C190.632 79.404 190.71 79.716 190.944 80.028C191.412 80.73 192.036 81.822 192.972 82.992C193.908 84.162 195.156 85.566 196.716 86.814C198.276 88.14 200.148 89.31 202.176 90.324C204.282 91.338 206.388 91.884 208.338 92.274C210.288 92.742 212.004 93.288 213.174 94.146C214.422 95.004 215.124 96.096 215.358 96.876C215.67 97.656 215.592 98.124 215.67 98.124Z" fill="#455A64"/>
<path d="M179.712 90.792C179.712 90.792 184.548 87.984 190.632 87.828C207.714 87.438 217.542 92.43 217.542 92.43C217.464 91.26 217.152 89.778 216.762 88.14C216.762 88.14 192.582 85.02 192.426 85.02C192.27 85.02 184.782 86.346 184.626 86.424C184.47 86.502 180.024 87.282 180.024 87.282L179.712 90.792Z" fill="#455A64"/>
<path d="M175.812 91.728C175.812 91.728 177.996 86.814 197.418 86.814C216.294 86.814 220.272 92.196 220.272 92.196C220.272 92.196 220.272 88.686 216.762 87.048C216.762 87.048 216.684 79.716 211.146 74.022C209.196 71.994 205.686 70.278 204.906 69.732L204.75 68.562C204.75 68.562 203.424 67.236 197.106 67.236C190.554 67.314 189.306 69.186 189.306 69.186L189.228 70.2C189.228 70.2 179.322 74.802 178.854 86.892C178.776 87.048 175.344 89.31 175.812 91.728Z" fill="#FF725E"/>
<g opacity="0.3">
<path d="M190.086 73.71C190.008 71.994 189.774 70.434 189.306 69.264L189.228 70.278C189.774 72.774 190.086 75.894 190.242 78.858C190.164 77.142 190.164 75.426 190.086 73.71Z" fill="black"/>
</g>
<g opacity="0.3">
<path d="M204.75 68.562C203.736 69.732 202.02 71.76 201.708 73.476C201.396 75.192 201.396 76.908 201.474 78.624C202.41 72.93 203.268 72.072 204.906 69.732L204.75 68.562Z" fill="black"/>
</g>
<path d="M216.762 87.0481C216.762 87.0481 216.606 87.0481 216.372 86.9701C216.06 86.8921 215.748 86.8141 215.28 86.6581C214.812 86.5021 214.266 86.3461 213.564 86.1901C212.862 86.0341 212.16 85.8001 211.224 85.6441C207.792 84.9421 202.956 84.1621 197.652 84.0061C192.27 83.8501 187.434 84.3181 184.08 85.0981C183.222 85.3321 182.442 85.5661 181.818 85.7221C181.194 85.9561 180.57 86.1901 180.18 86.3461C179.79 86.5801 179.478 86.7361 179.166 86.8921C178.932 86.9701 178.776 87.0481 178.776 87.0481C178.776 87.0481 178.854 86.9701 179.088 86.8141C179.322 86.6581 179.712 86.5021 180.102 86.2681C180.57 86.0341 181.116 85.8001 181.74 85.5661C182.364 85.3321 183.144 85.0981 184.002 84.8641C187.434 84.0061 192.348 83.4601 197.652 83.6941C203.034 83.8501 207.87 84.6301 211.302 85.4101C212.16 85.5661 212.94 85.8001 213.564 86.0341C214.266 86.1901 214.812 86.4241 215.28 86.5801C215.67 86.7361 216.06 86.8921 216.372 86.9701C216.606 86.9701 216.762 87.0481 216.762 87.0481Z" fill="#263238"/>
<path d="M204.75 68.562C204.828 68.562 204.438 69.108 203.814 69.888C203.19 70.668 202.332 71.682 201.942 73.086C201.552 74.49 201.474 75.816 201.474 76.83C201.474 77.766 201.552 78.39 201.474 78.39C201.396 78.39 201.24 77.766 201.162 76.83C201.084 75.816 201.084 74.412 201.552 73.008C202.02 71.526 202.956 70.434 203.58 69.732C204.282 68.952 204.75 68.562 204.75 68.562Z" fill="#263238"/>
<path d="M190.242 78.546C190.086 78.546 190.086 76.44 189.852 73.866C189.618 71.292 189.228 69.186 189.306 69.186C189.384 69.186 190.008 71.214 190.242 73.788C190.476 76.44 190.32 78.546 190.242 78.546Z" fill="#263238"/>
<g opacity="0.3">
<path d="M188.916 72.462C188.916 72.228 188.916 71.916 188.76 71.76C188.604 71.604 188.292 71.526 188.058 71.604C187.824 71.682 187.59 71.76 187.356 71.916C182.91 74.958 179.946 80.028 179.478 85.41C179.478 85.644 179.712 85.878 179.946 85.722C181.974 84.552 184.236 83.772 186.498 83.304C187.278 83.148 188.37 83.148 188.682 82.446C188.838 81.978 188.838 81.51 188.838 81.042C188.916 78.078 188.916 75.27 188.916 72.462Z" fill="white"/>
</g>
<path d="M33.5254 209.557L31.0936 210.961L42.0136 229.874L44.4454 228.47L33.5254 209.557Z" fill="#E0E0E0"/>
<path d="M33.306 206.154L33.384 209.352L30.732 210.912L28.002 209.196C27.846 210.132 27.924 211.146 28.47 212.004C29.562 213.954 32.058 214.578 34.008 213.486C35.958 212.394 36.582 209.898 35.49 207.948C35.022 207.09 34.242 206.466 33.306 206.154Z" fill="#E0E0E0"/>
<path d="M42.0418 211.47L39.9478 212.679L49.3078 228.89L51.4018 227.681L42.0418 211.47Z" fill="#E0E0E0"/>
<path d="M41.886 208.572L41.964 211.302L39.702 212.628L37.362 211.146C37.206 211.926 37.284 212.784 37.752 213.564C38.688 215.202 40.872 215.826 42.51 214.812C44.148 213.876 44.772 211.692 43.758 210.054C43.29 209.352 42.588 208.806 41.886 208.572Z" fill="#E0E0E0"/>
<path d="M48.36 124.098C48.36 124.098 48.828 122.616 53.742 120.744C58.656 118.872 70.512 114.816 70.512 114.816C70.512 114.816 73.32 118.95 80.73 119.262C87.516 119.574 91.494 114.192 91.494 114.192C91.494 114.192 112.242 119.496 112.32 119.964C112.32 120.432 109.59 152.334 109.59 152.334L105.846 189.852L54.912 190.71L54.288 153.816L48.36 124.098Z" fill="#E0E0E0"/>
<path d="M48.906 123.318C48.438 123.708 32.994 152.022 32.994 152.022C32.994 152.022 47.19 161.85 50.388 162.084L54.444 154.596L48.906 123.318Z" fill="#E0E0E0"/>
<path d="M112.32 119.964L112.866 120.354C115.596 122.304 118.014 124.722 119.886 127.452L132.99 147.186L117 158.652L109.98 147.42L107.25 135.33L112.32 119.964Z" fill="#E0E0E0"/>
<path d="M112.32 128.856C112.32 128.856 112.32 129.168 112.242 129.636C112.164 130.26 112.008 130.962 111.93 131.82C111.618 133.692 111.306 136.188 110.994 139.074C110.682 141.882 110.448 144.456 110.292 146.328C110.214 147.186 110.136 147.888 110.136 148.512C110.058 149.058 110.058 149.292 110.058 149.292C110.058 149.292 109.98 148.98 109.98 148.512C109.98 147.966 109.98 147.264 109.98 146.328C110.058 144.456 110.214 141.882 110.526 138.996C110.838 136.188 111.228 133.614 111.618 131.742C111.774 130.806 111.93 130.104 112.086 129.558C112.164 129.09 112.242 128.856 112.32 128.856Z" fill="#263238"/>
<path d="M52.65 131.898C52.728 131.898 53.274 137.436 53.82 144.378C54.366 151.242 54.756 156.858 54.6 156.858C54.522 156.858 53.976 151.32 53.43 144.378C52.884 137.514 52.572 131.898 52.65 131.898Z" fill="#263238"/>
<path d="M64.428 78.156C62.634 78.312 60.762 76.986 60.372 75.192C59.982 73.398 61.152 71.37 62.946 70.824C61.854 69.654 61.542 67.704 62.322 66.3C63.102 64.896 64.818 64.038 66.456 64.272C66.534 62.634 67.548 61.152 68.952 60.372C70.356 59.592 72.228 59.67 73.554 60.528C75.348 59.046 78.234 59.046 80.028 60.528C81.588 60.294 83.304 61.152 84.006 62.556C84.708 63.96 84.396 65.832 83.226 66.924" fill="#263238"/>
<path d="M80.808 64.194H79.95C71.604 64.116 64.662 70.356 63.882 78.624C63.18 86.346 62.478 94.848 62.478 98.982C62.478 107.562 70.98 108.966 70.98 108.966L70.122 119.262L90.87 118.872L93.21 81.588C94.146 72.774 89.7 64.818 80.808 64.194Z" fill="#AE7461"/>
<path d="M70.902 108.966C70.902 108.966 76.362 109.356 82.134 105.846C82.134 105.846 79.404 112.008 70.902 111.072V108.966Z" fill="#6F4439"/>
<path d="M67.236 86.424C67.236 87.048 67.704 87.594 68.406 87.672C69.108 87.75 69.654 87.204 69.654 86.58C69.654 85.956 69.186 85.41 68.484 85.332C67.86 85.254 67.314 85.8 67.236 86.424Z" fill="#263238"/>
<path d="M65.6761 82.836C65.8321 82.992 66.7681 82.29 68.0941 82.368C69.4201 82.368 70.3561 83.07 70.5121 82.914C70.5901 82.836 70.4341 82.524 70.0441 82.212C69.6541 81.9 68.9521 81.588 68.0941 81.588C67.2361 81.588 66.6121 81.9 66.1441 82.212C65.7541 82.524 65.5981 82.758 65.6761 82.836Z" fill="#263238"/>
<path d="M79.248 86.346C79.248 86.97 79.716 87.516 80.418 87.594C81.12 87.672 81.666 87.126 81.666 86.502C81.666 85.878 81.198 85.332 80.496 85.254C79.872 85.176 79.248 85.644 79.248 86.346Z" fill="#263238"/>
<path d="M78.6241 83.304C78.7801 83.46 79.7161 82.758 81.0421 82.836C82.3681 82.836 83.3041 83.538 83.4601 83.382C83.5381 83.304 83.3821 82.992 82.9921 82.68C82.6021 82.368 81.9001 82.056 81.0421 82.056C80.1841 82.056 79.5601 82.368 79.0921 82.68C78.7021 82.914 78.5461 83.226 78.6241 83.304Z" fill="#263238"/>
<path d="M73.71 92.976C73.71 92.898 72.93 92.742 71.604 92.586C71.292 92.586 70.98 92.508 70.902 92.274C70.824 92.04 70.98 91.65 71.136 91.26C71.448 90.48 71.838 89.622 72.15 88.686C73.554 85.098 74.646 82.056 74.49 82.056C74.334 81.978 73.086 84.864 71.604 88.53C71.292 89.388 70.902 90.246 70.59 91.104C70.434 91.494 70.2 91.884 70.434 92.43C70.512 92.664 70.746 92.898 70.98 92.898C71.214 92.976 71.37 92.976 71.526 92.976C72.852 93.054 73.71 93.054 73.71 92.976Z" fill="#263238"/>
<path d="M77.532 78.234C77.688 78.546 78.858 78.234 80.184 78.234C81.588 78.156 82.758 78.468 82.836 78.078C82.914 77.922 82.68 77.61 82.134 77.376C81.666 77.064 80.886 76.908 80.028 76.908C79.17 76.908 78.468 77.22 78 77.532C77.688 77.688 77.454 78 77.532 78.234Z" fill="#263238"/>
<path d="M65.6761 77.454C65.9881 77.766 67.0021 77.454 68.3281 77.454C69.6541 77.454 70.7461 77.688 70.9801 77.376C71.0581 77.22 70.9021 76.908 70.4341 76.596C69.9661 76.284 69.1861 76.05 68.2501 76.05C67.3141 76.05 66.5341 76.284 66.1441 76.596C65.7541 76.986 65.5981 77.298 65.6761 77.454Z" fill="#263238"/>
<path d="M64.818 74.724C64.818 74.724 67.158 69.42 69.732 68.172C72.852 66.69 74.178 70.122 77.142 69.342C80.106 68.562 83.148 67.158 86.19 69.498C89.466 72.072 87.906 73.788 88.062 77.61C88.686 93.054 91.416 97.422 92.352 90.168C92.43 89.388 94.692 88.764 95.004 85.41C95.472 81.042 95.706 75.816 94.77 72.696C93.99 70.044 92.508 68.25 89.856 66.222C85.722 63.024 79.95 62.868 75.972 63.258C72.15 63.57 64.506 68.016 64.818 74.724Z" fill="#263238"/>
<path d="M91.806 89.934C91.884 88.608 93.054 87.594 94.38 87.75C95.94 87.906 97.734 88.842 97.578 92.118C97.344 97.968 91.494 96.486 91.494 96.33C91.416 96.252 91.65 92.43 91.806 89.934Z" fill="#AE7461"/>
<path d="M92.82 94.224C92.82 94.224 92.898 94.302 93.054 94.38C93.21 94.458 93.522 94.536 93.834 94.458C94.458 94.224 95.004 93.288 95.082 92.274C95.082 91.728 95.004 91.26 94.848 90.792C94.692 90.324 94.458 90.012 94.146 90.012C93.834 89.934 93.6 90.09 93.522 90.246C93.444 90.402 93.444 90.558 93.444 90.558C93.444 90.558 93.288 90.48 93.366 90.246C93.366 90.168 93.444 90.012 93.6 89.856C93.756 89.778 93.99 89.7 94.146 89.7C94.614 89.778 95.004 90.168 95.16 90.636C95.394 91.104 95.472 91.65 95.472 92.274C95.394 93.444 94.692 94.536 93.834 94.77C93.444 94.848 93.054 94.692 92.898 94.536C92.82 94.38 92.82 94.224 92.82 94.224Z" fill="#6F4439"/>
<path d="M91.806 78.624C91.026 79.17 90.2461 79.638 89.3101 79.716C88.3741 79.794 87.3601 79.248 87.2041 78.312C87.1261 77.922 87.2821 77.454 86.9701 77.142C86.6581 76.752 86.034 76.908 85.566 76.908C83.85 77.064 81.9001 75.192 81.5101 73.476C81.0421 74.1 80.1061 74.334 79.4821 73.866C78.8581 73.398 78.624 73.164 78.078 72.618C77.61 71.994 76.83 71.448 76.05 71.604C75.582 71.682 75.1921 71.916 74.8021 71.838C74.0221 71.76 73.7101 70.824 73.5541 70.122C73.4761 69.342 73.398 68.484 72.696 68.016C72.072 67.626 71.292 67.86 70.59 67.938C69.888 68.016 68.952 67.86 68.796 67.158C68.718 66.768 68.874 66.378 69.108 66.066C70.044 64.662 72.0721 64.038 73.6321 64.662C74.2561 62.712 76.05 61.23 78.078 61.074C80.106 60.918 82.1341 62.01 83.0701 63.804C84.3181 62.712 86.1121 62.244 87.7501 62.634C89.3881 63.024 90.792 64.272 91.416 65.832C92.82 65.442 94.458 66.066 95.316 67.236C96.174 68.406 96.3301 70.122 95.5501 71.37C96.5641 71.994 97.5001 73.008 97.5001 74.256C97.5001 75.504 96.3301 76.674 95.1601 76.362C95.6281 77.298 95.2381 78.624 94.3021 79.092C93.3661 79.638 92.1181 79.248 91.4941 78.39" fill="#263238"/>
<path d="M73.1641 66.456C73.1641 66.456 73.1641 66.456 73.1641 66.534C73.1641 66.612 73.1641 66.69 73.1641 66.846C73.2421 67.08 73.3201 67.548 73.5541 68.016C73.7881 68.484 74.1781 69.03 74.8021 69.42C75.4261 69.81 76.2061 70.2 77.2201 70.122V69.966C77.0641 70.434 77.0641 71.058 77.2981 71.604C77.5321 72.15 77.9221 72.618 78.3121 73.086C78.5461 73.32 78.7021 73.554 78.9361 73.788C79.1701 74.022 79.5601 74.1 79.8721 74.178C80.4961 74.256 81.2761 74.1 81.7441 73.554L81.5101 73.476C81.6661 74.646 82.2901 75.816 83.3041 76.518C83.8501 76.908 84.5521 77.22 85.2541 77.142C85.9561 77.142 86.5801 76.986 87.1261 76.752L86.9701 76.674C87.2821 77.376 87.7501 78 88.2961 78.468C88.8421 78.936 89.6221 79.248 90.3241 79.014C91.7281 78.702 92.6641 77.61 92.8201 76.518L92.6641 76.596C93.3661 76.986 94.0681 76.986 94.6921 76.908C95.3161 76.83 95.7841 76.518 96.0961 76.284C96.4081 76.05 96.6421 75.738 96.7981 75.582C96.8761 75.426 96.9541 75.27 96.9541 75.27C96.9541 75.27 96.7201 75.738 96.0961 76.206C95.7841 76.44 95.3161 76.674 94.6921 76.752C94.1461 76.83 93.4441 76.752 92.8201 76.44L92.7421 76.362V76.518C92.5081 77.532 91.6501 78.546 90.3241 78.858C89.7001 79.014 88.9981 78.78 88.4521 78.312C87.9061 77.844 87.4381 77.298 87.2041 76.596L87.1261 76.518H87.0481C86.5021 76.752 85.8781 76.908 85.2541 76.908C84.6301 76.908 84.0061 76.674 83.4601 76.284C82.4461 75.582 81.9001 74.49 81.7441 73.398V73.086L81.5881 73.32C81.1981 73.788 80.4961 73.944 79.9501 73.866C79.6381 73.788 79.4041 73.71 79.1701 73.554C78.9361 73.398 78.7801 73.164 78.5461 72.93C78.1561 72.462 77.7661 71.994 77.6101 71.526C77.3761 71.058 77.3761 70.512 77.5321 70.044L77.6101 69.888H77.4541C76.5961 69.966 75.7381 69.654 75.1921 69.264C74.5681 68.874 74.1781 68.406 73.9441 67.938C73.1641 67.08 73.2421 66.456 73.1641 66.456Z" fill="#455A64"/>
<path d="M73.944 97.5C73.944 97.266 75.426 97.578 76.674 96.642C78 95.628 78.156 94.068 78.39 94.146C78.468 94.146 78.624 94.536 78.468 95.16C78.312 95.784 77.922 96.642 77.142 97.266C76.362 97.89 75.426 98.046 74.88 97.89C74.256 97.812 73.866 97.578 73.944 97.5Z" fill="#263238"/>
<path d="M57.252 157.638L58.734 141.882L103.272 141.726L108.03 192.738L54.21 194.844L57.252 157.638Z" fill="#FF725E"/>
<path d="M58.89 118.638C58.578 119.106 61.386 140.244 61.386 140.244L68.406 139.932L66.066 115.908C66.066 115.908 60.684 115.908 58.89 118.638Z" fill="#FF725E"/>
<path d="M103.194 117.234C103.662 117.546 100.932 140.4 100.932 140.4L93.912 140.088L95.94 115.206C95.94 115.206 100.152 114.816 103.194 117.234Z" fill="#FF725E"/>
<path d="M69.498 333.294L70.122 349.908C70.122 349.908 53.43 356.148 53.274 359.19L85.566 359.112L85.6441 333.216L69.498 333.294Z" fill="#263238"/>
<path d="M85.5661 359.112L85.4881 356.46L54.6001 357.552C54.6001 357.552 53.1961 358.176 53.3521 359.19L85.5661 359.112Z" fill="#455A64"/>
<path d="M70.1221 349.83C70.1221 349.986 70.9021 350.064 71.6821 350.532C72.4621 351 72.8521 351.702 73.0081 351.624C73.1641 351.624 72.9301 350.688 71.9941 350.064C71.0581 349.518 70.1221 349.674 70.1221 349.83Z" fill="white"/>
<path d="M66.4561 351.468C66.4561 351.624 67.0801 351.858 67.6261 352.56C68.1721 353.184 68.3281 353.964 68.4841 353.886C68.6401 353.886 68.7181 352.95 68.0941 352.17C67.3921 351.312 66.4561 351.312 66.4561 351.468Z" fill="white"/>
<path d="M64.3501 355.524C64.5061 355.524 64.7401 354.744 64.2721 353.886C63.8821 353.028 63.1021 352.716 63.0241 352.794C62.9461 352.95 63.4141 353.418 63.7261 354.12C64.1161 354.822 64.1941 355.524 64.3501 355.524Z" fill="white"/>
<path d="M70.122 345.93C70.2 346.086 70.902 345.852 71.838 345.93C72.696 346.008 73.398 346.242 73.476 346.164C73.554 346.086 72.852 345.462 71.838 345.384C70.746 345.306 70.044 345.852 70.122 345.93Z" fill="white"/>
<path d="M106.704 331.266L108.42 351.312L105.222 367.536C104.988 368.706 105.768 369.798 107.016 369.954C107.718 370.032 108.342 369.798 108.81 369.33C111.696 366.21 122.226 354.588 121.992 353.184C121.758 351.468 121.524 331.89 121.524 331.89L106.704 331.266Z" fill="#263238"/>
<path d="M107.016 370.032L121.914 351.858L121.992 352.716C122.07 353.418 121.836 354.198 121.368 354.744C120.198 356.304 116.844 360.594 108.888 369.408C108.42 369.876 107.718 370.11 107.016 370.032Z" fill="#455A64"/>
<path d="M111.072 360.984C110.994 361.062 110.448 360.048 109.2 359.502C107.952 358.956 106.86 359.346 106.86 359.19C106.86 359.112 107.094 358.956 107.562 358.878C108.03 358.8 108.732 358.8 109.356 359.112C110.058 359.424 110.526 359.892 110.76 360.282C111.072 360.672 111.072 360.984 111.072 360.984Z" fill="white"/>
<path d="M109.824 363.714C109.746 363.792 109.044 363.168 107.952 362.934C106.938 362.7 106.002 362.934 106.002 362.778C105.924 362.7 106.86 362.154 108.108 362.466C109.278 362.856 109.902 363.714 109.824 363.714Z" fill="white"/>
<path d="M113.49 357.318C113.412 357.396 112.32 356.46 110.76 355.992C109.122 355.446 107.718 355.602 107.718 355.524C107.64 355.446 109.122 355.056 110.838 355.602C112.632 356.148 113.568 357.318 113.49 357.318Z" fill="white"/>
<path d="M113.49 351.234C113.412 351.39 112.32 351 110.838 351C109.356 351 108.264 351.468 108.186 351.312C108.108 351.234 109.278 350.532 110.76 350.532C112.398 350.532 113.49 351.156 113.49 351.234Z" fill="white"/>
<path d="M113.256 347.256C113.178 347.412 112.008 346.788 110.526 346.944C108.966 347.1 107.952 347.88 107.874 347.802C107.874 347.724 108.03 347.49 108.498 347.178C108.966 346.866 109.668 346.554 110.448 346.476C111.306 346.398 112.008 346.554 112.476 346.788C113.022 347.022 113.334 347.178 113.256 347.256Z" fill="white"/>
<path d="M52.728 198.51C52.728 198.51 50.31 207.948 51.168 219.492C51.48 223.938 66.612 347.49 66.612 347.49H86.97L81.276 231.426L82.914 231.816C82.914 231.816 93.99 281.346 94.926 289.38C95.706 296.556 105.144 348.972 105.144 348.972L123.708 349.206L117.78 279.942L110.838 213.486L108.264 194.142L52.728 198.51Z" fill="#FF725E"/>
<path d="M76.44 207.402C76.44 207.402 76.518 207.714 76.596 208.338C76.674 209.04 76.752 209.898 76.83 210.912C77.064 213.096 77.376 216.138 77.766 219.492C78.156 222.846 78.624 225.888 78.936 228.072C79.092 229.086 79.17 229.944 79.326 230.646C79.404 231.27 79.404 231.582 79.404 231.582C79.404 231.582 79.326 231.27 79.17 230.646C79.014 230.022 78.858 229.164 78.702 228.072C78.312 225.888 77.844 222.846 77.454 219.492C77.064 216.138 76.83 213.096 76.674 210.834C76.596 209.742 76.596 208.806 76.518 208.182C76.44 207.714 76.44 207.402 76.44 207.402Z" fill="#263238"/>
<path d="M66.768 145.08C66.768 146.016 65.988 146.796 65.052 146.796C64.116 146.796 63.336 146.016 63.336 145.08C63.336 144.144 64.116 143.364 65.052 143.364C65.988 143.364 66.768 144.144 66.768 145.08Z" fill="#263238"/>
<path d="M99.216 145.08C99.216 146.016 98.436 146.796 97.5 146.796C96.564 146.796 95.784 146.016 95.784 145.08C95.784 144.144 96.564 143.364 97.5 143.364C98.436 143.364 99.216 144.144 99.216 145.08Z" fill="#263238"/>
<path d="M68.64 139.932H60.996V141.258H68.64V139.932Z" fill="#263238"/>
<path d="M67.86 141.102C67.938 141.102 67.86 141.804 67.548 142.974C67.392 143.52 67.158 144.222 66.846 144.924C66.69 145.236 66.456 145.626 66.144 145.938C65.832 146.25 65.442 146.562 64.896 146.562C64.35 146.562 63.96 146.25 63.648 145.938C63.336 145.626 63.18 145.236 62.946 144.924C62.556 144.222 62.322 143.598 62.166 143.052C61.854 141.96 61.776 141.258 61.776 141.18C61.854 141.18 62.01 141.882 62.4 142.896C62.634 143.442 62.868 144.066 63.18 144.69C63.336 145.002 63.57 145.314 63.804 145.626C64.038 145.938 64.428 146.172 64.74 146.172C65.052 146.172 65.442 145.938 65.676 145.704C65.91 145.392 66.144 145.08 66.3 144.768C66.69 144.144 66.924 143.442 67.08 142.974C67.626 141.804 67.782 141.102 67.86 141.102Z" fill="#263238"/>
<path d="M101.244 139.932H93.6V141.258H101.244V139.932Z" fill="#263238"/>
<path d="M100.386 141.024C100.464 141.024 100.386 141.726 100.074 142.896C99.918 143.442 99.684 144.144 99.372 144.846C99.216 145.158 98.982 145.548 98.67 145.86C98.358 146.172 97.968 146.484 97.422 146.484C96.876 146.484 96.486 146.172 96.174 145.86C95.862 145.548 95.706 145.158 95.472 144.846C95.082 144.144 94.848 143.52 94.692 142.974C94.38 141.882 94.302 141.18 94.302 141.102C94.38 141.102 94.536 141.804 94.926 142.818C95.16 143.364 95.394 143.988 95.706 144.612C95.862 144.924 96.096 145.236 96.33 145.548C96.564 145.86 96.954 146.094 97.266 146.094C97.578 146.094 97.968 145.86 98.202 145.626C98.436 145.314 98.67 145.002 98.826 144.69C99.216 144.066 99.45 143.364 99.606 142.896C100.23 141.726 100.386 141.024 100.386 141.024Z" fill="#263238"/>
<path d="M65.988 160.134C65.988 159.978 68.406 155.376 70.98 154.44C73.554 153.426 75.972 154.284 78.078 155.064L83.226 157.56L85.098 157.404L90.558 160.524L84.084 170.352L65.988 160.134Z" fill="#455A64"/>
<path d="M65.052 174.33C64.974 174.486 61.698 178.308 60.216 178.308C58.734 178.308 72.15 185.718 72.15 185.718C72.15 185.718 70.59 184.47 70.902 182.13C71.292 179.868 73.008 177.528 73.008 177.528L82.914 169.416L71.838 163.254C71.838 163.254 67.626 171.21 65.052 174.33Z" fill="#455A64"/>
<path d="M75.301 185.925L58.3464 176.136L54.2904 183.161L71.245 192.95L75.301 185.925Z" fill="#455A64"/>
<path d="M84.942 169.182L95.394 173.16L98.67 167.622L89.778 161.46C89.778 161.46 87.204 160.914 85.566 163.878C84.084 166.608 84.942 169.182 84.942 169.182Z" fill="#E0E0E0"/>
<path d="M95.004 169.26C94.146 170.82 94.38 172.614 95.472 173.16C96.564 173.706 98.046 172.848 98.904 171.288C99.762 169.728 99.528 167.934 98.436 167.388C97.344 166.842 95.784 167.7 95.004 169.26Z" fill="#E0E0E0"/>
<path d="M97.578 170.508C97.188 171.366 97.422 172.224 97.968 172.536C98.514 172.77 99.294 172.302 99.684 171.444C100.074 170.586 99.84 169.728 99.294 169.416C98.67 169.182 97.89 169.65 97.578 170.508Z" fill="#263238"/>
<path d="M98.358 171.678C98.358 171.756 106.782 175.344 106.782 175.344L107.25 174.33L99.138 170.43C99.138 170.43 98.202 170.586 98.358 171.678Z" fill="#263238"/>
<path d="M98.436 167.466C98.436 167.544 98.046 167.622 97.5 168.012C96.954 168.324 96.252 168.948 95.862 169.884C95.472 170.742 95.472 171.678 95.55 172.302C95.628 172.926 95.862 173.316 95.784 173.316C95.784 173.316 95.472 173.004 95.316 172.302C95.16 171.678 95.082 170.664 95.55 169.65C96.018 168.636 96.798 168.012 97.422 167.7C98.046 167.388 98.436 167.388 98.436 167.466Z" fill="#263238"/>
<path d="M89.856 161.46C89.856 161.538 89.232 161.46 88.374 161.772C87.516 162.084 86.424 162.942 85.722 164.19C85.02 165.438 84.942 166.842 84.942 167.778C84.942 168.714 85.098 169.338 85.098 169.338C85.02 169.338 84.786 168.792 84.708 167.778C84.708 167.31 84.708 166.686 84.786 166.062C84.864 165.438 85.098 164.736 85.488 164.034C85.878 163.41 86.346 162.786 86.892 162.396C87.438 162.006 87.984 161.694 88.452 161.538C89.232 161.226 89.856 161.46 89.856 161.46Z" fill="#263238"/>
<path d="M83.226 157.638C83.304 157.716 81.666 158.418 80.028 159.9C78.39 161.304 77.454 162.864 77.376 162.786C77.298 162.786 78.078 161.07 79.794 159.588C81.51 158.106 83.226 157.482 83.226 157.638Z" fill="#263238"/>
<path d="M35.958 154.284C36.036 154.674 30.42 166.53 31.59 171.6C32.76 176.67 39.702 180.57 44.304 179.478C48.906 178.386 58.968 173.628 58.968 173.628L59.67 163.878L46.41 163.956L47.346 160.992L35.958 154.284Z" fill="#AE7461"/>
<path d="M84.318 172.614C84.318 172.614 83.148 170.274 81.744 168.714C80.34 167.154 74.802 163.566 72.462 162.942C70.2 162.24 59.592 163.878 59.592 163.878L58.89 173.628L61.308 174.408C61.308 174.408 63.336 176.28 65.988 176.67C68.64 177.06 72.384 179.79 73.086 179.634C73.788 179.478 74.412 177.996 74.412 177.996C74.412 177.996 76.908 179.166 77.142 176.436C77.142 176.436 79.326 175.968 79.248 174.408C79.17 172.848 75.504 169.182 75.504 169.182C75.504 169.182 78.39 170.352 79.872 171.99C81.354 173.628 83.148 174.876 83.694 174.408C84.24 174.018 84.318 173.16 84.318 173.16" fill="#AE7461"/>
<path d="M77.454 176.202C77.376 176.28 76.44 175.11 75.114 173.94C73.788 172.77 72.462 171.99 72.54 171.912C72.618 171.834 74.022 172.458 75.348 173.706C76.752 174.798 77.532 176.124 77.454 176.202Z" fill="#6F4439"/>
<path d="M75.036 178.386C74.958 178.464 74.1 177.216 72.618 176.202C71.916 175.734 71.136 175.344 70.668 174.954C70.2 174.564 70.044 174.174 70.122 174.174C70.2 174.174 70.356 174.486 70.902 174.798C71.37 175.11 72.15 175.422 72.93 175.968C74.412 176.904 75.114 178.308 75.036 178.386Z" fill="#6F4439"/>
<path d="M46.254 164.034C46.254 164.112 45.63 163.8 44.694 163.41C43.758 163.098 42.354 162.708 40.794 162.708C39.234 162.708 37.83 162.942 36.894 163.254C35.958 163.566 35.334 163.8 35.334 163.8C35.334 163.8 35.88 163.41 36.816 163.02C37.752 162.63 39.234 162.318 40.794 162.318C42.432 162.396 43.836 162.786 44.772 163.176C45.708 163.644 46.254 164.034 46.254 164.034Z" fill="#6F4439"/>
<path d="M101.478 201.63C101.4 202.566 98.826 250.692 101.166 252.798C103.428 254.904 118.638 250.77 118.794 250.926C119.028 251.004 130.338 231.66 128.31 227.292C126.282 222.924 111.774 201.942 111.774 201.942L109.668 196.248L101.478 201.63Z" fill="#455A64"/>
<path d="M52.494 199.368C52.182 199.524 46.878 211.848 46.878 211.848C46.878 211.848 33.696 221.13 33.852 224.172C34.008 227.214 45.63 250.77 49.452 250.536C53.274 250.302 53.586 243.048 53.586 243.048L54.21 201.318L52.494 199.368Z" fill="#455A64"/>
<path d="M111.061 192.594L51.9845 194.903L52.4172 205.97L111.494 203.661L111.061 192.594Z" fill="#455A64"/>
<path d="M52.806 206.778C52.728 206.778 52.572 206.154 52.416 205.14C52.26 204.126 52.026 202.722 51.87 201.24C51.714 199.68 51.636 198.276 51.636 197.262C51.636 196.248 51.636 195.624 51.714 195.624C51.792 195.624 52.026 198.12 52.338 201.162C52.65 204.282 52.962 206.778 52.806 206.778Z" fill="#263238"/>
<path d="M79.716 205.14C79.638 205.14 79.248 202.722 78.936 199.68C78.624 196.638 78.39 194.142 78.546 194.142C78.624 194.142 79.014 196.56 79.326 199.602C79.638 202.644 79.872 205.062 79.716 205.14Z" fill="#263238"/>
<path d="M128.232 228.306C128.232 228.306 128.076 228.384 127.842 228.462C127.608 228.54 127.14 228.618 126.672 228.774C125.658 229.008 124.098 229.32 122.148 229.476C120.198 229.632 117.858 229.554 115.44 228.774C114.192 228.384 112.944 227.838 111.852 226.98C110.682 226.2 109.668 225.108 108.81 223.938C107.094 221.52 106.08 218.868 105.3 216.45C104.442 214.032 103.818 211.848 103.272 210.054C102.726 208.182 102.414 206.7 102.18 205.686C102.102 205.14 101.946 204.75 101.946 204.438C101.868 204.126 101.868 204.048 101.868 204.048C101.868 204.048 101.946 204.204 102.024 204.438C102.102 204.75 102.18 205.14 102.336 205.608C102.648 206.622 103.038 208.104 103.584 209.976C104.13 211.77 104.832 213.954 105.69 216.372C106.548 218.712 107.562 221.364 109.2 223.704C110.058 224.874 110.994 225.888 112.164 226.668C113.256 227.448 114.504 227.994 115.674 228.384C118.092 229.164 120.354 229.242 122.226 229.164C124.098 229.086 125.658 228.774 126.672 228.618C127.14 228.54 127.53 228.462 127.92 228.384C128.076 228.306 128.232 228.306 128.232 228.306Z" fill="#263238"/>
<path d="M130.572 148.824C131.04 149.994 136.812 161.304 137.124 166.608C137.436 171.99 127.374 202.644 127.374 202.644L118.794 198.276L123.864 167.232L118.872 157.092L130.572 148.824Z" fill="#AE7461"/>
<path d="M111.774 201.864C112.008 201.864 117.078 201.318 118.794 198.276C120.51 195.234 127.374 202.644 127.374 202.644C127.374 202.644 127.53 206.466 126.672 208.65C125.814 210.834 125.034 212.316 125.034 212.316C125.034 212.316 124.41 216.84 123.942 217.776C123.474 218.712 120.978 221.286 120.276 220.974C119.574 220.662 118.95 220.116 119.574 219.414C120.276 218.634 121.914 216.996 121.914 216.372C121.914 215.748 121.134 213.096 121.134 213.096C121.134 213.096 118.17 221.598 117.468 222.3C116.766 223.002 115.128 223.158 115.128 223.158C115.128 223.158 113.646 224.562 112.632 224.094C111.618 223.626 112.554 221.364 112.554 221.364C112.554 221.364 114.582 212.238 114.582 211.926C114.582 211.692 112.866 212.628 112.632 214.578C112.398 216.528 112.71 220.35 111.072 220.35C109.356 220.35 109.824 215.046 109.902 212.784C109.98 210.6 110.838 209.976 111.384 208.572C111.774 207.09 111.774 201.864 111.774 201.864Z" fill="#AE7461"/>
</svg>
