<svg width="20" height="20" viewBox="0 0 20 20" fill="none" xmlns="http://www.w3.org/2000/svg">
<path fill-rule="evenodd" clip-rule="evenodd" d="M9.99999 4C7.79086 4 6 5.567 6 7.5C6 9.43296 7.79086 11 9.99999 11C12.2092 11 14 9.43296 14 7.5C14 5.567 12.2092 4 9.99999 4ZM7.99998 7.5C7.99998 6.5335 8.89539 5.75 9.99999 5.75C11.1046 5.75 12 6.5335 12 7.5C12 8.46653 11.1046 9.25 9.99999 9.25C8.89539 9.25 7.99998 8.46653 7.99998 7.5Z" fill="#FF9500"/>
<path fill-rule="evenodd" clip-rule="evenodd" d="M17.3281 16.8044C15.502 18.7701 12.8946 20 10 20C4.47715 20 0 15.5228 0 10C0 4.47715 4.47715 0 10 0C15.5228 0 20 4.47715 20 10C20 12.5636 19.0353 14.9019 17.4492 16.6717C17.4574 16.7043 17.4654 16.7371 17.4732 16.7701L17.3281 16.8044ZM2 10C2 5.58172 5.58172 2 10 2C14.4183 2 18 5.58172 18 10C18 11.7512 17.4373 13.3709 16.483 14.6883C16.4787 14.6833 16.4745 14.6783 16.4702 14.6733C15.9897 14.1093 15.3996 13.7355 14.7537 13.4902C13.5207 13.0218 11.9981 13 10.5 13H9.5C8.0157 13 6.58663 13.0178 5.4546 13.5071C4.72237 13.8235 4.15855 14.3097 3.73753 14.9786C2.6499 13.6123 2 11.8821 2 10ZM5.23094 16.4237C6.56265 17.414 8.2129 18 10 18C11.9364 18 13.7121 17.312 15.096 16.1672C15.048 16.0951 14.9985 16.0298 14.9479 15.9704C14.7202 15.7032 14.4289 15.5062 14.0436 15.3598C13.2144 15.0449 12.0755 15 10.5 15H9.5C7.91075 15 6.9284 15.0489 6.2481 15.3429C5.85089 15.5146 5.50217 15.7968 5.23094 16.4237Z" fill="#FF9500"/>
</svg>
