<svg width="71" height="63" viewBox="0 0 71 63" fill="none" xmlns="http://www.w3.org/2000/svg">
<path fill-rule="evenodd" clip-rule="evenodd" d="M62.125 9.3125H55.4688L53.25 4.875C51.9432 2.29459 51.262 0.4375 48.8125 0.4375H22.1875C19.738 0.4375 18.9259 2.55419 17.75 4.875L15.5312 9.3125H8.875C3.97378 9.3125 0 13.2863 0 18.1875V53.6875C0 58.5887 3.97378 62.5625 8.875 62.5625H62.125C67.0262 62.5625 71 58.5887 71 53.6875V18.1875C71 13.2863 67.0262 9.3125 62.125 9.3125ZM35.5 53.6875C25.6976 53.6875 17.75 45.7399 17.75 35.9375C17.75 26.1351 25.6976 18.1875 35.5 18.1875C45.3024 18.1875 53.25 26.1351 53.25 35.9375C53.25 45.7399 45.3024 53.6875 35.5 53.6875ZM35.5 22.625C28.1493 22.625 22.1875 28.5868 22.1875 35.9375C22.1875 43.2882 28.1493 49.25 35.5 49.25C42.8507 49.25 48.8125 43.2882 48.8125 35.9375C48.8125 28.5868 42.8507 22.625 35.5 22.625Z" fill="black"/>
</svg>
