<svg width="363" height="330" viewBox="0 0 363 330" fill="none" xmlns="http://www.w3.org/2000/svg">
<g filter="url(#filter0_d_498_7)">
<g clip-path="url(#clip0_498_7)">
<rect width="355" height="322" rx="20" fill="#FF9500"/>
<path d="M201.78 249.4L195.8 213.26L157.06 214.82L147.18 263.7L110.78 260.58L157.32 72.08L205.42 76.24L239.48 252.52L201.78 249.4ZM178.9 106.14L162.52 187L191.64 185.96L178.9 106.14Z" fill="#F0F0F0"/>
<path d="M201.78 249.4L200.793 249.563L200.921 250.332L201.698 250.397L201.78 249.4ZM195.8 213.26L196.787 213.097L196.642 212.225L195.76 212.261L195.8 213.26ZM157.06 214.82L157.02 213.821L156.235 213.852L156.08 214.622L157.06 214.82ZM147.18 263.7L147.095 264.696L147.983 264.773L148.16 263.898L147.18 263.7ZM110.78 260.58L109.809 260.34L109.529 261.476L110.695 261.576L110.78 260.58ZM157.32 72.08L157.406 71.0837L156.554 71.01L156.349 71.8403L157.32 72.08ZM205.42 76.24L206.402 76.0503L206.259 75.3088L205.506 75.2437L205.42 76.24ZM239.48 252.52L239.398 253.517L240.712 253.625L240.462 252.33L239.48 252.52ZM178.9 106.14L179.888 105.982L177.92 105.941L178.9 106.14ZM162.52 187L161.54 186.801L161.288 188.045L162.556 187.999L162.52 187ZM191.64 185.96L191.676 186.959L192.806 186.919L192.628 185.802L191.64 185.96ZM202.767 249.237L196.787 213.097L194.813 213.423L200.793 249.563L202.767 249.237ZM195.76 212.261L157.02 213.821L157.1 215.819L195.84 214.259L195.76 212.261ZM156.08 214.622L146.2 263.502L148.16 263.898L158.04 215.018L156.08 214.622ZM147.265 262.704L110.865 259.584L110.695 261.576L147.095 264.696L147.265 262.704ZM111.751 260.82L158.291 72.3197L156.349 71.8403L109.809 260.34L111.751 260.82ZM157.234 73.0763L205.334 77.2363L205.506 75.2437L157.406 71.0837L157.234 73.0763ZM204.438 76.4297L238.498 252.71L240.462 252.33L206.402 76.0503L204.438 76.4297ZM239.562 251.523L201.862 248.403L201.698 250.397L239.398 253.517L239.562 251.523ZM177.92 105.941L161.54 186.801L163.5 187.199L179.88 106.339L177.92 105.941ZM162.556 187.999L191.676 186.959L191.604 184.961L162.484 186.001L162.556 187.999ZM192.628 185.802L179.888 105.982L177.913 106.298L190.653 186.118L192.628 185.802Z" fill="#FAFAFA"/>
<path fill-rule="evenodd" clip-rule="evenodd" d="M39.3929 -184.273C59.3636 -164.471 59.3742 -132.699 69.3216 -106.403C75.0939 -91.1433 73.7395 -71.7019 86.0357 -60.9706C107.541 -42.2017 150.239 -50.5954 162.688 -24.9183C172.691 -4.28803 142.981 15.639 133.239 36.3869C124.249 55.5343 122.938 79.414 107.111 93.4547C91.2915 107.489 63.627 99.1157 47.3342 112.598C21.9397 133.611 21.8031 187.166 -10.9315 191.132C-40.6356 194.73 -58.2769 153.461 -72.4236 127.105C-84.2225 105.124 -66.149 71.0041 -84.4933 54.0877C-106.892 33.4327 -150.2 55.0152 -172.781 34.5596C-191.793 17.337 -200.101 -17.1791 -188.279 -39.9297C-174.798 -65.8728 -130.873 -59.2721 -112.29 -81.8468C-96.9481 -100.484 -108.147 -130.625 -96.3053 -151.658C-82.3351 -176.474 -66.0613 -206.513 -38.3577 -213.172C-11.1813 -219.703 19.5459 -203.952 39.3929 -184.273Z" fill="#FAFAFA"/>
<path fill-rule="evenodd" clip-rule="evenodd" d="M536.446 368.446C517.763 389.467 486.039 391.212 460.325 402.579C445.403 409.176 425.917 408.884 415.872 421.748C398.305 444.246 409.016 486.421 384.057 500.254C364.003 511.367 342.484 482.789 321.236 474.194C301.626 466.263 277.711 466.256 262.827 451.219C247.951 436.189 254.802 408.109 240.451 392.576C218.083 368.366 164.6 371.152 158.854 338.683C153.64 309.219 193.885 289.352 219.429 273.788C240.734 260.807 275.789 276.992 291.679 257.752C311.081 234.26 287.168 192.194 306.361 168.53C322.52 148.607 356.531 138.427 379.893 148.99C406.533 161.036 402.339 205.255 425.895 222.578C445.341 236.88 474.826 224.054 496.474 234.73C522.015 247.325 552.898 261.935 561.058 289.234C569.063 316.014 555.013 347.555 536.446 368.446Z" fill="#F0F0F0"/>
</g>
</g>
<defs>
<filter id="filter0_d_498_7" x="0" y="0" width="363" height="330" filterUnits="userSpaceOnUse" color-interpolation-filters="sRGB">
<feFlood flood-opacity="0" result="BackgroundImageFix"/>
<feColorMatrix in="SourceAlpha" type="matrix" values="0 0 0 0 0 0 0 0 0 0 0 0 0 0 0 0 0 0 127 0" result="hardAlpha"/>
<feOffset dx="4" dy="4"/>
<feGaussianBlur stdDeviation="2"/>
<feComposite in2="hardAlpha" operator="out"/>
<feColorMatrix type="matrix" values="0 0 0 0 0 0 0 0 0 0 0 0 0 0 0 0 0 0 0.25 0"/>
<feBlend mode="normal" in2="BackgroundImageFix" result="effect1_dropShadow_498_7"/>
<feBlend mode="normal" in="SourceGraphic" in2="effect1_dropShadow_498_7" result="shape"/>
</filter>
<clipPath id="clip0_498_7">
<rect width="355" height="322" rx="20" fill="white"/>
</clipPath>
</defs>
</svg>
