<svg width="53" height="53" viewBox="0 0 53 53" fill="none" xmlns="http://www.w3.org/2000/svg">
<circle cx="26.5" cy="26.5" r="26" stroke="#FF9500" stroke-opacity="0.5"/>
<g clip-path="url(#clip0_809_285)">
<path d="M42.8512 26.4655L33.5336 22.7254L37.2718 13.4096C37.4934 12.8582 37.487 12.2413 37.2538 11.6946C37.0206 11.1479 36.5799 10.7162 36.0284 10.4945L36.0258 10.4932L30.7604 8.38015C30.2089 8.15848 29.5919 8.16499 29.0452 8.39823C28.4984 8.63147 28.0668 9.07235 27.8451 9.62387L27.844 9.62617L24.1054 18.9409L14.788 15.2012C14.2363 14.9811 13.6199 14.9886 13.0737 15.2221C12.5275 15.4556 12.0961 15.8959 11.8739 16.4468L8.96902 23.6857C8.74792 24.2375 8.7549 24.8544 8.98842 25.4009C9.22193 25.9475 9.66288 26.379 10.2144 26.6006L19.5303 30.3398L15.4462 40.5161L18.2691 47.1234L24.8753 44.301L28.9589 34.1242L38.2774 37.8646C38.8293 38.0838 39.4456 38.0759 39.9917 37.8426C40.5379 37.6093 40.9696 37.1694 41.1928 36.619L44.0964 29.3801C44.3174 28.8285 44.3104 28.2116 44.0769 27.6651C43.8434 27.1187 43.4026 26.6872 42.8512 26.4655ZM29.9175 10.4585L35.1976 12.5775L31.4596 21.8927L26.1795 19.7737L29.9175 10.4585ZM23.5716 42.4207L19.4496 44.1818L17.8684 40.4809L21.6043 31.1727L27.0127 33.3438L23.5716 42.4207ZM39.1132 35.785L11.0498 24.5211L13.9551 17.2827L19.5263 19.5179L18.1973 22.8306L20.2784 23.6648L21.6062 20.3531L27.6797 22.7904L26.349 26.1032L28.4308 26.937L29.7597 23.6249L35.834 26.0626L34.5046 29.3736L36.5849 30.2092L37.9139 26.8977L42.0185 28.5451L39.1132 35.785Z" fill="#FF9500" fill-opacity="0.5"/>
</g>
<defs>
<clipPath id="clip0_809_285">
<rect width="35.8598" height="35.8598" fill="white" transform="translate(3 17.0887) rotate(-23.1341)"/>
</clipPath>
</defs>
</svg>
