<svg width="220" height="40" viewBox="0 0 220 40" fill="none" xmlns="http://www.w3.org/2000/svg">
<path d="M2.28308 0H37.7169C38.918 0 40 1.08196 40 2.28308V37.7169C40 38.918 38.918 40 37.7169 40H2.28308C1.08196 40 0 38.918 0 37.7169V2.28308C0 1.08196 1.08196 0 2.28308 0ZM28.4059 22.4599H33.931L34.1712 17.175H28.4059V13.2718C28.4059 11.7709 28.7057 10.9292 30.6275 10.9292H33.9906L34.1117 6.00365C34.1117 6.00365 32.6107 5.76343 30.4487 5.76343C25.1638 5.76343 22.8212 9.06697 22.8212 12.6107V17.175H18.918V22.4599H22.8212V37.1135H28.4059V22.4599Z" fill="#989898"/>
<path d="M199.982 18.1636C198.978 18.1636 198.164 18.9776 198.164 19.9818C198.164 20.9859 198.978 21.7999 199.982 21.7999C200.986 21.7999 201.8 20.9859 201.8 19.9818C201.8 18.9776 200.986 18.1636 199.982 18.1636Z" fill="#989898"/>
<path fill-rule="evenodd" clip-rule="evenodd" d="M200.018 30.9271C206.043 30.9271 210.927 26.0429 210.927 20.018C210.927 13.9931 206.043 9.10889 200.018 9.10889C193.993 9.10889 189.109 13.9931 189.109 20.018C189.109 26.0429 193.993 30.9271 200.018 30.9271ZM200.018 27.2907C204.035 27.2907 207.291 24.0345 207.291 20.018C207.291 16.0014 204.035 12.7453 200.018 12.7453C196.002 12.7453 192.745 16.0014 192.745 20.018C192.745 24.0345 196.002 27.2907 200.018 27.2907Z" fill="#989898"/>
<path fill-rule="evenodd" clip-rule="evenodd" d="M181.189 5.95647C180 8.29006 180 11.3449 180 17.4545V22.5455C180 28.6551 180 31.71 181.189 34.0435C182.235 36.0962 183.904 37.7651 185.956 38.8109C188.29 40 191.345 40 197.455 40H202.545C208.655 40 211.71 40 214.043 38.8109C216.096 37.7651 217.765 36.0962 218.811 34.0435C220 31.71 220 28.6551 220 22.5455V17.4545C220 11.3449 220 8.29006 218.811 5.95647C217.765 3.90378 216.096 2.23491 214.043 1.18902C211.71 0 208.655 0 202.545 0H197.455C191.345 0 188.29 0 185.956 1.18902C183.904 2.23491 182.235 3.90378 181.189 5.95647ZM202.545 3.63636H197.455C194.34 3.63636 192.222 3.6392 190.586 3.77291C188.991 3.90316 188.176 4.13925 187.607 4.42904C186.239 5.12631 185.126 6.23889 184.429 7.60735C184.139 8.17607 183.903 8.99135 183.773 10.5856C183.639 12.2223 183.636 14.3397 183.636 17.4545V22.5455C183.636 25.6604 183.639 27.7776 183.773 29.4144C183.903 31.0087 184.139 31.824 184.429 32.3927C185.126 33.7611 186.239 34.8736 187.607 35.5709C188.176 35.8607 188.991 36.0969 190.586 36.2271C192.222 36.3607 194.34 36.3636 197.455 36.3636H202.545C205.66 36.3636 207.778 36.3607 209.414 36.2271C211.009 36.0969 211.824 35.8607 212.393 35.5709C213.761 34.8736 214.874 33.7611 215.571 32.3927C215.861 31.824 216.097 31.0087 216.227 29.4144C216.361 27.7776 216.364 25.6604 216.364 22.5455V17.4545C216.364 14.3397 216.361 12.2223 216.227 10.5856C216.097 8.99135 215.861 8.17607 215.571 7.60735C214.874 6.23889 213.761 5.12631 212.393 4.42904C211.824 4.13925 211.009 3.90316 209.414 3.77291C207.778 3.6392 205.66 3.63636 202.545 3.63636Z" fill="#989898"/>
<path fill-rule="evenodd" clip-rule="evenodd" d="M102.58 40C117.674 40 125.93 24.6087 125.93 11.2631C125.93 10.8249 125.93 10.3901 125.906 9.95689C127.512 8.52927 128.898 6.75673 130 4.72855C128.504 5.54574 126.914 6.08165 125.288 6.31793C127 5.05524 128.282 3.07148 128.896 0.730698C127.284 1.90724 125.522 2.73759 123.684 3.18312C120.576 -0.883105 115.378 -1.08012 112.072 2.74488C109.942 5.21119 109.036 8.88842 109.698 12.3959C103.1 11.9873 96.952 8.15252 92.784 1.84399C90.606 6.45908 91.72 12.3609 95.326 15.3244C94.02 15.2776 92.742 14.8449 91.6 14.0622V14.1903C91.602 18.9975 94.356 23.1366 98.184 24.0892C96.976 24.4953 95.708 24.5542 94.48 24.2613C95.554 28.3767 98.636 31.1955 102.146 31.2767C99.24 34.0877 95.65 35.614 91.954 35.6091C91.302 35.6066 90.65 35.5598 90 35.4638C93.754 38.4273 98.12 40 102.58 39.9927" fill="#989898"/>
</svg>
