<svg width="21" height="23" viewBox="0 0 21 23" fill="none" xmlns="http://www.w3.org/2000/svg">
<path d="M2.85358 21.1792L2.85239 21.1799C2.12905 21.571 1.68075 21.4906 1.47419 21.3725C1.27663 21.2596 1 20.9395 1 20.1643V4.33387C1 2.53435 2.53763 1 4.48062 1H15.6894C17.6324 1 19.17 2.53435 19.17 4.33387V20.1643C19.17 20.9383 18.8944 21.2536 18.697 21.3656C18.4864 21.485 18.0311 21.5639 17.2984 21.1773L11.6425 18.1287C11.642 18.1285 11.6415 18.1282 11.641 18.128C11.1606 17.8677 10.5928 17.7673 10.0832 17.7673C9.57177 17.7673 9.00463 17.8683 8.52198 18.124L8.52197 18.124L8.51559 18.1274L2.85358 21.1792Z" fill="white" stroke="black" stroke-width="2"/>
</svg>
