<svg width="23" height="26" viewBox="0 0 23 26" fill="none" xmlns="http://www.w3.org/2000/svg">
<path d="M5.5625 10.5908C6.12231 10.5556 6.81245 10.5556 7.7 10.5556H15.3C16.1875 10.5556 16.8777 10.5556 17.4375 10.5908M5.5625 10.5908C4.86387 10.6346 4.36822 10.7334 3.94516 10.9552C3.27483 11.3067 2.72984 11.8676 2.38829 12.5576C2 13.342 2 14.3686 2 16.4222V18.1333C2 20.1869 2 21.2136 2.38829 21.998C2.72984 22.6879 3.27483 23.2488 3.94516 23.6003C4.70722 24 5.70481 24 7.7 24H15.3C17.2952 24 18.2927 24 19.0549 23.6003C19.7252 23.2488 20.2702 22.6879 20.6117 21.998C21 21.2136 21 20.1869 21 18.1333V16.4222C21 14.3686 21 13.342 20.6117 12.5576C20.2702 11.8676 19.7252 11.3067 19.0549 10.9552C18.6318 10.7334 18.1361 10.6346 17.4375 10.5908M5.5625 10.5908V8.11111C5.5625 4.73604 8.22081 2 11.5 2C14.7792 2 17.4375 4.73604 17.4375 8.11111V10.5908" stroke="#888888" stroke-width="3" stroke-linecap="round" stroke-linejoin="round"/>
</svg>
