<svg width="40" height="47" viewBox="0 0 40 47" fill="none" xmlns="http://www.w3.org/2000/svg">
<path fill-rule="evenodd" clip-rule="evenodd" d="M0 23.4719C0 10.9912 8.9543 0.873596 20 0.873596C31.0456 0.873596 40 10.9912 40 23.4719C40 35.9525 31.0456 46.0702 20 46.0702C8.9543 46.0702 0 35.9525 0 23.4719ZM19.9998 9.91292C15.5815 9.91292 11.9998 13.96 11.9998 18.9522C11.9998 23.9444 15.5815 27.9916 19.9998 27.9916C24.418 27.9916 27.9998 23.9444 27.9998 18.9522C27.9998 13.96 24.418 9.91292 19.9998 9.91292ZM30.223 32.5054C31.7386 33.6082 31.6646 36.0119 30.2844 37.322C27.5034 39.961 23.9162 41.5506 20.0002 41.5506C16.1102 41.5506 12.5443 39.982 9.77112 37.3739C8.37862 36.0644 8.30484 33.6484 9.82702 32.5384C10.3009 32.1928 10.8169 31.89 11.377 31.6292C13.6303 30.5795 16.5084 30.2514 20 30.2514C23.5092 30.2514 26.4036 30.5585 28.6628 31.5969C29.2272 31.8563 29.7468 32.1589 30.223 32.5054Z" fill="#323232"/>
</svg>
