<svg width="29" height="29" viewBox="0 0 29 29" fill="none" xmlns="http://www.w3.org/2000/svg">
<path d="M1 10H28M7 1V4M22 1V4M5.5 14.5H8.5M13 14.5H16M20.5 14.5H23.5M5.5 19H8.5M13 19H16M20.5 19H23.5M5.5 23.5H8.5M13 23.5H16M20.5 23.5H23.5M5.8 28H23.2C24.8801 28 25.7203 28 26.362 27.673C26.9265 27.3854 27.3854 26.9265 27.673 26.362C28 25.7203 28 24.8801 28 23.2V8.8C28 7.11983 28 6.27976 27.673 5.63803C27.3854 5.07354 26.9265 4.61459 26.362 4.32698C25.7203 4 24.8801 4 23.2 4H5.8C4.11985 4 3.27976 4 2.63803 4.32698C2.07354 4.61459 1.61459 5.07354 1.32698 5.63803C1 6.27976 1 7.11983 1 8.8V23.2C1 24.8801 1 25.7203 1.32698 26.362C1.61459 26.9265 2.07354 27.3854 2.63803 27.673C3.27976 28 4.11983 28 5.8 28Z" stroke="#888888" stroke-width="2" stroke-linecap="round"/>
</svg>
